<svg width="50" height="50" viewBox="0 0 50 50" fill="none" xmlns="http://www.w3.org/2000/svg">
<g clip-path="url(#clip0_611_988)">
<path d="M40.4529 38.6893C39.9401 39.2761 39.3767 39.8464 38.7628 40.4002C38.7288 40.4306 38.7127 40.4686 38.7145 40.5142C38.7816 42.1406 38.8505 43.7728 38.9212 45.4108C38.936 45.7503 38.787 46.0066 38.4675 46.1408C35.7058 47.3011 33.0031 48.4372 30.3595 49.5492C30.0172 49.6928 29.7285 49.568 29.5044 49.3063C28.3902 48.0136 27.3458 46.8046 26.3712 45.6792C26.3372 45.6398 26.2943 45.6219 26.2424 45.6255C25.4495 45.6792 24.6481 45.6805 23.8381 45.6295C23.8121 45.6279 23.7862 45.632 23.7623 45.6415C23.7383 45.651 23.717 45.6657 23.6999 45.6846C22.6108 46.8681 21.5006 48.0749 20.3694 49.305C20.1452 49.5492 19.8606 49.6163 19.5479 49.4888C16.6546 48.3071 13.951 47.204 11.4372 46.1797C11.0971 46.0411 10.94 45.795 10.966 45.4417C11.0805 43.8636 11.1982 42.2551 11.319 40.6162C11.3226 40.5625 11.3047 40.5178 11.2653 40.482C10.6255 39.9122 10.0549 39.345 9.55378 38.7805C9.53701 38.7617 9.51637 38.7469 9.49337 38.7371C9.47037 38.7273 9.4456 38.7229 9.42088 38.7242C7.74558 38.7948 6.09758 38.8637 4.47686 38.9308C4.14261 38.9456 3.9144 38.755 3.79225 38.4625C2.59573 35.6159 1.45962 32.9151 0.383921 30.3601C0.327736 30.2266 0.315139 30.0789 0.347936 29.9381C0.380732 29.7974 0.457239 29.6708 0.566486 29.5765L4.25805 26.3868C4.27642 26.371 4.29083 26.3511 4.30015 26.3287C4.30948 26.3064 4.31345 26.2821 4.31175 26.258C4.26164 25.4743 4.25984 24.6709 4.30638 23.8479C4.30907 23.7942 4.29072 23.7491 4.25134 23.7124C3.01635 22.5789 1.81178 21.4719 0.637632 20.3912C0.393317 20.1658 0.315459 19.8826 0.447013 19.5619C1.59252 16.7636 2.69954 14.0525 3.76808 11.4287C3.82468 11.2895 3.92401 11.1718 4.05183 11.0925C4.17964 11.0132 4.32937 10.9763 4.47955 10.9872L9.34034 11.3415C9.38687 11.345 9.42581 11.3294 9.45713 11.2945C9.98603 10.6933 10.557 10.1177 11.17 9.56748C11.196 9.54511 11.2085 9.51648 11.2076 9.48159C11.1718 7.99835 11.1092 6.52003 11.0197 5.04663C10.97 4.22003 11.0062 3.99056 11.7996 3.66583C14.4244 2.58694 17.0009 1.50582 19.5291 0.422467C19.8683 0.276647 20.1663 0.352688 20.4231 0.650589C21.5024 1.90123 22.5468 3.11162 23.5562 4.28175C23.5894 4.32022 23.6314 4.33811 23.6824 4.33543C24.4834 4.28981 25.2911 4.28757 26.1054 4.32872C26.1547 4.33141 26.1958 4.31441 26.2289 4.27773L29.5889 0.625092C29.6823 0.523407 29.8046 0.452702 29.9392 0.422477C30.0738 0.392252 30.2144 0.403955 30.342 0.456014C33.0429 1.55637 35.7805 2.67372 38.5547 3.80807C38.838 3.92347 38.9897 4.216 38.9682 4.50988C38.8384 6.23824 38.7203 7.85656 38.6138 9.36485C38.6122 9.38571 38.6154 9.40674 38.6233 9.42629C38.6312 9.44585 38.6436 9.46339 38.6595 9.47757C39.2904 10.0331 39.8645 10.6025 40.3817 11.1858C40.4149 11.2225 40.456 11.2399 40.5052 11.2381C42.1483 11.1692 43.7986 11.1004 45.456 11.0315C45.7594 11.0194 46.0117 11.1939 46.1245 11.4649C47.3067 14.2775 48.4405 16.9729 49.5261 19.5512C49.6693 19.892 49.5999 20.1841 49.318 20.4274C48.0759 21.5 46.8597 22.5508 45.6694 23.5795C45.6522 23.5946 45.6387 23.6134 45.6299 23.6346C45.621 23.6557 45.6171 23.6787 45.6184 23.7016C45.6694 24.5005 45.6716 25.311 45.6251 26.1332C45.6233 26.1761 45.6381 26.2119 45.6694 26.2405L49.3368 29.6114C49.4362 29.7029 49.5052 29.8225 49.5347 29.9541C49.5642 30.0858 49.5528 30.2232 49.5019 30.3481C48.3707 33.1276 47.2507 35.8717 46.1419 38.5806C46.0372 38.8369 45.7486 38.9966 45.4815 38.9778C43.8948 38.8651 42.2741 38.7465 40.6193 38.6222C40.5531 38.6168 40.4976 38.6392 40.4529 38.6893ZM30.3111 1.91197C30.2834 1.90034 30.2592 1.90571 30.2387 1.92807C29.1343 3.12862 28.0506 4.30636 26.9874 5.46128C26.829 5.6317 26.637 5.731 26.3981 5.71221C25.3734 5.6317 24.3769 5.63438 23.4086 5.72026C23.1763 5.74039 22.9522 5.66391 22.7978 5.48409C21.7454 4.26476 20.7081 3.06466 19.6861 1.88379C19.6775 1.87406 19.6661 1.86727 19.6536 1.86438C19.6411 1.86149 19.628 1.86265 19.6163 1.86769L12.4319 4.88561C12.4173 4.8919 12.4049 4.90235 12.3965 4.91554C12.3881 4.92874 12.3841 4.94405 12.3849 4.95941C12.4529 6.56879 12.5191 8.15849 12.5836 9.7285C12.5916 9.94589 12.546 10.1606 12.3728 10.3109C11.5808 11.0006 10.8671 11.7194 10.2317 12.4673C10.0961 12.627 9.87595 12.7437 9.66386 12.7276C8.08521 12.6104 6.49537 12.4946 4.89435 12.3801C4.88121 12.3788 4.86806 12.3818 4.85691 12.3886C4.84576 12.3954 4.83722 12.4056 4.8326 12.4177L1.88605 19.6344C1.88058 19.6469 1.8792 19.6608 1.88208 19.6743C1.88497 19.6877 1.89198 19.7 1.90216 19.7095C3.14253 20.8492 4.32652 21.9371 5.45412 22.973C5.62595 23.1305 5.70336 23.3317 5.68636 23.5769C5.61476 24.5895 5.61745 25.5901 5.69441 26.5787C5.71186 26.8108 5.61521 27.0108 5.44204 27.1611C4.22226 28.2158 3.03335 29.2432 1.87531 30.2434C1.8422 30.272 1.83415 30.3065 1.85115 30.3467L4.86213 37.5057C4.86837 37.521 4.87929 37.5341 4.89342 37.5432C4.90756 37.5523 4.92427 37.557 4.94133 37.5567C6.605 37.486 8.20736 37.4189 9.74843 37.3554C9.98021 37.3456 10.1753 37.4324 10.3337 37.6157C10.9924 38.3771 11.7079 39.0847 12.4802 39.7386C12.695 39.9198 12.7218 40.1908 12.7017 40.4525C12.6247 41.3909 12.512 42.9118 12.3634 45.015C12.3621 45.0353 12.3673 45.0556 12.3781 45.0729C12.3889 45.0903 12.4049 45.1038 12.4238 45.1116L19.5948 48.0369C19.6387 48.0548 19.6767 48.0463 19.709 48.0114C20.7211 46.9155 21.7494 45.7973 22.7938 44.6567C23.0166 44.4138 23.1777 44.2259 23.5374 44.2514C24.5281 44.323 25.5117 44.3199 26.488 44.242C26.7135 44.2246 26.9511 44.2729 27.1055 44.4527C28.1034 45.604 29.1464 46.81 30.2346 48.0704C30.2451 48.0826 30.2593 48.091 30.2752 48.0947C30.2911 48.0983 30.3079 48.0968 30.3232 48.0906L37.4755 45.0834C37.5131 45.0673 37.5314 45.0387 37.5305 44.9975C37.4804 43.4078 37.4204 41.9331 37.3506 40.5733C37.3251 40.0915 37.3157 39.8594 37.6352 39.5789C38.4532 38.8615 39.1351 38.1708 39.681 37.5071C39.843 37.3102 40.0502 37.2208 40.3025 37.2387C41.917 37.3559 43.4974 37.4704 45.0439 37.5822C45.0545 37.5829 45.0649 37.5804 45.0739 37.5751C45.0828 37.5698 45.0896 37.562 45.0935 37.5527L48.0374 30.3387C48.0445 30.3217 48.0461 30.303 48.0421 30.2849C48.038 30.2669 48.0284 30.2505 48.0146 30.238C46.8216 29.1466 45.6323 28.053 44.4465 26.9571C44.2953 26.8175 44.2277 26.6391 44.2438 26.4217C44.3181 25.4045 44.3149 24.4017 44.2344 23.4131C44.2169 23.2025 44.2908 22.9703 44.4532 22.8294C45.6676 21.7801 46.87 20.741 48.0602 19.7122C48.0727 19.7018 48.0815 19.6876 48.0854 19.6717C48.0892 19.6558 48.0879 19.6389 48.0817 19.6236L45.0653 12.4485C45.0602 12.4363 45.0513 12.4259 45.0398 12.4187C45.0283 12.4115 45.0147 12.4079 45.0009 12.4083C43.297 12.4771 41.7129 12.5438 40.2488 12.6082C40.026 12.6176 39.7991 12.5814 39.6434 12.4016C38.9794 11.634 38.2581 10.9165 37.4795 10.2492C37.2942 10.0908 37.2083 9.88685 37.2271 9.6386C37.3453 8.04443 37.4598 6.47083 37.5708 4.91781C37.5726 4.8874 37.5591 4.86637 37.5305 4.85474L30.3111 1.91197Z" fill="#525555"/>
<path d="M30.3124 1.91243L37.5318 4.8552C37.5604 4.86683 37.5738 4.88785 37.572 4.91827C37.4611 6.47129 37.3465 8.04488 37.2284 9.63905C37.2096 9.8873 37.2955 10.0913 37.4807 10.2496C38.2593 10.917 38.9806 11.6345 39.6447 12.402C39.8004 12.5818 40.0273 12.6181 40.2501 12.6087C41.7142 12.5443 43.2982 12.4776 45.0022 12.4087C45.016 12.4083 45.0295 12.4119 45.041 12.4191C45.0525 12.4263 45.0614 12.4367 45.0666 12.449L48.0829 19.6241C48.0892 19.6394 48.0905 19.6562 48.0866 19.6721C48.0828 19.6881 48.0739 19.7022 48.0615 19.7127C46.8712 20.7414 45.6689 21.7805 44.4545 22.8299C44.292 22.9708 44.2182 23.2029 44.2357 23.4136C44.3162 24.4021 44.3193 25.405 44.245 26.4221C44.2289 26.6395 44.2965 26.818 44.4477 26.9575C45.6335 28.0534 46.8229 29.1471 48.0158 30.2385C48.0296 30.251 48.0392 30.2674 48.0433 30.2854C48.0474 30.3034 48.0458 30.3222 48.0386 30.3391L45.0948 37.5531C45.0909 37.5625 45.084 37.5703 45.0751 37.5756C45.0662 37.5809 45.0557 37.5834 45.0451 37.5827C43.4987 37.4708 41.9182 37.3563 40.3038 37.2391C40.0514 37.2212 39.8442 37.3107 39.6823 37.5075C39.1364 38.1713 38.4544 38.8619 37.6365 39.5794C37.317 39.8599 37.3264 40.092 37.3519 40.5737C37.4217 41.9335 37.4816 43.4083 37.5318 44.998C37.5327 45.0391 37.5143 45.0677 37.4767 45.0838L30.3245 48.091C30.3091 48.0973 30.2923 48.0987 30.2764 48.0951C30.2605 48.0915 30.2464 48.083 30.2359 48.0709C29.1476 46.8104 28.1046 45.6045 27.1068 44.4532C26.9524 44.2733 26.7148 44.225 26.4893 44.2425C25.5129 44.3203 24.5294 44.3234 23.5387 44.2519C23.1789 44.2264 23.0179 44.4142 22.795 44.6571C21.7506 45.7977 20.7224 46.916 19.7102 48.0119C19.678 48.0468 19.64 48.0553 19.5961 48.0374L12.4251 45.112C12.4062 45.1042 12.3902 45.0907 12.3794 45.0734C12.3685 45.0561 12.3634 45.0358 12.3647 45.0154C12.5132 42.9122 12.626 41.3914 12.7029 40.453C12.7231 40.1913 12.6962 39.9202 12.4814 39.7391C11.7091 39.0851 10.9936 38.3775 10.335 37.6162C10.1766 37.4328 9.98146 37.346 9.74968 37.3559C8.20862 37.4194 6.60625 37.4865 4.94258 37.5572C4.92552 37.5575 4.90881 37.5528 4.89468 37.5437C4.88054 37.5346 4.86963 37.5215 4.86338 37.5062L1.8524 30.3472C1.8354 30.3069 1.84345 30.2725 1.87657 30.2438C3.0346 29.2437 4.22351 28.2162 5.44329 27.1615C5.61646 27.0112 5.71312 26.8113 5.69566 26.5791C5.6187 25.5906 5.61601 24.59 5.68761 23.5773C5.70461 23.3322 5.6272 23.1309 5.45538 22.9735C4.32777 21.9375 3.14378 20.8497 1.90341 19.71C1.89324 19.7005 1.88622 19.6882 1.88333 19.6747C1.88045 19.6613 1.88183 19.6473 1.8873 19.6348L4.83385 12.4181C4.83847 12.4061 4.84701 12.3959 4.85816 12.3891C4.86931 12.3823 4.88246 12.3793 4.8956 12.3805C6.49662 12.4951 8.08646 12.6109 9.66511 12.7281C9.8772 12.7442 10.0974 12.6275 10.2329 12.4678C10.8683 11.7199 11.582 11.0011 12.374 10.3113C12.5472 10.1611 12.5929 9.94635 12.5848 9.72896C12.5204 8.15894 12.4541 6.56925 12.3861 4.95987C12.3853 4.94451 12.3894 4.9292 12.3978 4.916C12.4062 4.90281 12.4185 4.89236 12.4331 4.88606L19.6176 1.86814C19.6293 1.8631 19.6423 1.86195 19.6548 1.86484C19.6674 1.86773 19.6788 1.87452 19.6874 1.88425C20.7094 3.06511 21.7466 4.26521 22.799 5.48455C22.9534 5.66436 23.1776 5.74085 23.4098 5.72072C24.3781 5.63484 25.3746 5.63216 26.3993 5.71267C26.6383 5.73146 26.8302 5.63216 26.9886 5.46174C28.0518 4.30681 29.1356 3.12908 30.2399 1.92853C30.2605 1.90616 30.2847 1.9008 30.3124 1.91243ZM40.4931 24.8937C40.4931 20.7746 38.8562 16.8242 35.9424 13.9116C33.0287 10.9989 29.0769 9.36262 24.9563 9.36262C20.8356 9.36262 16.8838 10.9989 13.9701 13.9116C11.0564 16.8242 9.41945 20.7746 9.41945 24.8937C9.41945 29.0128 11.0564 32.9632 13.9701 35.8758C16.8838 38.7885 20.8356 40.4248 24.9563 40.4248C29.0769 40.4248 33.0287 38.7885 35.9424 35.8758C38.8562 32.9632 40.4931 29.0128 40.4931 24.8937Z" fill="#08E1FE"/>
<path d="M40.4916 24.8934C40.4916 29.0125 38.8547 32.9629 35.941 35.8755C33.0272 38.7882 29.0754 40.4245 24.9548 40.4245C20.8342 40.4245 16.8823 38.7882 13.9686 35.8755C11.0549 32.9629 9.41797 29.0125 9.41797 24.8934C9.41797 20.7743 11.0549 16.8239 13.9686 13.9113C16.8823 10.9986 20.8342 9.3623 24.9548 9.3623C29.0754 9.3623 33.0272 10.9986 35.941 13.9113C38.8547 16.8239 40.4916 20.7743 40.4916 24.8934ZM39.1492 24.888C39.1492 21.1273 37.6547 17.5206 34.9945 14.8614C32.3343 12.2022 28.7263 10.7082 24.9642 10.7082C21.2021 10.7082 17.5941 12.2022 14.9338 14.8614C12.2736 17.5206 10.7792 21.1273 10.7792 24.888C10.7792 28.6487 12.2736 32.2554 14.9338 34.9147C17.5941 37.5739 21.2021 39.0678 24.9642 39.0678C28.7263 39.0678 32.3343 37.5739 34.9945 34.9147C37.6547 32.2554 39.1492 28.6487 39.1492 24.888Z" fill="#525555"/>
<path d="M16.4628 27.102L15.7205 29.1457C15.7174 29.1539 15.712 29.1611 15.7048 29.1661C15.6976 29.1711 15.689 29.1739 15.6802 29.1739L13.7915 29.1725C13.7844 29.1726 13.7774 29.1709 13.7711 29.1677C13.7649 29.1644 13.7595 29.1596 13.7555 29.1538C13.7515 29.1479 13.749 29.1412 13.7483 29.1342C13.7475 29.1271 13.7485 29.12 13.7512 29.1135L17.3246 19.939C17.3279 19.931 17.3334 19.9241 17.3406 19.9193C17.3478 19.9145 17.3563 19.912 17.3649 19.9121H19.2805C19.2891 19.912 19.2976 19.9145 19.3048 19.9193C19.3119 19.9241 19.3175 19.931 19.3208 19.939L22.9949 29.1135C22.9975 29.1199 22.9985 29.1269 22.9978 29.1338C22.9971 29.1408 22.9948 29.1474 22.9909 29.1532C22.9871 29.159 22.9819 29.1638 22.9758 29.1672C22.9697 29.1705 22.9629 29.1724 22.9559 29.1725L21.0148 29.1712C21.0061 29.1712 20.9975 29.1685 20.9903 29.1634C20.9831 29.1584 20.9776 29.1513 20.9746 29.143L20.1893 27.1006C20.1863 27.0924 20.1808 27.0853 20.1736 27.0802C20.1664 27.0752 20.1578 27.0725 20.149 27.0725L16.5031 27.0738C16.4943 27.0738 16.4857 27.0765 16.4785 27.0816C16.4713 27.0866 16.4658 27.0937 16.4628 27.102ZM17.0723 25.4488C17.0697 25.4559 17.0688 25.4635 17.0698 25.471C17.0708 25.4785 17.0736 25.4857 17.0779 25.4919C17.0823 25.4981 17.0881 25.5031 17.0948 25.5066C17.1015 25.5101 17.109 25.5119 17.1166 25.5118L19.5073 25.5078C19.5149 25.5078 19.5224 25.506 19.5291 25.5026C19.5358 25.4991 19.5416 25.494 19.546 25.4878C19.5503 25.4816 19.5531 25.4745 19.5541 25.467C19.5551 25.4595 19.5542 25.4519 19.5516 25.4447L18.3502 22.1947C18.347 22.1855 18.341 22.1776 18.333 22.172C18.3251 22.1664 18.3156 22.1634 18.3059 22.1634C18.2962 22.1634 18.2867 22.1664 18.2788 22.172C18.2708 22.1776 18.2648 22.1855 18.2616 22.1947L17.0723 25.4488Z" fill="#525555"/>
<path d="M25.8851 25.7504V29.1025C25.8851 29.149 25.8623 29.1722 25.8166 29.1722L24.0796 29.1709C24.033 29.1709 24.0098 29.1481 24.0098 29.1025V19.9816C24.0098 19.9378 24.0317 19.9158 24.0755 19.9158C25.9916 19.9051 27.3089 19.9073 28.0275 19.9226C28.5296 19.9333 29.1699 19.991 29.6209 20.199C31.1285 20.8941 31.4748 22.8506 30.7767 24.2193C30.2156 25.3197 29.1565 25.6337 27.9752 25.6645C27.2924 25.6833 26.6216 25.6864 25.9629 25.6739C25.911 25.673 25.8851 25.6985 25.8851 25.7504ZM25.8878 21.51L25.8797 24.0677C25.8797 24.0751 25.8827 24.0823 25.888 24.0876C25.8933 24.0929 25.9004 24.0958 25.9079 24.0958L27.7201 24.1012C28.1056 24.1025 28.4757 23.9749 28.7491 23.7464C29.0225 23.5179 29.1767 23.2073 29.178 22.8828V22.7164C29.1788 22.3919 29.0265 22.0804 28.7546 21.8501C28.4828 21.6199 28.1136 21.4898 27.7282 21.4885L25.916 21.4818C25.9085 21.4818 25.9013 21.4848 25.896 21.4901C25.8907 21.4954 25.8878 21.5025 25.8878 21.51Z" fill="#525555"/>
<path d="M34.4061 19.9111H32.6368C32.6109 19.9111 32.5898 19.9322 32.5898 19.9581V29.1259C32.5898 29.1519 32.6109 29.1729 32.6368 29.1729H34.4061C34.432 29.1729 34.4531 29.1519 34.4531 29.1259V19.9581C34.4531 19.9322 34.432 19.9111 34.4061 19.9111Z" fill="#525555"/>
</g>
<defs>
<clipPath id="clip0_611_988">
<rect width="50" height="50" fill="white"/>
</clipPath>
</defs>
</svg>
