<svg width="50" height="50" viewBox="0 0 50 50" fill="none" xmlns="http://www.w3.org/2000/svg">
<g clip-path="url(#clip0_611_971)">
<path d="M17.6651 29.7995C17.6548 29.8023 17.6461 29.8091 17.6409 29.8186C17.6357 29.8281 17.6343 29.8394 17.6371 29.85C18.4833 33.2182 19.3271 36.5765 20.1686 39.925C20.4297 40.9586 21.1266 41.49 22.2595 41.519C25.8469 41.6079 27.7 45.6567 25.3417 48.3535C24.8918 48.8669 24.3329 49.2484 23.6651 49.4981C23.2269 49.6619 22.5695 49.7467 21.6931 49.7525C19.6511 49.7653 17.6663 49.7682 15.7385 49.7612C14.8469 49.7577 14.1558 49.6694 13.6651 49.4964C12.0112 48.9087 10.9745 47.7751 10.5549 46.0957C9.21928 40.7542 7.87546 35.3884 6.52347 29.9981C6.51542 29.9658 6.49965 29.9359 6.47746 29.9107C6.45526 29.8856 6.42729 29.866 6.39585 29.8535C4.1814 28.9685 2.52056 27.5184 1.41334 25.5033C-0.336665 22.3222 -0.125127 18.472 1.89585 15.5173C3.20471 13.6067 5.00832 12.3204 7.30669 11.6584C7.74842 11.5318 8.1948 11.4493 8.64585 11.411C9.26998 11.3587 9.88886 11.2838 10.534 11.2838C12.034 11.2838 13.5042 11.2856 14.9448 11.2891C15.6523 11.2914 16.3061 11.3994 16.9063 11.6131C17.0707 11.6723 17.2286 11.7577 17.3801 11.8692C17.5549 12.0004 17.7368 12.0214 17.9256 11.9319C26.0153 8.11194 34.1482 4.27919 42.3242 0.43366C42.7181 0.24783 43.1074 0.246088 43.492 0.428434C44.1266 0.729828 44.3189 1.2577 44.3189 1.91798C44.3154 6.1944 44.3131 10.2502 44.3119 14.0852C44.3119 14.1549 44.3452 14.1991 44.4116 14.2176C44.8609 14.3431 45.2892 14.4598 45.7263 14.6532C51.0584 17.0295 51.1371 24.418 45.9728 27.0434C45.4745 27.2978 44.9518 27.4371 44.4203 27.5974C44.3492 27.6195 44.3137 27.6671 44.3137 27.7403C44.3148 31.8227 44.3137 35.9029 44.3102 39.9807C44.3084 41.1793 43.3014 41.8291 42.2315 41.3256C34.0054 37.4488 25.8661 33.6108 17.8137 29.8117C17.7647 29.7885 17.7152 29.7844 17.6651 29.7995ZM41.5619 3.91624C41.562 3.90569 41.5594 3.89529 41.5544 3.886C41.5494 3.87671 41.5421 3.86884 41.5332 3.86311C41.5243 3.85737 41.5141 3.85397 41.5035 3.85321C41.493 3.85245 41.4824 3.85435 41.4728 3.85875L19.5637 14.1828C19.5527 14.1878 19.5433 14.1959 19.5368 14.2061C19.5303 14.2163 19.5269 14.2282 19.527 14.2403L19.5182 27.6061C19.5181 27.6182 19.5216 27.6301 19.5281 27.6403C19.5346 27.6505 19.5439 27.6586 19.5549 27.6636L41.4728 37.9685C41.4824 37.9729 41.493 37.9748 41.5035 37.974C41.5141 37.9733 41.5243 37.9699 41.5332 37.9641C41.5421 37.9584 41.5494 37.9505 41.5544 37.9412C41.5594 37.932 41.562 37.9216 41.5619 37.911V3.91624ZM16.7368 26.4528L16.7577 15.3413C16.758 15.1663 16.7236 14.993 16.6566 14.8312C16.5896 14.6694 16.4913 14.5223 16.3673 14.3984C16.2432 14.2745 16.0959 14.1761 15.9337 14.1089C15.7716 14.0418 15.5977 14.0071 15.4221 14.0068L9.97278 13.9964C9.05627 13.9948 8.14841 14.1711 7.30106 14.5154C6.4537 14.8596 5.68343 15.365 5.03423 16.0028C4.38503 16.6405 3.86961 17.398 3.51741 18.2321C3.1652 19.0662 2.98311 19.9605 2.98152 20.864V20.8814C2.9783 22.706 3.71049 24.4572 5.01701 25.7497C6.32354 27.0422 8.09737 27.7701 9.9483 27.7734L15.3976 27.7838C15.5732 27.7841 15.7472 27.7498 15.9095 27.6831C16.0719 27.6163 16.2195 27.5183 16.3438 27.3947C16.4682 27.2711 16.5669 27.1243 16.6343 26.9627C16.7017 26.8011 16.7365 26.6278 16.7368 26.4528ZM44.4326 24.7908C47.999 23.2664 47.985 18.533 44.4308 17.0225C44.4146 17.0156 44.3969 17.0128 44.3794 17.0144C44.3618 17.0159 44.3449 17.0218 44.3302 17.0315C44.3155 17.0411 44.3034 17.0543 44.295 17.0698C44.2866 17.0852 44.2822 17.1025 44.2822 17.1201L44.2892 24.6967C44.2893 24.7136 44.2936 24.7303 44.3017 24.7452C44.3098 24.76 44.3214 24.7727 44.3356 24.782C44.3498 24.7913 44.3661 24.797 44.383 24.7985C44.3999 24.8 44.4169 24.7974 44.4326 24.7908ZM20.2857 43.857C18.8323 43.2298 17.9011 42.0951 17.492 40.4528C16.6505 37.0812 15.8271 33.8123 15.0217 30.6462C14.9961 30.5452 14.9308 30.4946 14.8259 30.4946L9.66683 30.4929C9.64822 30.4929 9.62984 30.4971 9.6131 30.5052C9.59637 30.5133 9.58171 30.5251 9.57025 30.5397C9.55878 30.5544 9.55082 30.5714 9.54695 30.5895C9.54309 30.6077 9.54343 30.6265 9.54795 30.6445C10.8312 35.7815 12.0759 40.7426 13.2822 45.5277C13.4232 46.0899 13.7298 46.5039 14.2018 46.7699C14.4838 46.929 14.8248 47.0074 15.2245 47.0051C17.7502 46.9912 20.1552 46.9906 22.4396 47.0033C23.277 47.0086 23.9221 45.8797 23.5602 45.1375C23.2472 44.4964 22.6004 44.1915 21.8993 44.2054C21.3854 44.2159 20.8475 44.0997 20.2857 43.857Z" fill="#525555"/>
<path d="M16.7357 26.4525C16.7355 26.6276 16.7007 26.8008 16.6333 26.9624C16.5658 27.124 16.4671 27.2708 16.3428 27.3944C16.2184 27.518 16.0709 27.616 15.9085 27.6828C15.7462 27.7495 15.5722 27.7838 15.3966 27.7836L9.94726 27.7731C8.09633 27.7698 6.3225 27.0419 5.01598 25.7494C3.70945 24.4569 2.97727 22.7057 2.98048 20.8811V20.8637C2.98207 19.9602 3.16416 19.0659 3.51637 18.2318C3.86857 17.3977 4.38399 16.6402 5.03319 16.0025C5.68239 15.3648 6.45266 14.8593 7.30002 14.5151C8.14738 14.1708 9.05523 13.9945 9.97174 13.9961L15.421 14.0066C15.5967 14.0068 15.7705 14.0415 15.9327 14.1087C16.0949 14.1759 16.2422 14.2742 16.3662 14.3981C16.4902 14.5221 16.5886 14.6691 16.6556 14.8309C16.7226 14.9927 16.7569 15.166 16.7567 15.3411L16.7357 26.4525ZM15.3315 16.7049C15.3306 16.5347 15.2961 16.3663 15.2299 16.2094C15.1637 16.0525 15.0671 15.9101 14.9457 15.7903C14.8243 15.6706 14.6804 15.5759 14.5223 15.5116C14.3641 15.4473 14.1948 15.4146 14.024 15.4155L11.1674 15.4304C10.8224 15.4322 10.4923 15.5705 10.2497 15.8148C10.007 16.0592 9.87172 16.3896 9.87352 16.7333L9.87424 16.8692C9.87513 17.0394 9.90966 17.2078 9.97585 17.3647C10.042 17.5216 10.1386 17.664 10.26 17.7838C10.3814 17.9035 10.5253 17.9982 10.6835 18.0625C10.8416 18.1268 11.0109 18.1595 11.1817 18.1586L14.0383 18.1437C14.3833 18.1419 14.7134 18.0036 14.956 17.7593C15.1987 17.5149 15.334 17.1845 15.3322 16.8408L15.3315 16.7049ZM15.3372 20.8423C15.3375 20.6723 15.3042 20.504 15.2392 20.3468C15.1742 20.1896 15.0788 20.0468 14.9584 19.9264C14.838 19.8059 14.695 19.7104 14.5375 19.645C14.38 19.5797 14.2111 19.5459 14.0405 19.5456L11.1734 19.5407C11.0029 19.5404 10.8339 19.5735 10.6762 19.6383C10.5185 19.7031 10.3751 19.7982 10.2543 19.9182C10.1334 20.0382 10.0375 20.1807 9.97195 20.3376C9.9064 20.4946 9.87251 20.6628 9.87221 20.8328L9.87196 20.9687C9.87167 21.1387 9.90497 21.3071 9.96997 21.4642C10.035 21.6214 10.1304 21.7643 10.2508 21.8847C10.3712 22.0051 10.5143 22.1007 10.6717 22.166C10.8292 22.2313 10.9981 22.2651 11.1687 22.2654L14.0358 22.2704C14.2064 22.2707 14.3753 22.2375 14.533 22.1727C14.6907 22.1079 14.8341 22.0128 14.9549 21.8928C15.0758 21.7729 15.1717 21.6303 15.2373 21.4734C15.3028 21.3165 15.3367 21.1482 15.337 20.9782L15.3372 20.8423Z" fill="#08E1FE"/>
<path d="M14.0245 15.4158L11.1679 15.4307C10.4495 15.4345 9.87024 16.0178 9.874 16.7336L9.87471 16.8695C9.87847 17.5854 10.4639 18.1626 11.1822 18.1589L14.0388 18.144C14.7572 18.1402 15.3364 17.5569 15.3327 16.8411L15.332 16.7052C15.3282 15.9893 14.7428 15.4121 14.0245 15.4158Z" fill="#525555"/>
<path d="M44.4299 17.0222C47.984 18.5327 47.998 23.2661 44.4316 24.7905C44.416 24.7971 44.3989 24.7998 44.382 24.7982C44.3651 24.7967 44.3488 24.791 44.3347 24.7817C44.3205 24.7724 44.3088 24.7598 44.3007 24.7449C44.2926 24.73 44.2883 24.7134 44.2882 24.6965L44.2812 17.1198C44.2813 17.1022 44.2857 17.0849 44.294 17.0695C44.3024 17.054 44.3145 17.0409 44.3292 17.0312C44.3439 17.0215 44.3608 17.0157 44.3784 17.0141C44.396 17.0125 44.4136 17.0153 44.4299 17.0222Z" fill="#08E1FE"/>
<path d="M14.0411 19.5463L11.1739 19.5413C10.4566 19.5401 9.87398 20.1186 9.87273 20.8335L9.87249 20.9694C9.87124 21.6843 10.4518 22.2648 11.1692 22.2661L14.0363 22.271C14.7537 22.2723 15.3363 21.6938 15.3375 20.9789L15.3378 20.843C15.339 20.1281 14.7585 19.5476 14.0411 19.5463Z" fill="#525555"/>
</g>
<defs>
<clipPath id="clip0_611_971">
<rect width="50" height="50" fill="white"/>
</clipPath>
</defs>
</svg>
