<svg width="50" height="50" viewBox="0 0 50 50" fill="none" xmlns="http://www.w3.org/2000/svg">
<g clip-path="url(#clip0_611_1009)">
<path d="M49.8677 1.02789C49.8677 0.790241 49.7733 0.562326 49.6053 0.394284C49.4372 0.226241 49.2093 0.131836 48.9716 0.131836H1.02691C0.789264 0.131836 0.56135 0.226241 0.393308 0.394284C0.225265 0.562326 0.130859 0.790241 0.130859 1.02789V48.9726C0.130859 49.2103 0.225265 49.4382 0.393308 49.6062C0.56135 49.7743 0.789264 49.8687 1.02691 49.8687H48.9716C49.2093 49.8687 49.4372 49.7743 49.6053 49.6062C49.7733 49.4382 49.8677 49.2103 49.8677 48.9726V1.02789Z" stroke="#8D96A0" stroke-width="2"/>
<path d="M49.8677 48.9726C49.8677 49.2103 49.7733 49.4382 49.6053 49.6062C49.4372 49.7743 49.2093 49.8687 48.9716 49.8687H1.02691C0.789264 49.8687 0.56135 49.7743 0.393308 49.6062C0.225265 49.4382 0.130859 49.2103 0.130859 48.9726V1.02789C0.130859 0.790241 0.225265 0.562326 0.393308 0.394284C0.56135 0.226241 0.789264 0.131836 1.02691 0.131836H48.9716C49.2093 0.131836 49.4372 0.226241 49.6053 0.394284C49.7733 0.562326 49.8677 0.790241 49.8677 1.02789V48.9726ZM48.0914 1.94368C48.0914 1.93426 48.0876 1.92522 48.081 1.91856C48.0743 1.91189 48.0653 1.90815 48.0559 1.90815H1.9427C1.93328 1.90815 1.92424 1.91189 1.91758 1.91856C1.91092 1.92522 1.90718 1.93426 1.90718 1.94368V7.20157C1.90718 7.211 1.91092 7.22003 1.91758 7.22669C1.92424 7.23336 1.93328 7.2371 1.9427 7.2371H48.0559C48.0653 7.2371 48.0743 7.23336 48.081 7.22669C48.0876 7.22003 48.0914 7.211 48.0914 7.20157V1.94368ZM48.0914 9.04762C48.0914 9.03855 48.0878 9.02985 48.0814 9.02343C48.0749 9.01702 48.0662 9.01341 48.0572 9.01341H1.94139C1.93231 9.01341 1.92361 9.01702 1.91719 9.02343C1.91078 9.02985 1.90718 9.03855 1.90718 9.04762V48.0581C1.90718 48.0672 1.91078 48.0759 1.91719 48.0823C1.92361 48.0888 1.93231 48.0924 1.94139 48.0924H48.0572C48.0662 48.0924 48.0749 48.0888 48.0814 48.0823C48.0878 48.0759 48.0914 48.0672 48.0914 48.0581V9.04762Z" fill="#525555"/>
<path d="M4.57294 5.4496C5.05765 5.4496 5.45058 5.05667 5.45058 4.57197C5.45058 4.08726 5.05765 3.69434 4.57294 3.69434C4.08824 3.69434 3.69531 4.08726 3.69531 4.57197C3.69531 5.05667 4.08824 5.4496 4.57294 5.4496Z" fill="#08E1FE"/>
<path d="M5.30058 4.57197C5.30058 4.97383 4.9748 5.2996 4.57294 5.2996C4.17108 5.2996 3.84531 4.97383 3.84531 4.57197C3.84531 4.17011 4.17108 3.84434 4.57294 3.84434C4.9748 3.84434 5.30058 4.17011 5.30058 4.57197Z" stroke="#272A2A" stroke-opacity="0.8" stroke-width="0.3"/>
<path d="M8.12436 5.44892C8.60834 5.44892 9.00068 5.05658 9.00068 4.5726C9.00068 4.08863 8.60834 3.69629 8.12436 3.69629C7.64039 3.69629 7.24805 4.08863 7.24805 4.5726C7.24805 5.05658 7.64039 5.44892 8.12436 5.44892Z" fill="#08E1FE"/>
<path d="M8.85068 4.5726C8.85068 4.97374 8.5255 5.29892 8.12436 5.29892C7.72323 5.29892 7.39805 4.97374 7.39805 4.5726C7.39805 4.17147 7.72323 3.84629 8.12436 3.84629C8.5255 3.84629 8.85068 4.17147 8.85068 4.5726Z" stroke="#272A2A" stroke-opacity="0.8" stroke-width="0.3"/>
<path d="M11.6784 5.4496C12.1631 5.4496 12.556 5.05667 12.556 4.57197C12.556 4.08726 12.1631 3.69434 11.6784 3.69434C11.1937 3.69434 10.8008 4.08726 10.8008 4.57197C10.8008 5.05667 11.1937 5.4496 11.6784 5.4496Z" fill="#08E1FE"/>
<path d="M12.406 4.57197C12.406 4.97383 12.0803 5.2996 11.6784 5.2996C11.2766 5.2996 10.9508 4.97383 10.9508 4.57197C10.9508 4.17011 11.2766 3.84434 11.6784 3.84434C12.0803 3.84434 12.406 4.17011 12.406 4.57197Z" stroke="#272A2A" stroke-opacity="0.8" stroke-width="0.3"/>
<mask id="path-9-inside-1_611_1009" fill="white">
<path d="M36.8474 28.4237C36.8474 31.7187 35.5384 34.8787 33.2086 37.2086C30.8787 39.5385 27.7187 40.8474 24.4237 40.8474C21.1287 40.8474 17.9687 39.5385 15.6388 37.2086C13.3089 34.8787 12 31.7187 12 28.4237C12 25.1287 13.3089 21.9687 15.6388 19.6388C17.9687 17.3089 21.1287 16 24.4237 16C27.7187 16 30.8787 17.3089 33.2086 19.6388C35.5384 21.9687 36.8474 25.1287 36.8474 28.4237ZM27.8789 18.9921C27.7816 18.7421 27.7539 18.4355 27.4618 18.3513C26.8136 18.1654 26.1246 18.0333 25.3947 17.9553C25.3395 17.9491 25.3118 17.9737 25.3118 18.0289V21.6855C25.3118 21.7329 25.3355 21.7566 25.3829 21.7566L28.7553 21.7579C28.7842 21.7579 28.7947 21.7439 28.7868 21.7158C28.5246 20.7719 28.2219 19.864 27.8789 18.9921ZM21.0632 18.5329C20.6434 19.5684 20.2737 20.6434 19.9763 21.7079C19.9667 21.7412 19.9794 21.7579 20.0145 21.7579H23.4618C23.511 21.7579 23.5355 21.7333 23.5355 21.6842V18.0303C23.5355 17.9794 23.5096 17.9561 23.4579 17.9605C22.6939 18.0289 21.9368 18.1816 21.1868 18.4184C21.159 18.427 21.1334 18.4418 21.112 18.4616C21.0906 18.4814 21.0739 18.5058 21.0632 18.5329ZM29.9724 19.5355L30.6329 21.7197C30.636 21.7301 30.6423 21.7391 30.6509 21.7456C30.6594 21.752 30.6697 21.7554 30.6803 21.7553L32.5053 21.7605C32.5088 21.7603 32.5122 21.7591 32.5152 21.7571C32.5181 21.7551 32.5204 21.7523 32.5219 21.7491C32.5234 21.7458 32.524 21.7422 32.5236 21.7387C32.5232 21.7352 32.5219 21.7318 32.5197 21.7289C31.811 20.8675 30.9732 20.1276 30.0066 19.5092C29.9724 19.4873 29.961 19.4961 29.9724 19.5355ZM18.7434 19.5711C17.8118 20.1833 17.011 20.8982 16.3408 21.7158C16.3375 21.7197 16.3353 21.7245 16.3347 21.7295C16.334 21.7346 16.3349 21.7398 16.3371 21.7444C16.3393 21.749 16.3429 21.7529 16.3473 21.7555C16.3517 21.7581 16.3567 21.7594 16.3618 21.7592L18.0368 21.7579C18.0592 21.7579 18.081 21.7506 18.0991 21.7371C18.1171 21.7236 18.1303 21.7046 18.1368 21.6829L18.7697 19.5908C18.7785 19.561 18.7697 19.5544 18.7434 19.5711ZM15.0829 23.5868C14.425 24.7013 14.0592 26.2092 13.9526 27.4553C13.9482 27.5096 13.9732 27.5368 14.0276 27.5368H17.125C17.1785 27.5368 17.207 27.5101 17.2105 27.4566C17.2868 26.1732 17.4539 24.8816 17.7118 23.5816C17.713 23.5759 17.7129 23.57 17.7115 23.5644C17.7102 23.5587 17.7076 23.5534 17.7039 23.5489C17.7003 23.5444 17.6957 23.5407 17.6904 23.5382C17.6852 23.5356 17.6795 23.5343 17.6737 23.5342H15.1776C15.1355 23.5342 15.1039 23.5518 15.0829 23.5868ZM19.5079 23.5974C19.2342 24.8947 19.0531 26.1829 18.9645 27.4618C18.961 27.5118 18.9842 27.5368 19.0342 27.5368H23.4697C23.5136 27.5368 23.5355 27.5149 23.5355 27.4711V23.6105C23.5355 23.5596 23.5096 23.5342 23.4579 23.5342H19.5855C19.5425 23.5342 19.5167 23.5553 19.5079 23.5974ZM29.3382 23.9921C29.3118 23.8553 29.2781 23.7219 29.2368 23.5921C29.2246 23.5535 29.1982 23.5342 29.1579 23.5342L25.3895 23.5329C25.3377 23.5329 25.3118 23.5588 25.3118 23.6105V27.4711C25.3118 27.5149 25.3338 27.5368 25.3776 27.5368H29.7197C29.7732 27.5368 29.7982 27.5101 29.7947 27.4566C29.7307 26.4276 29.5785 25.2728 29.3382 23.9921ZM34.8934 27.4579C34.7816 26.1158 34.3974 24.8013 33.7737 23.5829C33.7579 23.5504 33.7316 23.5342 33.6947 23.5342L31.0763 23.5329C31.0716 23.5328 31.0668 23.5338 31.0625 23.5357C31.0582 23.5377 31.0543 23.5407 31.0513 23.5443C31.0483 23.548 31.0461 23.5523 31.045 23.5569C31.0438 23.5616 31.0437 23.5664 31.0447 23.5711C31.2991 24.843 31.4684 26.1399 31.5526 27.4618C31.5553 27.5118 31.5816 27.5368 31.6316 27.5368H34.8197C34.8732 27.5368 34.8978 27.5105 34.8934 27.4579ZM13.9579 29.3908C14.0605 30.6382 14.425 32.1447 15.0829 33.2579C15.1039 33.293 15.1351 33.3105 15.1763 33.3105H17.4803C17.5294 33.3105 17.5496 33.2864 17.5408 33.2382C17.3197 32.0022 17.1943 30.7197 17.1645 29.3908C17.1636 29.339 17.1373 29.3132 17.0855 29.3132H14.0289C13.9772 29.3132 13.9535 29.339 13.9579 29.3908ZM19.3289 33.2289C19.333 33.2518 19.3449 33.2726 19.3628 33.2875C19.3806 33.3024 19.4031 33.3106 19.4263 33.3105H23.4605C23.5105 33.3105 23.5355 33.286 23.5355 33.2368V29.3789C23.5355 29.3351 23.5136 29.3132 23.4697 29.3132H18.9961C18.9443 29.3132 18.9189 29.339 18.9197 29.3908C18.9487 30.668 19.0851 31.9474 19.3289 33.2289ZM29.4342 33.2263C29.6772 31.9175 29.8136 30.6355 29.8434 29.3803C29.8443 29.3355 29.8228 29.3132 29.7789 29.3132H25.3776C25.3338 29.3132 25.3118 29.3351 25.3118 29.3789V33.2355C25.3118 33.2846 25.3364 33.3092 25.3855 33.3092L29.3329 33.3105C29.3899 33.3105 29.4237 33.2825 29.4342 33.2263ZM33.7789 33.2474C34.4224 32.0724 34.7961 30.6368 34.8868 29.3868C34.8904 29.3377 34.8675 29.3132 34.8184 29.3132H31.6671C31.6197 29.3132 31.5956 29.3368 31.5947 29.3842C31.5675 30.7009 31.4425 31.9807 31.2197 33.2237C31.2101 33.2807 31.2342 33.3092 31.2921 33.3092L33.6711 33.3118C33.693 33.3118 33.7145 33.3059 33.7335 33.2945C33.7525 33.2832 33.7682 33.2669 33.7789 33.2474ZM18.4908 37.0434L17.9434 35.1658C17.9276 35.114 17.893 35.0882 17.8395 35.0882L16.3882 35.0855C16.3285 35.0855 16.318 35.1079 16.3566 35.1526C16.9855 35.9026 17.6829 36.543 18.4487 37.0737C18.4908 37.1026 18.5048 37.0925 18.4908 37.0434ZM20.8211 38.2158C20.8465 38.2798 20.8917 38.3232 20.9566 38.3461C21.7241 38.6206 22.5575 38.8022 23.4566 38.8908C23.5092 38.8952 23.5355 38.8715 23.5355 38.8197V35.1776C23.5355 35.1171 23.5057 35.0868 23.4461 35.0868H19.8237C19.7763 35.0868 19.7592 35.1092 19.7724 35.1539C20.0811 36.2417 20.4307 37.2623 20.8211 38.2158ZM28.075 37.8908C28.4469 36.9066 28.7509 35.9978 28.9868 35.1645C29.0018 35.1127 28.982 35.0868 28.9276 35.0868H25.3855C25.3364 35.0868 25.3118 35.1114 25.3118 35.1605V38.8184C25.3118 38.8693 25.3373 38.8925 25.3882 38.8882C26.1706 38.8197 26.9597 38.657 27.7553 38.4C27.7974 38.386 27.8311 38.3605 27.8566 38.3237C27.9399 38.2 28.0127 38.0557 28.075 37.8908ZM30.2276 37.175C30.2224 37.1917 30.2268 37.1952 30.2408 37.1855C31.0899 36.6118 31.8456 35.9281 32.5079 35.1342C32.5114 35.13 32.5136 35.1248 32.5143 35.1194C32.515 35.1139 32.5141 35.1084 32.5117 35.1034C32.5094 35.0985 32.5057 35.0943 32.501 35.0913C32.4964 35.0884 32.491 35.0868 32.4855 35.0868L30.8842 35.0855C30.872 35.0856 30.8602 35.0896 30.8505 35.097C30.8408 35.1043 30.8337 35.1146 30.8303 35.1263L30.2276 37.175Z"/>
</mask>
<path d="M36.8474 28.4237C36.8474 31.7187 35.5384 34.8787 33.2086 37.2086C30.8787 39.5385 27.7187 40.8474 24.4237 40.8474C21.1287 40.8474 17.9687 39.5385 15.6388 37.2086C13.3089 34.8787 12 31.7187 12 28.4237C12 25.1287 13.3089 21.9687 15.6388 19.6388C17.9687 17.3089 21.1287 16 24.4237 16C27.7187 16 30.8787 17.3089 33.2086 19.6388C35.5384 21.9687 36.8474 25.1287 36.8474 28.4237ZM27.8789 18.9921C27.7816 18.7421 27.7539 18.4355 27.4618 18.3513C26.8136 18.1654 26.1246 18.0333 25.3947 17.9553C25.3395 17.9491 25.3118 17.9737 25.3118 18.0289V21.6855C25.3118 21.7329 25.3355 21.7566 25.3829 21.7566L28.7553 21.7579C28.7842 21.7579 28.7947 21.7439 28.7868 21.7158C28.5246 20.7719 28.2219 19.864 27.8789 18.9921ZM21.0632 18.5329C20.6434 19.5684 20.2737 20.6434 19.9763 21.7079C19.9667 21.7412 19.9794 21.7579 20.0145 21.7579H23.4618C23.511 21.7579 23.5355 21.7333 23.5355 21.6842V18.0303C23.5355 17.9794 23.5096 17.9561 23.4579 17.9605C22.6939 18.0289 21.9368 18.1816 21.1868 18.4184C21.159 18.427 21.1334 18.4418 21.112 18.4616C21.0906 18.4814 21.0739 18.5058 21.0632 18.5329ZM29.9724 19.5355L30.6329 21.7197C30.636 21.7301 30.6423 21.7391 30.6509 21.7456C30.6594 21.752 30.6697 21.7554 30.6803 21.7553L32.5053 21.7605C32.5088 21.7603 32.5122 21.7591 32.5152 21.7571C32.5181 21.7551 32.5204 21.7523 32.5219 21.7491C32.5234 21.7458 32.524 21.7422 32.5236 21.7387C32.5232 21.7352 32.5219 21.7318 32.5197 21.7289C31.811 20.8675 30.9732 20.1276 30.0066 19.5092C29.9724 19.4873 29.961 19.4961 29.9724 19.5355ZM18.7434 19.5711C17.8118 20.1833 17.011 20.8982 16.3408 21.7158C16.3375 21.7197 16.3353 21.7245 16.3347 21.7295C16.334 21.7346 16.3349 21.7398 16.3371 21.7444C16.3393 21.749 16.3429 21.7529 16.3473 21.7555C16.3517 21.7581 16.3567 21.7594 16.3618 21.7592L18.0368 21.7579C18.0592 21.7579 18.081 21.7506 18.0991 21.7371C18.1171 21.7236 18.1303 21.7046 18.1368 21.6829L18.7697 19.5908C18.7785 19.561 18.7697 19.5544 18.7434 19.5711ZM15.0829 23.5868C14.425 24.7013 14.0592 26.2092 13.9526 27.4553C13.9482 27.5096 13.9732 27.5368 14.0276 27.5368H17.125C17.1785 27.5368 17.207 27.5101 17.2105 27.4566C17.2868 26.1732 17.4539 24.8816 17.7118 23.5816C17.713 23.5759 17.7129 23.57 17.7115 23.5644C17.7102 23.5587 17.7076 23.5534 17.7039 23.5489C17.7003 23.5444 17.6957 23.5407 17.6904 23.5382C17.6852 23.5356 17.6795 23.5343 17.6737 23.5342H15.1776C15.1355 23.5342 15.1039 23.5518 15.0829 23.5868ZM19.5079 23.5974C19.2342 24.8947 19.0531 26.1829 18.9645 27.4618C18.961 27.5118 18.9842 27.5368 19.0342 27.5368H23.4697C23.5136 27.5368 23.5355 27.5149 23.5355 27.4711V23.6105C23.5355 23.5596 23.5096 23.5342 23.4579 23.5342H19.5855C19.5425 23.5342 19.5167 23.5553 19.5079 23.5974ZM29.3382 23.9921C29.3118 23.8553 29.2781 23.7219 29.2368 23.5921C29.2246 23.5535 29.1982 23.5342 29.1579 23.5342L25.3895 23.5329C25.3377 23.5329 25.3118 23.5588 25.3118 23.6105V27.4711C25.3118 27.5149 25.3338 27.5368 25.3776 27.5368H29.7197C29.7732 27.5368 29.7982 27.5101 29.7947 27.4566C29.7307 26.4276 29.5785 25.2728 29.3382 23.9921ZM34.8934 27.4579C34.7816 26.1158 34.3974 24.8013 33.7737 23.5829C33.7579 23.5504 33.7316 23.5342 33.6947 23.5342L31.0763 23.5329C31.0716 23.5328 31.0668 23.5338 31.0625 23.5357C31.0582 23.5377 31.0543 23.5407 31.0513 23.5443C31.0483 23.548 31.0461 23.5523 31.045 23.5569C31.0438 23.5616 31.0437 23.5664 31.0447 23.5711C31.2991 24.843 31.4684 26.1399 31.5526 27.4618C31.5553 27.5118 31.5816 27.5368 31.6316 27.5368H34.8197C34.8732 27.5368 34.8978 27.5105 34.8934 27.4579ZM13.9579 29.3908C14.0605 30.6382 14.425 32.1447 15.0829 33.2579C15.1039 33.293 15.1351 33.3105 15.1763 33.3105H17.4803C17.5294 33.3105 17.5496 33.2864 17.5408 33.2382C17.3197 32.0022 17.1943 30.7197 17.1645 29.3908C17.1636 29.339 17.1373 29.3132 17.0855 29.3132H14.0289C13.9772 29.3132 13.9535 29.339 13.9579 29.3908ZM19.3289 33.2289C19.333 33.2518 19.3449 33.2726 19.3628 33.2875C19.3806 33.3024 19.4031 33.3106 19.4263 33.3105H23.4605C23.5105 33.3105 23.5355 33.286 23.5355 33.2368V29.3789C23.5355 29.3351 23.5136 29.3132 23.4697 29.3132H18.9961C18.9443 29.3132 18.9189 29.339 18.9197 29.3908C18.9487 30.668 19.0851 31.9474 19.3289 33.2289ZM29.4342 33.2263C29.6772 31.9175 29.8136 30.6355 29.8434 29.3803C29.8443 29.3355 29.8228 29.3132 29.7789 29.3132H25.3776C25.3338 29.3132 25.3118 29.3351 25.3118 29.3789V33.2355C25.3118 33.2846 25.3364 33.3092 25.3855 33.3092L29.3329 33.3105C29.3899 33.3105 29.4237 33.2825 29.4342 33.2263ZM33.7789 33.2474C34.4224 32.0724 34.7961 30.6368 34.8868 29.3868C34.8904 29.3377 34.8675 29.3132 34.8184 29.3132H31.6671C31.6197 29.3132 31.5956 29.3368 31.5947 29.3842C31.5675 30.7009 31.4425 31.9807 31.2197 33.2237C31.2101 33.2807 31.2342 33.3092 31.2921 33.3092L33.6711 33.3118C33.693 33.3118 33.7145 33.3059 33.7335 33.2945C33.7525 33.2832 33.7682 33.2669 33.7789 33.2474ZM18.4908 37.0434L17.9434 35.1658C17.9276 35.114 17.893 35.0882 17.8395 35.0882L16.3882 35.0855C16.3285 35.0855 16.318 35.1079 16.3566 35.1526C16.9855 35.9026 17.6829 36.543 18.4487 37.0737C18.4908 37.1026 18.5048 37.0925 18.4908 37.0434ZM20.8211 38.2158C20.8465 38.2798 20.8917 38.3232 20.9566 38.3461C21.7241 38.6206 22.5575 38.8022 23.4566 38.8908C23.5092 38.8952 23.5355 38.8715 23.5355 38.8197V35.1776C23.5355 35.1171 23.5057 35.0868 23.4461 35.0868H19.8237C19.7763 35.0868 19.7592 35.1092 19.7724 35.1539C20.0811 36.2417 20.4307 37.2623 20.8211 38.2158ZM28.075 37.8908C28.4469 36.9066 28.7509 35.9978 28.9868 35.1645C29.0018 35.1127 28.982 35.0868 28.9276 35.0868H25.3855C25.3364 35.0868 25.3118 35.1114 25.3118 35.1605V38.8184C25.3118 38.8693 25.3373 38.8925 25.3882 38.8882C26.1706 38.8197 26.9597 38.657 27.7553 38.4C27.7974 38.386 27.8311 38.3605 27.8566 38.3237C27.9399 38.2 28.0127 38.0557 28.075 37.8908ZM30.2276 37.175C30.2224 37.1917 30.2268 37.1952 30.2408 37.1855C31.0899 36.6118 31.8456 35.9281 32.5079 35.1342C32.5114 35.13 32.5136 35.1248 32.5143 35.1194C32.515 35.1139 32.5141 35.1084 32.5117 35.1034C32.5094 35.0985 32.5057 35.0943 32.501 35.0913C32.4964 35.0884 32.491 35.0868 32.4855 35.0868L30.8842 35.0855C30.872 35.0856 30.8602 35.0896 30.8505 35.097C30.8408 35.1043 30.8337 35.1146 30.8303 35.1263L30.2276 37.175Z" fill="#08E1FE" stroke="#272A2A" stroke-opacity="0.8" stroke-width="0.6" mask="url(#path-9-inside-1_611_1009)"/>
</g>
<defs>
<clipPath id="clip0_611_1009">
<rect width="50" height="50" fill="white"/>
</clipPath>
</defs>
</svg>
