<svg width="29" height="28" viewBox="0 0 29 28" fill="none" xmlns="http://www.w3.org/2000/svg">
<path id="Vector" d="M9.20824 21.9312C8.67798 19.1827 7.99978 16.4349 8.31398 13.6277C8.32179 13.5579 8.32057 13.4888 8.31032 13.4205C8.27736 13.2055 8.41066 13.0493 8.45167 12.847C8.64698 11.8802 9.01879 11.0335 9.56711 10.3071C10.4592 9.12554 11.8405 8.41703 13.3331 8.12853C13.5257 8.09105 13.692 8.01469 13.897 8.01469C13.9854 8.01469 14.075 8.00997 14.1658 8.00054C15.1258 7.89919 16.0976 7.90697 17.0815 8.02388C17.3427 8.05499 17.5224 8.19052 17.6205 8.43046C17.7612 8.77411 17.5451 9.17928 17.1774 9.26343C17.0661 9.28888 16.9248 9.29171 16.7534 9.27191C16.3066 9.221 15.8506 9.19861 15.3853 9.20474C15.3565 9.20521 15.3523 9.21535 15.3728 9.23515L19.4178 13.1398C19.4437 13.1652 19.4567 13.16 19.4567 13.1242C19.4562 11.974 19.35 10.8082 19.1381 9.62688C19.1151 9.50102 19.0782 9.37374 19.0275 9.24504C18.9484 9.04706 19.004 8.83775 18.9594 8.62492C18.7694 7.72972 18.6195 6.96417 18.5097 6.32825C18.4752 6.12884 18.4591 5.92166 18.4562 5.71519C18.4269 3.78904 18.4232 1.86643 19.817 0.32636C19.9742 0.152412 20.1253 0.0496468 20.2703 0.0180628C20.7222 -0.0809315 21.1229 0.238679 21.0884 0.690517C21.0709 0.923154 20.9119 1.09569 20.7398 1.24559C20.7363 1.24868 20.7335 1.25243 20.7316 1.25662C20.7296 1.26081 20.7286 1.26535 20.7285 1.26997C20.7284 1.2746 20.7293 1.27921 20.7312 1.28352C20.733 1.28784 20.7357 1.29177 20.7391 1.29509L27.6653 7.98216C27.6678 7.98451 27.6708 7.98636 27.674 7.9876C27.6772 7.98885 27.6806 7.98945 27.684 7.98939C27.6875 7.98932 27.6908 7.98858 27.6939 7.98722C27.697 7.98586 27.6997 7.98389 27.702 7.98145C27.9319 7.72619 28.2124 7.54871 28.5691 7.67528C29.0891 7.85983 29.1309 8.44673 28.7354 8.79816C27.7159 9.70325 26.4247 10.083 25.0375 10.1516C24.3574 10.185 23.6738 10.1909 22.9868 10.1692C22.6655 10.1589 21.8545 10.0599 20.5538 9.87224C20.5269 9.86847 20.5155 9.87955 20.5194 9.90548C20.7318 11.3437 20.846 12.7784 20.7039 14.1891C20.6907 14.3164 20.6881 14.4394 20.6959 14.5582C20.7127 14.8078 20.5831 14.9811 20.5347 15.2151C20.3509 16.1167 19.962 17.0189 19.3841 17.755C18.5368 18.8334 17.2741 19.52 15.9075 19.8374C15.7483 19.8742 15.5889 19.9098 15.4292 19.9442C15.2632 19.98 15.1038 20.0064 14.951 20.0234C13.3595 20.1981 11.7877 20.1033 10.1838 19.87C10.154 19.8657 10.1423 19.878 10.1486 19.9067C10.2834 20.5243 10.3945 21.0918 10.4819 21.6094C10.5903 22.2501 10.5478 22.977 10.539 23.6318C10.5185 25.2008 10.1823 26.6723 9.07128 27.7782C8.83789 28.0111 8.5691 28.0606 8.26491 27.9267C7.90823 27.7704 7.8057 27.3016 8.02688 27.0004C8.09182 26.9113 8.17019 26.8283 8.26198 26.7515C8.26556 26.7485 8.26845 26.7448 8.27048 26.7406C8.27251 26.7365 8.27363 26.732 8.27377 26.7274C8.2739 26.7228 8.27306 26.7183 8.27128 26.714C8.26951 26.7098 8.26684 26.7059 8.26345 26.7027L1.35915 20.0368C1.32888 20.0076 1.29982 20.0086 1.27199 20.0397C1.08377 20.249 0.842809 20.4074 0.548386 20.3515C0.248104 20.294 0.0693991 20.1226 0.0122722 19.8374C-0.0675589 19.4386 0.256893 19.177 0.556442 18.9642C0.623823 18.9166 0.681194 18.8593 0.728555 18.7923C0.865514 18.6007 1.00174 18.4777 1.25222 18.46C1.33718 18.4534 1.42238 18.4305 1.50783 18.3914C2.34715 18.0068 3.36225 17.8469 4.28214 17.8279C4.93446 17.8142 5.70055 17.8111 6.5804 17.8187C7.35235 17.825 7.50468 18.8553 6.78108 19.061C6.61263 19.1091 6.42733 19.0844 6.25522 19.0929C6.252 19.0931 6.24892 19.0941 6.24632 19.096C6.24373 19.0978 6.24173 19.1004 6.24057 19.1033C6.23942 19.1062 6.23915 19.1093 6.2398 19.1124C6.24044 19.1154 6.24198 19.1182 6.24423 19.1204L9.17381 21.9488C9.20506 21.979 9.21654 21.9731 9.20824 21.9312ZM20.0426 2.48726C19.88 3.0553 19.7965 3.6125 19.7921 4.15886C19.7916 4.18525 19.8011 4.20812 19.8207 4.22744L24.6215 8.86179C24.642 8.88159 24.6667 8.89126 24.6955 8.89079C25.2794 8.8823 25.8571 8.80075 26.4283 8.64613C26.432 8.64511 26.4353 8.64319 26.438 8.64055C26.4407 8.63791 26.4426 8.63464 26.4435 8.63107C26.4445 8.62751 26.4445 8.62375 26.4435 8.62019C26.4425 8.61663 26.4405 8.61339 26.4379 8.61077L20.0836 2.47666C20.0806 2.47362 20.0768 2.47141 20.0726 2.47027C20.0684 2.46914 20.064 2.46911 20.0598 2.47019C20.0556 2.47128 20.0518 2.47344 20.0488 2.47644C20.0457 2.47945 20.0436 2.48319 20.0426 2.48726ZM22.7034 8.82432L19.8331 6.05318C19.796 6.01736 19.7823 6.02443 19.7921 6.0744L20.2667 8.47855C20.2725 8.5073 20.2904 8.52451 20.3201 8.53016C21.0826 8.68007 21.878 8.76987 22.6807 8.86887C22.7334 8.87547 22.741 8.86062 22.7034 8.82432ZM18.4372 16.8549C18.8641 16.2383 19.1234 15.575 19.2736 14.834C19.2754 14.8239 19.2746 14.8136 19.2715 14.8039C19.2683 14.7942 19.2627 14.7853 19.2552 14.7781L13.6802 9.39566C13.6588 9.37492 13.6334 9.36737 13.6041 9.37303C12.8453 9.51964 12.1608 9.78998 11.5504 10.1841C11.526 10.2001 11.5243 10.218 11.5453 10.2378L18.4027 16.8584C18.405 16.8607 18.4078 16.8624 18.4109 16.8635C18.4139 16.8645 18.4173 16.8649 18.4205 16.8646C18.4238 16.8642 18.427 16.8632 18.4299 16.8615C18.4328 16.8598 18.4353 16.8576 18.4372 16.8549ZM10.5544 11.1514C10.1362 11.7581 9.87691 12.4341 9.72384 13.1539C9.71847 13.1779 9.72482 13.1987 9.74289 13.2161L15.3377 18.6177C15.348 18.6277 15.3608 18.635 15.3747 18.6389C15.3887 18.6429 15.4034 18.6434 15.4175 18.6403C16.1557 18.4914 16.8303 18.2175 17.4411 17.8187C17.4714 17.7989 17.4736 17.7762 17.4477 17.7508L10.6071 11.1464C10.5876 11.1276 10.57 11.1292 10.5544 11.1514ZM13.6927 18.8228L9.57517 14.8474C9.55417 14.8271 9.54367 14.8297 9.54367 14.8552C9.54416 16.061 9.65891 17.274 9.8879 18.4939C9.89229 18.517 9.90646 18.531 9.93038 18.5357C11.1891 18.7596 12.4401 18.8628 13.6832 18.8454C13.6858 18.8453 13.6884 18.8444 13.6906 18.8429C13.6928 18.8414 13.6945 18.8394 13.6955 18.837C13.6965 18.8346 13.6967 18.832 13.6962 18.8295C13.6958 18.827 13.6945 18.8246 13.6927 18.8228ZM8.95776 25.5119C9.11742 24.9566 9.20189 24.4001 9.21117 23.8425C9.21165 23.8142 9.20164 23.7899 9.18114 23.7696L4.37955 19.1346C4.35904 19.1148 4.33439 19.1051 4.30558 19.1056C3.8471 19.1108 3.35737 19.1692 2.83639 19.281C2.75143 19.2993 2.67063 19.322 2.59397 19.3488C2.56028 19.3606 2.55613 19.3788 2.58152 19.4033L8.91967 25.5218C8.93823 25.5398 8.95092 25.5365 8.95776 25.5119Z" fill="#08E1FE"/>
</svg>
