<svg width="435" height="541" viewBox="0 0 435 541" fill="none" xmlns="http://www.w3.org/2000/svg">
<g id="Group 50">
<path id="Vector" d="M315.147 494.118C327.936 515.871 357.811 523.762 381.874 511.743C405.938 499.724 415.077 472.346 402.288 450.593C389.499 428.84 359.624 420.949 335.56 432.968C311.497 444.987 302.357 472.365 315.147 494.118Z" fill="#23D1FF"/>
<g id="Group 49">
<path id="Vector_2" d="M381.21 101.478C405.272 89.4593 414.412 62.0791 401.624 40.3272C388.835 18.5754 358.958 10.6837 334.896 22.7021C310.834 34.7205 301.694 62.1007 314.483 83.8525C327.271 105.604 357.148 113.496 381.21 101.478Z" fill="url(#paint0_linear_788_11)"/>
<path id="Vector_3" d="M266.416 126.256C274.786 155.203 309.102 171.088 339.921 161.559C350.58 158.257 362.669 158.15 372.892 161.334C393.116 167.644 407.145 184.53 407.753 204.143C408.885 240.816 366.128 265.104 331.036 248.089C316.236 240.923 307.258 228.76 304.089 211.639C298.465 181.085 262.823 162.121 231.095 171.499C218.331 175.279 206.539 175.575 193.649 170.96C165.713 160.918 153.548 130.969 167.218 106.348C179.231 84.6776 206.18 74.6542 230.852 82.3151C245.405 86.8412 255.757 95.8248 261.834 109.269C264.258 114.596 264.801 120.593 266.445 126.242L266.416 126.256Z" fill="url(#paint1_linear_788_11)"/>
<path id="Vector_4" d="M262.701 309.506C255.9 308.59 247.214 309.288 240.248 311.453C222.871 316.897 205.342 314.094 191.434 303.753C167.18 285.706 168.987 249.721 194.544 233.081C202.336 228.009 210.363 225.112 218.624 224.39C240.668 222.445 260.4 232.674 269.147 251.356C272.499 258.578 272.523 266.418 275.715 273.687C279.732 282.802 286.153 290.109 294.978 295.609C309.167 304.461 324.322 306.968 340.414 303.143C348.656 301.183 352.835 300.174 352.981 300.169C368.11 298.51 381.263 302.05 392.44 310.789C416.856 329.935 413.584 366.853 385.537 382.682C373.325 389.557 360.57 391.513 347.299 388.469C331.927 384.959 320.906 376.613 314.266 363.417C310.839 356.636 311.045 349.187 308.126 342.321C300.063 323.533 284.956 312.612 262.789 309.529L262.701 309.506Z" fill="url(#paint2_linear_788_11)"/>
<path id="Vector_5" d="M186.169 364.757C192.199 364.677 197.812 363.255 203.654 361.652C220.659 357.033 237.662 360.908 250.818 371.491C273.233 389.58 270.692 423.302 247.379 439.766C220.414 458.829 182.841 449.388 170.689 420.983C168.834 416.686 168.386 412.057 167.255 407.533C160.941 382.211 134.917 366.733 107.113 369.533C100.952 370.15 94.9976 372.45 88.9493 373.449C71.2998 376.401 52.7631 369.855 42.1235 357.274C30.3975 343.417 28.6263 326.137 36.7043 310.139C46.6809 290.395 71.6598 279.873 94.2635 285.602C109.322 289.403 120.066 297.786 126.436 310.713C129.93 317.798 129.82 325.536 132.951 332.701C141.968 353.236 161.788 365.073 186.154 364.731L186.169 364.757Z" fill="url(#paint3_linear_788_11)"/>
<path id="Vector_6" d="M26.6408 213.713C39.4301 235.466 69.3051 243.357 93.3685 231.338C117.432 219.319 126.571 191.941 113.782 170.188C100.993 148.434 71.1178 140.543 47.0544 152.562C22.991 164.582 13.8515 191.96 26.6408 213.713Z" fill="#EF55FF"/>
</g>
</g>
<defs>
<linearGradient id="paint0_linear_788_11" x1="334.883" y1="22.6768" x2="375.635" y2="104.265" gradientUnits="userSpaceOnUse">
<stop stop-color="#EF55FF"/>
<stop offset="0.09" stop-color="#E55AFE"/>
<stop offset="0.24" stop-color="#CD69FE"/>
<stop offset="0.43" stop-color="#A482FE"/>
<stop offset="0.66" stop-color="#6CA4FE"/>
<stop offset="0.9" stop-color="#25CFFE"/>
<stop offset="1" stop-color="#08E1FE"/>
</linearGradient>
<linearGradient id="paint1_linear_788_11" x1="226.129" y1="67.1166" x2="329.106" y2="273.284" gradientUnits="userSpaceOnUse">
<stop stop-color="#EF55FF"/>
<stop offset="0.09" stop-color="#E55AFE"/>
<stop offset="0.24" stop-color="#CD69FE"/>
<stop offset="0.43" stop-color="#A482FE"/>
<stop offset="0.66" stop-color="#6CA4FE"/>
<stop offset="0.9" stop-color="#25CFFE"/>
<stop offset="1" stop-color="#08E1FE"/>
</linearGradient>
<linearGradient id="paint2_linear_788_11" x1="228.71" y1="210.047" x2="326.85" y2="406.532" gradientUnits="userSpaceOnUse">
<stop stop-color="#EF55FF"/>
<stop offset="0.07" stop-color="#E55AFE"/>
<stop offset="0.18" stop-color="#CD69FE"/>
<stop offset="0.33" stop-color="#A482FE"/>
<stop offset="0.5" stop-color="#6CA4FE"/>
<stop offset="0.68" stop-color="#25CFFE"/>
<stop offset="0.76" stop-color="#08E1FE"/>
</linearGradient>
<linearGradient id="paint3_linear_788_11" x1="93.2925" y1="271.966" x2="191.419" y2="468.424" gradientUnits="userSpaceOnUse">
<stop stop-color="#EF55FF"/>
<stop offset="0.09" stop-color="#E55AFE"/>
<stop offset="0.24" stop-color="#CD69FE"/>
<stop offset="0.43" stop-color="#A482FE"/>
<stop offset="0.66" stop-color="#6CA4FE"/>
<stop offset="0.9" stop-color="#25CFFE"/>
<stop offset="1" stop-color="#08E1FE"/>
</linearGradient>
</defs>
</svg>
