<svg width="343" height="303" viewBox="0 0 343 303" fill="none" xmlns="http://www.w3.org/2000/svg">
<g id="Group 119">
<path id="Vector" d="M131.968 162.993C137.298 163.513 144.046 162.667 149.41 160.692C162.789 155.731 176.537 157.427 187.691 165.329C207.144 179.12 206.828 208.246 187.414 222.517C181.495 226.866 175.327 229.467 168.91 230.318C151.787 232.604 136.096 224.982 128.711 210.175C125.879 204.449 125.622 198.117 122.913 192.349C119.505 185.117 114.279 179.422 107.233 175.266C95.9045 168.575 84.016 167.042 71.5894 170.653C65.2248 172.504 61.9984 173.454 61.8849 173.463C50.1432 175.294 39.7836 172.861 30.8061 166.164C11.194 151.491 12.6227 121.563 34.0029 107.867C43.3123 101.918 53.1945 99.9242 63.6309 101.952C75.7192 104.289 84.5625 110.673 90.139 121.118C93.0163 126.484 93.0823 132.508 95.5656 137.959C102.421 152.874 114.528 161.206 131.899 162.977L131.968 162.993Z" fill="url(#paint0_linear_796_20)"/>
<path id="Vector_2" d="M189.943 115.879C185.246 116.139 180.914 117.47 176.409 118.955C163.295 123.237 149.924 120.658 139.349 112.537C121.328 98.6518 122.284 71.3294 139.955 57.2747C160.394 41.0014 189.966 47.4083 200.301 69.9592C201.877 73.3699 202.367 77.0948 203.386 80.7122C209.076 100.963 229.831 112.621 251.417 109.457C256.2 108.759 260.771 106.708 265.455 105.705C279.122 102.748 293.769 107.435 302.444 117.252C312.005 128.065 313.911 141.966 308.1 155.151C300.924 171.423 281.774 180.732 263.982 176.838C252.129 174.256 243.5 167.833 238.142 157.597C235.204 151.988 235.055 145.734 232.397 140.048C224.745 123.752 208.937 114.834 189.956 115.9L189.943 115.879Z" fill="url(#paint1_linear_796_20)"/>
<path id="Vector_3" d="M318.874 232.715C308.245 215.558 284.72 210.153 266.329 220.642C247.938 231.132 241.646 253.543 252.276 270.7C262.905 287.857 286.43 293.262 304.821 282.773C323.212 272.284 329.504 249.872 318.874 232.715Z" fill="#EF55FF"/>
</g>
<defs>
<linearGradient id="paint0_linear_796_20" x1="161.483" y1="242.231" x2="74.3078" y2="89.3863" gradientUnits="userSpaceOnUse">
<stop stop-color="#EF55FF"/>
<stop offset="0.07" stop-color="#E55AFE"/>
<stop offset="0.18" stop-color="#CD69FE"/>
<stop offset="0.33" stop-color="#A482FE"/>
<stop offset="0.5" stop-color="#6CA4FE"/>
<stop offset="0.68" stop-color="#25CFFE"/>
<stop offset="0.76" stop-color="#08E1FE"/>
</linearGradient>
<linearGradient id="paint1_linear_796_20" x1="265.153" y1="187.821" x2="177.989" y2="34.9976" gradientUnits="userSpaceOnUse">
<stop stop-color="#EF55FF"/>
<stop offset="0.09" stop-color="#E55AFE"/>
<stop offset="0.24" stop-color="#CD69FE"/>
<stop offset="0.43" stop-color="#A482FE"/>
<stop offset="0.66" stop-color="#6CA4FE"/>
<stop offset="0.9" stop-color="#25CFFE"/>
<stop offset="1" stop-color="#08E1FE"/>
</linearGradient>
</defs>
</svg>
