<svg width="23" height="23" viewBox="0 0 23 23" fill="none" xmlns="http://www.w3.org/2000/svg">
<path id="Vector" d="M12.2886 1.51488L14.8492 6.94614C14.9747 7.21912 15.2218 7.40994 15.5093 7.45597L21.2404 8.32996C21.473 8.36343 21.6831 8.49218 21.824 8.68757C21.9648 8.88296 22.0248 9.1288 21.9906 9.37043C21.9618 9.56905 21.8703 9.75207 21.7305 9.89067L17.5797 14.1358C17.3699 14.345 17.2759 14.6503 17.3297 14.9473L18.3299 20.93C18.4022 21.423 18.0821 21.8856 17.6097 21.9705C17.4149 22.0023 17.2155 21.9695 17.0396 21.8769L11.9286 19.0572C11.6733 18.911 11.3637 18.911 11.1084 19.0572L5.96738 21.8977C5.53605 22.1279 5.00692 21.9568 4.77714 21.5127C4.68755 21.3337 4.65597 21.1293 4.68712 20.93L5.68732 14.9473C5.7357 14.6506 5.64244 14.348 5.43727 14.1358L1.25643 9.89067C0.914523 9.53009 0.914523 8.95066 1.25643 8.59008C1.39597 8.45568 1.56945 8.36545 1.75653 8.32996L7.48768 7.45597C7.77384 7.40659 8.01958 7.21679 8.14781 6.94614L10.7083 1.51488C10.8095 1.29466 10.9919 1.12628 11.2141 1.04792C11.4363 0.969559 11.6795 0.98787 11.8886 1.0987C12.061 1.18969 12.2012 1.33546 12.2886 1.51488Z" stroke="#08E1FE" stroke-width="2" stroke-linecap="round" stroke-linejoin="round"/>
</svg>
