<svg width="29" height="20" viewBox="0 0 29 20" fill="none" xmlns="http://www.w3.org/2000/svg">
<path id="Vector" d="M11.2822 5.07252C10.1621 5.17894 9.2596 5.58729 8.28454 6.06741C8.1562 6.13011 8.03203 6.12186 7.91202 6.04266L0.27409 0.991464C-0.0142591 0.800074 -0.0750958 0.553412 0.0915803 0.251478C0.113248 0.21188 0.141583 0.176408 0.176585 0.145059C0.38493 -0.0331309 0.603276 -0.0471551 0.831622 0.102987L8.07953 4.89928C8.14953 4.94547 8.22204 4.94877 8.29704 4.90918C9.71379 4.16012 11.1322 3.88128 12.5523 4.07267C12.5997 4.07896 12.648 4.07586 12.6943 4.06354C12.7407 4.05122 12.7842 4.02993 12.8223 4.0009C13.6857 3.34094 14.5507 3.1446 15.4174 3.41188C16.9559 3.88541 18.566 4.58909 20.2477 5.52294C20.3194 5.56419 20.3936 5.56914 20.4702 5.53779L28.2557 2.48628C28.5157 2.38399 28.734 2.44091 28.9107 2.65705C28.9357 2.6884 28.954 2.72469 28.9657 2.76594C29.0624 3.10417 28.9449 3.33846 28.6132 3.4688L20.5477 6.63168C20.4588 6.6665 20.363 6.68101 20.2674 6.67416C20.1718 6.6673 20.0787 6.63926 19.9952 6.59208C18.4734 5.72093 16.9117 5.00982 15.3099 4.45875C14.7399 4.26241 14.224 4.31521 13.7624 4.61714C12.6706 5.3299 11.6689 6.2489 10.7572 7.37414C10.6955 7.45004 10.7038 7.51686 10.7822 7.57461C10.9889 7.733 11.2164 7.80642 11.4647 7.79487C12.3498 7.74867 13.099 7.36837 13.7123 6.65396C13.7824 6.57146 13.8724 6.52691 13.9824 6.52031L15.65 6.41637C15.7047 6.41271 15.7593 6.42448 15.8076 6.45033C15.8558 6.47617 15.8956 6.51503 15.9225 6.56239C16.0675 6.80987 16.1942 7.06313 16.3025 7.32217C16.7192 8.31707 17.3509 9.02075 18.1976 9.43323C19.6694 10.1509 21.0819 11.2118 22.4353 12.6159C22.4987 12.6819 22.5745 12.7034 22.6629 12.6803L28.2782 11.2523C28.6149 11.1665 28.8474 11.2836 28.9757 11.6037C29.044 11.7703 28.9682 11.9543 28.7482 12.1556C28.694 12.206 28.6279 12.2425 28.5557 12.262L23.3604 13.5811C23.2687 13.6042 23.2379 13.6603 23.2679 13.7494C23.6429 14.8977 23.2045 15.6864 21.9528 16.1154C21.8878 16.1368 21.847 16.1814 21.8303 16.249C21.587 17.2736 20.9794 17.7942 20.0077 17.8107C19.9244 17.8123 19.8669 17.8511 19.8352 17.927C19.5218 18.6694 18.9168 19.0844 18.0201 19.1718C17.7201 19.1991 17.5676 19.3822 17.3526 19.5579C16.3225 20.3994 14.9324 19.845 13.9824 19.0926C13.904 19.0299 13.8374 19.0407 13.7824 19.1248C13.2323 19.9745 12.5114 20.2055 11.6197 19.8178C11.4064 19.7254 11.2314 19.5678 11.0947 19.3451C11.0397 19.2543 10.958 19.2065 10.8497 19.2015C10.0413 19.1685 9.41877 18.86 8.98208 18.2759C8.91874 18.1901 8.83457 18.1349 8.72957 18.1101C7.77118 17.8758 7.14864 17.3561 6.86196 16.5509C6.83606 16.4756 6.78494 16.411 6.71695 16.3678C5.73023 15.7392 5.36854 14.9514 5.63189 14.0043C5.65689 13.9119 5.62773 13.8418 5.54439 13.7939L0.314093 10.9058C0.012409 10.7391 -0.071762 10.4974 0.0615789 10.1806C0.0765797 10.1493 0.0957473 10.1204 0.119082 10.094C0.322427 9.87788 0.554106 9.84158 0.814121 9.98512L6.10942 12.9154C6.18942 12.9599 6.2636 12.9517 6.33193 12.8906C7.11531 12.2043 7.91535 12.2513 8.73207 13.0317C8.78707 13.0828 8.85124 13.1035 8.92458 13.0936C9.66629 12.9913 10.3163 13.2717 10.8747 13.935C10.9323 14.0047 11.0158 14.0491 11.1072 14.0588C11.6689 14.1231 12.1723 14.3566 12.6173 14.7591C12.6823 14.8169 12.7573 14.8449 12.8423 14.8433C13.4007 14.8317 13.8549 15.0273 14.2049 15.4298C14.2665 15.5008 14.3441 15.5313 14.4374 15.5214C14.6849 15.4917 14.8574 15.5066 15.0499 15.6847C15.8866 16.4618 16.685 17.215 17.4451 17.9443C17.7217 18.2099 18.0243 18.2421 18.3526 18.0408L18.6401 17.8626C18.9685 17.6613 18.9893 17.432 18.7026 17.1746L15.925 14.6948C15.7033 14.4968 15.6658 14.2699 15.8125 14.0142C15.8291 13.9845 15.85 13.9589 15.875 13.9375C16.1367 13.7081 16.3975 13.7098 16.6575 13.9424L19.5777 16.5559C19.8444 16.7951 20.1344 16.8265 20.4477 16.6499C20.5211 16.6087 20.5827 16.5526 20.6327 16.4816C20.8694 16.1517 20.8377 15.8481 20.5377 15.5709L17.7851 13.0292C17.5651 12.8263 17.5276 12.5945 17.6726 12.3338C17.6959 12.2925 17.7292 12.2587 17.7726 12.2323C18.0509 12.0607 18.3101 12.0855 18.5501 12.3066L21.3853 14.92C21.597 15.1163 21.817 15.1254 22.0453 14.9472C22.162 14.8581 22.2545 14.7459 22.3228 14.6106C22.3768 14.5037 22.3976 14.3831 22.3825 14.2642C22.3673 14.1453 22.317 14.0334 22.2378 13.9424C21.4278 13.0168 20.3902 12.0813 19.1252 11.1359C19.0968 11.1161 18.6035 10.8497 17.6451 10.3366C16.5733 9.76239 15.7833 8.85906 15.2749 7.62658C15.2366 7.53088 15.1658 7.48716 15.0624 7.49541L14.4849 7.53748C14.4153 7.54223 14.3493 7.57012 14.2974 7.61668C13.0973 8.6784 11.0997 9.505 9.84963 8.11413C9.58212 7.81714 9.51461 7.33454 9.74712 6.99054C10.1971 6.3347 10.7822 5.77043 11.3447 5.19626C11.4381 5.10056 11.4172 5.05932 11.2822 5.07252ZM6.98947 15.1551L7.87702 13.6628C7.8802 13.6578 7.88233 13.6522 7.8833 13.6463C7.88427 13.6405 7.88404 13.6345 7.88265 13.6287C7.88125 13.623 7.87871 13.6175 7.87516 13.6128C7.87162 13.608 7.86715 13.6039 7.86202 13.6009L7.84202 13.591C7.68279 13.4981 7.48961 13.4769 7.30491 13.5321C7.12022 13.5874 6.95911 13.7145 6.85696 13.8855L6.69195 14.1627C6.64137 14.2476 6.60688 14.3409 6.59043 14.437C6.57399 14.5331 6.57593 14.6303 6.59613 14.7229C6.61633 14.8156 6.65441 14.9019 6.70817 14.9769C6.76194 15.0519 6.83034 15.1141 6.90946 15.1601L6.92947 15.1724C6.93979 15.1778 6.95181 15.179 6.963 15.1758C6.97419 15.1725 6.98368 15.1651 6.98947 15.1551ZM8.79457 16.7539C8.92208 16.0411 9.2421 15.2021 9.73212 14.6626C9.91213 14.4646 9.8788 14.3128 9.63212 14.2072L9.54211 14.1676C9.25876 14.0472 9.01042 14.0967 8.79707 14.3161C8.33038 14.7963 8.02619 15.3399 7.88452 15.9471C7.81952 16.2243 7.89619 16.4544 8.11453 16.6376L8.41205 16.89C8.61873 17.0632 8.74623 17.0179 8.79457 16.7539ZM10.8297 17.8057C10.8747 17.0434 11.1922 16.1921 11.6547 15.5659C11.7497 15.4373 11.7256 15.3366 11.5822 15.264C11.4072 15.1766 11.2355 15.1229 11.0672 15.1031C10.8172 15.0751 10.6222 15.1658 10.4822 15.3754C10.0755 15.9809 9.84296 16.6054 9.78463 17.2489C9.75462 17.5838 9.8913 17.8272 10.1946 17.9789L10.3697 18.068C10.658 18.2116 10.8114 18.1241 10.8297 17.8057ZM12.6098 18.8798C13.1398 18.4863 13.4498 17.2093 13.6173 16.5955C13.6457 16.4899 13.6307 16.3909 13.5723 16.2985C13.4173 16.0494 13.2048 15.9141 12.9348 15.8926C12.8748 15.8881 12.8149 15.8981 12.7603 15.9219C12.7058 15.9457 12.6583 15.9824 12.6223 16.0287C12.0839 16.7085 11.8297 17.4996 11.8597 18.4021C11.8722 18.7684 12.2498 19.1471 12.6098 18.8798ZM15.6625 18.9045C15.6834 18.9174 15.7079 18.9235 15.7325 18.9219L16.6 18.8625C16.6222 18.8605 16.6434 18.8522 16.6611 18.8387C16.6788 18.8252 16.6922 18.807 16.6998 18.7863C16.7074 18.7655 16.7089 18.743 16.704 18.7214C16.6992 18.6999 16.6883 18.6801 16.6725 18.6645L14.7999 16.8702C14.7853 16.8562 14.7673 16.8461 14.7476 16.841C14.7278 16.836 14.7071 16.8361 14.6875 16.8413C14.6678 16.8466 14.6499 16.8568 14.6354 16.8709C14.6209 16.8851 14.6104 16.9028 14.6049 16.9222L14.3049 17.9938C14.2985 18.018 14.3002 18.0436 14.3096 18.0667C14.3191 18.0899 14.3358 18.1095 14.3574 18.1225L15.6625 18.9045Z" fill="#08E1FE"/>
</svg>
