<svg width="19" height="25" viewBox="0 0 19 25" fill="none" xmlns="http://www.w3.org/2000/svg">
<path id="Vector" d="M7.885 15.2396C5.24166 15.2396 2.8936 15.2393 0.840793 15.2388C0.437024 15.2388 0.169613 15.0539 0.0385601 14.6842C-0.0728611 14.3684 0.0719866 14.082 0.283687 13.8496C4.41954 9.31939 8.5652 4.77731 12.7207 0.223332C13.0454 -0.132101 13.6128 -0.0337215 13.8834 0.310604C14.1604 0.662863 14.0315 0.97466 13.9049 1.34675C12.9653 4.1077 12.0259 6.88082 11.0868 9.66609C11.0844 9.67339 11.0837 9.68114 11.0848 9.68872C11.086 9.6963 11.0889 9.70349 11.0933 9.70969C11.0978 9.71589 11.1036 9.72093 11.1103 9.72438C11.1171 9.72784 11.1246 9.72962 11.1321 9.72957C13.3866 9.72851 15.7232 9.72824 18.1421 9.72877C18.566 9.72877 18.8396 9.91495 18.9627 10.2873C19.082 10.6475 18.8974 10.9244 18.661 11.1838C14.5878 15.6373 10.4657 20.1537 6.29486 24.7331C6.10544 24.941 5.80381 25.0655 5.52765 24.964C4.99362 24.7688 4.82251 24.311 5.02784 23.8025C5.07188 23.693 5.11247 23.5832 5.14961 23.4732C6.07175 20.7482 6.99496 18.0198 7.91922 15.288C7.93036 15.2557 7.91896 15.2396 7.885 15.2396ZM9.09073 13.6877C9.45047 13.6901 9.7521 14.0527 9.80065 14.3645C9.81763 14.474 9.77757 14.6718 9.68047 14.9579C8.99974 16.9657 8.33705 18.9203 7.6924 20.8218C7.6786 20.862 7.6863 20.8662 7.71548 20.8345C10.6225 17.671 13.5171 14.5073 16.3992 11.3433C16.4315 11.3079 16.4236 11.2901 16.3753 11.2901C14.3554 11.288 12.2453 11.288 10.045 11.2901C9.72716 11.2907 9.48097 11.1561 9.30641 10.8863C9.18279 10.6959 9.15308 10.506 9.21728 10.3167C9.9118 8.26711 10.605 6.21702 11.2969 4.16641C11.3022 4.15002 11.303 4.136 11.2993 4.12436C11.2985 4.12207 11.2972 4.11999 11.2955 4.11833C11.2938 4.11667 11.2916 4.11549 11.2894 4.11493C11.2871 4.11436 11.2847 4.11442 11.2826 4.1151C11.2804 4.11579 11.2785 4.11707 11.277 4.11881L2.59249 13.6346C2.58828 13.6393 2.5855 13.6451 2.5845 13.6514C2.58349 13.6577 2.58431 13.6641 2.58685 13.6698C2.58939 13.6755 2.59353 13.6804 2.59878 13.6837C2.60402 13.687 2.61014 13.6887 2.61637 13.6885C4.67129 13.6726 6.82941 13.6724 9.09073 13.6877Z" fill="#08E1FE"/>
</svg>
