<svg width="198" height="155" viewBox="0 0 198 155" fill="none" xmlns="http://www.w3.org/2000/svg">
<path opacity="0.18" d="M43.8321 29.398C57.4538 18.5741 78.2753 11.1605 92.9988 20.6959C100.461 25.527 104.471 33.6133 110.529 39.8857C116.588 46.158 127.31 50.5829 134.645 45.5784C138.026 43.2754 139.785 39.5234 142.385 36.4829C150.123 27.4263 165.546 25.7547 176.454 31.4164C187.362 37.0781 193.643 48.6965 194.173 60.1958C194.736 72.9114 189.137 85.1431 187.509 97.781C185.985 109.754 188.045 121.883 193.468 132.861C195.275 136.502 197.478 140.107 197.932 144.076C198.386 148.045 196.498 152.615 192.395 153.971C190.729 154.517 188.912 154.489 187.145 154.426L17.2564 149.756C13.7509 149.66 10.1102 149.531 7.00207 148.043C-1.55872 143.936 -1.26003 132.406 2.53569 124.252C6.33141 116.099 12.4942 108.181 11.6375 99.3465C10.3638 86.2324 -6.64786 74.0318 4.65194 61.0498C8.7548 56.3299 16.5238 53.274 21.503 49.2166C29.2494 42.8976 35.9955 35.6264 43.8321 29.398Z" fill="#08E1FE"/>
<path d="M181.764 15.8496C181.764 15.8496 184.049 25.962 185.991 26.7357C187.932 27.5094 190.063 24.3318 190.218 24.3603C190.373 24.3887 192.472 26.4821 192.472 26.4821C192.472 26.4821 191.26 29.8046 187.532 30.8474C185.464 31.4245 179.439 25.284 178.599 21.5863C177.902 18.4751 177.806 15.2754 178.318 12.1338C178.318 12.1338 180.679 12.7031 181.764 15.8496Z" fill="#08E1FE"/>
<path d="M181.764 15.8496C181.764 15.8496 184.049 25.962 185.991 26.7357C187.932 27.5094 190.063 24.3318 190.218 24.3603C190.373 24.3887 192.472 26.4821 192.472 26.4821C192.472 26.4821 191.26 29.8046 187.532 30.8474C185.464 31.4245 179.439 25.284 178.599 21.5863C177.902 18.4751 177.806 15.2754 178.318 12.1338C178.318 12.1338 180.679 12.7031 181.764 15.8496Z" fill="url(#paint0_linear_403_2084)"/>
<path d="M166.935 21.9923L125.746 51.4886L75.114 20.1318L13.8105 70.5515" stroke="#004879" stroke-width="9.96" stroke-miterlimit="10"/>
<path d="M34.9851 91.2969H13.9805V150.802H34.9851V91.2969Z" fill="#08E1FE"/>
<path d="M136.249 72.2471H115.244V150.802H136.249V72.2471Z" fill="#08E1FE"/>
<path d="M85.616 45.3711H64.6113V150.801H85.616V45.3711Z" fill="#08E1FE"/>
<path d="M186.88 39.9551H165.875V150.798H186.88V39.9551Z" fill="#08E1FE"/>
<path d="M17.4152 73.8627C19.4059 72.0347 19.4059 69.0708 17.4152 67.2428C15.4244 65.4147 12.1968 65.4147 10.2061 67.2428C8.21537 69.0708 8.21537 72.0347 10.2061 73.8627C12.1968 75.6907 15.4244 75.6907 17.4152 73.8627Z" fill="#08E1FE"/>
<path d="M78.7179 23.4428C80.7086 21.6147 80.7086 18.6509 78.7179 16.8229C76.7272 14.9948 73.4996 14.9948 71.5088 16.8228C69.5181 18.6509 69.5181 21.6147 71.5088 23.4428C73.4996 25.2708 76.7272 25.2708 78.7179 23.4428Z" fill="#08E1FE"/>
<path d="M128.06 54.8781C130.569 53.704 131.565 50.8851 130.287 48.5818C129.008 46.2785 125.938 45.3632 123.43 46.5372C120.922 47.7113 119.925 50.5302 121.204 52.8335C122.482 55.1368 125.552 56.0522 128.06 54.8781Z" fill="#08E1FE"/>
<path d="M17.4152 73.8627C19.4059 72.0347 19.4059 69.0708 17.4152 67.2428C15.4244 65.4147 12.1968 65.4147 10.2061 67.2428C8.21537 69.0708 8.21537 72.0347 10.2061 73.8627C12.1968 75.6907 15.4244 75.6907 17.4152 73.8627Z" fill="url(#paint1_linear_403_2084)"/>
<path d="M78.7179 23.4428C80.7086 21.6147 80.7086 18.6509 78.7179 16.8229C76.7272 14.9948 73.4996 14.9948 71.5088 16.8228C69.5181 18.6509 69.5181 21.6147 71.5088 23.4428C73.4996 25.2708 76.7272 25.2708 78.7179 23.4428Z" fill="url(#paint2_linear_403_2084)"/>
<path d="M128.06 54.8781C130.569 53.704 131.565 50.8851 130.287 48.5818C129.008 46.2785 125.938 45.3632 123.43 46.5372C120.922 47.7113 119.925 50.5302 121.204 52.8335C122.482 55.1368 125.552 56.0522 128.06 54.8781Z" fill="url(#paint3_linear_403_2084)"/>
<path d="M194.269 154.227H3.93403C2.94453 154.227 1.99556 153.866 1.29588 153.224C0.5962 152.581 0.203125 151.71 0.203125 150.801C0.203125 149.892 0.5962 149.021 1.29588 148.378C1.99556 147.736 2.94453 147.375 3.93403 147.375H194.269C195.259 147.375 196.208 147.736 196.907 148.378C197.607 149.021 198 149.892 198 150.801C198 151.71 197.607 152.581 196.907 153.224C196.208 153.866 195.259 154.227 194.269 154.227Z" fill="#08E1FE"/>
<path d="M194.269 154.227H3.93403C2.94453 154.227 1.99556 153.866 1.29588 153.224C0.5962 152.581 0.203125 151.71 0.203125 150.801C0.203125 149.892 0.5962 149.021 1.29588 148.378C1.99556 147.736 2.94453 147.375 3.93403 147.375H194.269C195.259 147.375 196.208 147.736 196.907 148.378C197.607 149.021 198 149.892 198 150.801C198 151.71 197.607 152.581 196.907 153.224C196.208 153.866 195.259 154.227 194.269 154.227Z" fill="url(#paint4_linear_403_2084)"/>
<path d="M171.969 12.6621C171.969 12.6621 167.61 13.5445 165.877 15.643C164.144 17.7416 163.949 34.8509 165.313 35.9868C166.677 37.1228 182.113 34.7991 180.904 32.6954C178.611 28.7053 180.575 12.1238 178.326 12.1446C176.077 12.1653 171.969 12.6621 171.969 12.6621Z" fill="#08E1FE"/>
<path d="M169.906 18.9199C169.906 18.9199 166.097 33.4494 168.469 36.081C168.469 36.081 166.161 36.6554 165.31 35.9775C164.459 35.2995 163.927 26.6621 165.381 22.7806C166.835 18.8992 169.906 18.9199 169.906 18.9199Z" fill="url(#paint5_linear_403_2084)"/>
<path d="M172.258 8.60938C172.258 8.60938 171.827 11.7352 171.793 12.6926C171.759 13.65 175.028 15.1716 175.766 14.2271C175.983 13.9576 176.133 13.6484 176.208 13.3206C176.282 12.9929 176.279 12.6542 176.198 12.3278L175.981 10.2577L172.258 8.60938Z" fill="url(#paint6_linear_403_2084)"/>
<path d="M172.007 5.21399C172.007 5.21399 171.725 9.56894 173.351 10.4772C174.977 11.3855 175.887 12.2885 177.896 10.1874C179.906 8.08624 179.686 4.59813 179.246 4.08837C178.807 3.57861 173.391 0.53299 172.007 5.21399Z" fill="url(#paint7_linear_403_2084)"/>
<path d="M170.264 2.31131C169.827 3.27131 169.886 4.35035 169.951 5.38798H170.413C170.323 5.93655 170.272 6.59122 170.732 6.94055C170.859 7.03888 171.014 7.10357 171.138 7.19931C171.608 7.57451 171.701 8.51382 172.265 8.75188C172.194 7.97559 172.121 7.19931 172.048 6.42303C172.011 6.02712 171.943 5.35693 172.363 5.2586C172.459 5.2379 172.563 5.24307 172.645 5.2172C172.817 5.15737 172.961 5.04497 173.054 4.89892C173.217 4.6738 173.378 4.44868 173.538 4.22096C173.721 3.89633 174.011 3.63347 174.367 3.47056C174.736 3.34376 175.254 3.54301 175.26 3.90528C176.055 3.37223 177.173 3.52231 178.078 3.86387C178.557 4.02469 178.99 4.28199 179.346 4.61687C179.523 4.78692 179.654 4.9923 179.729 5.21683C179.804 5.44136 179.822 5.67889 179.78 5.91068C180.437 3.82506 181.172 -0.755019 176.275 0.106657C175.559 0.23345 174.959 0.73286 174.232 0.779437C174.319 0.779437 174.003 0.458573 173.95 0.435284C173.699 0.336955 173.499 0.471511 173.276 0.55949C172.93 0.665744 172.57 0.732656 172.206 0.758736C171.77 0.855096 171.366 1.04653 171.028 1.31681C170.69 1.58709 170.428 1.92823 170.264 2.31131Z" fill="#4E3D56"/>
<path d="M166.862 14.7314C166.862 14.7314 170.503 15.6759 169.905 18.9182C169.905 18.9182 165.092 23.4336 165.566 24.3522C166.039 25.2708 174.775 30.0682 174.775 30.0682L171.991 32.172C171.991 32.172 161.615 28.7615 160.902 25.7029C160.189 22.6444 161.911 17.9013 166.862 14.7314Z" fill="#08E1FE"/>
<path d="M192.818 16.7724L189.775 27.009L181.764 27.5731L184.201 16.4102L192.818 16.7724Z" fill="#08E1FE"/>
<path d="M192.818 16.7724L189.775 27.009L181.764 27.5731L184.201 16.4102L192.818 16.7724Z" fill="url(#paint8_linear_403_2084)"/>
<path d="M190.504 24.4088C190.488 24.464 190.488 24.5219 190.504 24.577C190.542 24.6456 190.601 24.703 190.673 24.7426C191.152 25.0894 191.355 25.7518 191.932 25.9278C192.423 25.4871 192.823 24.9691 193.113 24.3985C193.484 23.7533 193.584 23.0058 193.395 22.2973C193.172 21.6897 192.7 21.1857 192.079 20.8923C191.945 20.8094 191.792 20.7558 191.631 20.7356C191.471 20.7154 191.308 20.7292 191.155 20.7758C191.033 20.841 190.928 20.9299 190.848 21.0363C190.767 21.1427 190.713 21.264 190.69 21.3917C190.622 21.6504 190.611 21.9092 190.523 22.1524C190.382 22.4273 190.26 22.7099 190.157 22.9986C190.133 23.1114 190.139 23.2281 190.175 23.3382C190.212 23.4483 190.277 23.5485 190.366 23.63C190.467 23.7283 190.512 23.6869 190.56 23.8111C190.576 24.0118 190.557 24.2135 190.504 24.4088Z" fill="url(#paint9_linear_403_2084)"/>
<path d="M176.665 30.3423C176.733 30.3336 176.803 30.339 176.869 30.3583C176.935 30.3775 176.995 30.4101 177.045 30.4536C177.083 30.5186 177.097 30.593 177.086 30.6659C177.075 30.7389 177.039 30.8068 176.983 30.8598C176.872 30.9636 176.777 31.0812 176.702 31.2092C177.172 31.5461 177.676 31.8424 178.206 32.0941C178.575 32.2727 179.012 32.4978 179.029 32.8704C179.015 33.0186 178.961 33.1612 178.872 33.2855C178.783 33.4097 178.662 33.5116 178.519 33.582C177.674 34.0995 176.628 34.247 175.62 34.2056C175.017 34.2152 174.423 34.0642 173.912 33.7709C173.603 33.5461 173.335 33.278 173.117 32.9765L172.424 32.1174C172.41 32.1075 172.399 32.0948 172.391 32.0802C172.383 32.0656 172.379 32.0496 172.379 32.0333C172.379 32.0171 172.383 32.001 172.391 31.9864C172.399 31.9719 172.41 31.9591 172.424 31.9492L173.25 31.116C174.227 30.1405 175.301 30.3294 176.665 30.3423Z" fill="url(#paint10_linear_403_2084)"/>
<path d="M188.388 56.4126C187.647 56.987 187.018 56.1978 186.897 55.5535C186.774 54.8336 186.713 54.106 186.714 53.3773C186.618 49.5011 186.524 45.6248 186.432 41.7486C186.432 41.3785 186.401 40.9723 186.15 40.698C185.84 40.372 185.305 40.328 184.851 40.3099L184.062 40.2762L172.45 39.7716C171.013 39.7095 169.536 39.6397 168.223 39.0989C166.91 38.558 165.78 37.435 165.74 36.1128C165.763 36.8295 175.885 34.8422 176.747 34.5757C178.348 34.0866 179.672 33.3776 181.332 33.4061C183.231 33.4397 185.189 33.7503 187.08 33.9029C188.701 34.0349 190.439 34.2083 191.668 35.1838C192.984 36.2188 193.395 37.9241 193.502 39.5129C193.894 45.7956 191.482 50.7975 188.388 56.4126Z" fill="#EF55FF"/>
<path d="M187.622 56.2918L186.495 55.72C186.648 54.9473 186.724 54.1635 186.723 53.3782C186.627 49.5019 186.533 45.6257 186.441 41.7494C186.441 41.3794 186.41 40.9731 186.159 40.6989C185.849 40.3728 185.314 40.3288 184.86 40.3107L184.071 40.2771L182.617 37.6895C182.617 37.6895 187.489 37.705 188.597 39.1566C189.704 40.6083 187.622 56.2918 187.622 56.2918Z" fill="#33233A"/>
<path d="M185.765 43.7125C185.765 44.6854 185.407 45.6299 185.024 46.5382C184.179 48.5436 183.226 50.4972 182.263 52.4509C181.22 54.5589 180.178 56.6696 179.138 58.7828C178.954 59.1528 178.704 59.5746 178.264 59.6341C177.748 59.7014 177.441 59.2692 177.303 58.7621C177.241 58.5362 177.212 58.304 177.216 58.0712C177.244 54.0811 177.422 50.0944 177.751 46.1112C177.791 45.8764 177.766 45.6361 177.678 45.4126C177.527 45.1866 177.306 45.0066 177.044 44.895C175.046 43.8238 172.879 43.0578 170.845 42.0487C168.81 41.0395 166.854 39.756 165.654 37.9447C165.456 37.7071 165.363 37.4093 165.395 37.1115C165.51 36.6095 166.175 36.4335 166.725 36.3533L178.058 34.6843C180.594 34.3091 182.494 37.6652 183.759 39.2903C184.785 40.6074 185.765 42.0719 185.765 43.7125Z" fill="#EF55FF"/>
<path d="M177.213 58.0589L176.367 61.5056C176.367 61.5056 179.23 63.3557 180.061 63.5757C180.893 63.7956 183.657 63.5757 183.657 63.5757C183.657 63.5757 184.091 62.5225 182.629 62.0516C181.711 61.7607 180.769 61.5425 179.811 61.3995C179.244 60.7954 178.948 60.0172 178.979 59.2207C178.979 59.2207 177.872 59.4044 177.213 58.0589ZM186.599 55.2539L185.754 58.698C185.754 58.698 188.617 60.5508 189.448 60.7681C190.279 60.9855 193.044 60.7681 193.044 60.7681C193.044 60.7681 193.478 59.715 192.015 59.244C191.098 58.9531 190.155 58.7341 189.197 58.5893C188.625 57.9884 188.323 57.2107 188.352 56.4132C188.352 56.4132 187.258 56.5995 186.599 55.2539Z" fill="#33233A"/>
<path d="M178.264 59.6206L177.303 58.7486C177.241 58.5228 177.212 58.2905 177.216 58.0577C177.244 54.0676 177.422 50.0809 177.751 46.0977C177.791 45.8629 177.766 45.6226 177.678 45.3991C177.527 45.1731 177.306 44.9932 177.044 44.8816C175.046 43.8103 172.879 43.0444 170.845 42.0352C168.81 41.026 166.854 39.7426 165.654 37.9312C165.456 37.6936 165.363 37.3959 165.395 37.098C165.51 36.596 166.175 36.4201 166.725 36.3398C166.725 36.3398 175.263 41.2304 178.532 43.2617C181.801 45.293 178.264 59.6206 178.264 59.6206Z" fill="#33233A"/>
<defs>
<linearGradient id="paint0_linear_403_2084" x1="183.931" y1="21.1309" x2="161.013" y2="46.2256" gradientUnits="userSpaceOnUse">
<stop stop-opacity="0"/>
<stop offset="1"/>
</linearGradient>
<linearGradient id="paint1_linear_403_2084" x1="12.9437" y1="-0.486061" x2="15.1274" y2="211.612" gradientUnits="userSpaceOnUse">
<stop stop-color="#EF55FF"/>
<stop offset="1"/>
</linearGradient>
<linearGradient id="paint2_linear_403_2084" x1="74.8536" y1="-1.12359" x2="77.0349" y2="210.977" gradientUnits="userSpaceOnUse">
<stop stop-color="#EF55FF"/>
<stop offset="1"/>
</linearGradient>
<linearGradient id="paint3_linear_403_2084" x1="125.102" y1="-1.64064" x2="127.286" y2="210.457" gradientUnits="userSpaceOnUse">
<stop stop-color="#EF55FF"/>
<stop offset="1"/>
</linearGradient>
<linearGradient id="paint4_linear_403_2084" x1="98.5085" y1="131.572" x2="101.037" y2="229.184" gradientUnits="userSpaceOnUse">
<stop stop-opacity="0"/>
<stop offset="1"/>
</linearGradient>
<linearGradient id="paint5_linear_403_2084" x1="171.25" y1="27.0036" x2="134.249" y2="36.9147" gradientUnits="userSpaceOnUse">
<stop stop-opacity="0"/>
<stop offset="1"/>
</linearGradient>
<linearGradient id="paint6_linear_403_2084" x1="173.253" y1="9.82555" x2="174.572" y2="14.0218" gradientUnits="userSpaceOnUse">
<stop stop-color="#EF55FF" stop-opacity="0.81"/>
<stop offset="0.42" stop-color="#D8A353"/>
<stop offset="1" stop-color="#F2E2C9"/>
</linearGradient>
<linearGradient id="paint7_linear_403_2084" x1="175.386" y1="5.33043" x2="176.515" y2="9.06472" gradientUnits="userSpaceOnUse">
<stop stop-color="#EF55FF" stop-opacity="0.85"/>
<stop offset="0.42" stop-color="#D8A353"/>
<stop offset="1" stop-color="#F2E2C9"/>
</linearGradient>
<linearGradient id="paint8_linear_403_2084" x1="183.598" y1="20.7625" x2="224.55" y2="39.3048" gradientUnits="userSpaceOnUse">
<stop stop-opacity="0"/>
<stop offset="1"/>
</linearGradient>
<linearGradient id="paint9_linear_403_2084" x1="190.163" y1="23.322" x2="193.516" y2="23.322" gradientUnits="userSpaceOnUse">
<stop stop-color="#AD59D4"/>
<stop offset="0.42" stop-color="#D8A353"/>
<stop offset="1" stop-color="#F2E2C9"/>
</linearGradient>
<linearGradient id="paint10_linear_403_2084" x1="172.373" y1="32.2727" x2="179.024" y2="32.2727" gradientUnits="userSpaceOnUse">
<stop stop-color="#AD59D4"/>
<stop offset="0.42" stop-color="#D8A353"/>
<stop offset="1" stop-color="#F2E2C9"/>
</linearGradient>
</defs>
</svg>
