<svg width="23" height="24" viewBox="0 0 23 24" fill="none" xmlns="http://www.w3.org/2000/svg">
<g id="Group 128">
<path id="Vector" d="M10.7089 0H12.2928C12.3091 0 12.3223 0.0132149 12.3223 0.0295162V2.43477C12.3223 2.45107 12.3091 2.46429 12.2928 2.46429H10.7089C10.6926 2.46429 10.6794 2.45107 10.6794 2.43477V0.0295162C10.6794 0.0132149 10.6926 0 10.7089 0Z" fill="#08E1FE"/>
<path id="Vector_2" d="M16.5022 1.08624L17.9667 1.93182C17.9862 1.94305 17.9929 1.96791 17.9816 1.98735L16.6916 4.22179C16.6803 4.24123 16.6555 4.2479 16.636 4.23667L15.1715 3.39109C15.152 3.37986 15.1453 3.355 15.1566 3.33556L16.4466 1.10112C16.4579 1.08168 16.4827 1.07502 16.5022 1.08624Z" fill="#08E1FE"/>
<path id="Vector_3" d="M4.96465 1.93901L6.44566 1.08394C6.46057 1.07534 6.47963 1.08044 6.48824 1.09535L7.7871 3.34504C7.79571 3.35995 7.7906 3.37901 7.77569 3.38762L6.29467 4.24268C6.27977 4.25129 6.26071 4.24618 6.2521 4.23128L4.95324 1.98158C4.94463 1.96668 4.94974 1.94762 4.96465 1.93901Z" fill="#08E1FE"/>
<path id="Vector_4" d="M18.6758 19.2868C18.6781 16.4015 18.6779 13.7572 18.6751 11.3539C18.6733 9.88383 18.2799 8.54889 17.495 7.34909C16.0141 5.08577 13.4326 3.87638 10.7435 4.14415C7.42598 4.47491 4.76429 7.14296 4.37847 10.4287C4.33918 10.7643 4.32022 11.2169 4.32159 11.7867C4.3257 14.2603 4.32616 16.7532 4.32296 19.2656C4.32296 19.2754 4.32101 19.285 4.31722 19.294C4.31344 19.303 4.30789 19.3112 4.30091 19.3179C4.29394 19.3247 4.28568 19.33 4.27663 19.3335C4.26759 19.337 4.25794 19.3386 4.24826 19.3382C3.97003 19.3282 3.70848 19.3434 3.4636 19.3841C2.43839 19.5539 1.67429 20.4798 1.64414 21.4995C1.61261 22.587 2.33012 23.5081 3.37588 23.7505C3.58193 23.798 3.81835 23.8217 4.08516 23.8217C8.74335 23.8158 13.6238 23.8158 18.7265 23.8217C19.1679 23.8222 19.5062 23.7897 19.7415 23.7245C20.6796 23.4635 21.3635 22.5685 21.3574 21.5851C21.3498 20.3442 20.3993 19.3889 19.1596 19.3416C19.0121 19.3361 18.8679 19.3348 18.7272 19.3375C18.6929 19.338 18.6758 19.3211 18.6758 19.2868ZM16.8118 19.3471L6.15544 19.3279C6.13963 19.3279 6.12447 19.3216 6.11329 19.3105C6.1021 19.2993 6.09582 19.2841 6.09582 19.2683L6.10953 11.3245C6.1121 9.8811 6.68197 8.49787 7.69379 7.47905C8.70562 6.46024 10.0765 5.88928 11.5049 5.8918H11.509C12.2163 5.89305 12.9164 6.03505 13.5693 6.3097C14.2223 6.58436 14.8153 6.98629 15.3145 7.49254C15.8137 7.99879 16.2094 8.59945 16.4789 9.26022C16.7484 9.921 16.8864 10.6289 16.8851 11.3436L16.8714 19.2875C16.8714 19.3033 16.8651 19.3185 16.854 19.3297C16.8428 19.3408 16.8276 19.3471 16.8118 19.3471ZM3.45538 21.5741C3.45538 21.4559 3.50238 21.3425 3.58604 21.2589C3.66971 21.1753 3.78318 21.1283 3.9015 21.1283H19.1233C19.2416 21.1283 19.3551 21.1753 19.4388 21.2589C19.5224 21.3425 19.5694 21.4559 19.5694 21.5741V21.5823C19.5694 21.7006 19.5224 21.814 19.4388 21.8976C19.3551 21.9812 19.2416 22.0282 19.1233 22.0282H3.9015C3.78318 22.0282 3.66971 21.9812 3.58604 21.8976C3.50238 21.814 3.45538 21.7006 3.45538 21.5823V21.5741Z" fill="#08E1FE"/>
<path id="Vector_5" d="M18.7413 6.27259L20.9746 4.98322C20.994 4.97199 21.0189 4.97865 21.0301 4.9981L21.8757 6.46269C21.8869 6.48213 21.8802 6.50699 21.8608 6.51822L19.6275 7.80759C19.6081 7.81882 19.5832 7.81216 19.572 7.79271L18.7264 6.32812C18.7152 6.30868 18.7219 6.28382 18.7413 6.27259Z" fill="#08E1FE"/>
<path id="Vector_6" d="M1.96043 4.98124L4.20074 6.27467C4.21824 6.28478 4.22423 6.30715 4.21413 6.32465L3.3638 7.79746C3.3537 7.81496 3.33132 7.82095 3.31383 7.81085L1.07352 6.51741C1.05602 6.50731 1.05003 6.48493 1.06013 6.46743L1.91045 4.99463C1.92056 4.97713 1.94293 4.97113 1.96043 4.98124Z" fill="#08E1FE"/>
<path id="Vector_7" d="M10.6976 7.39258H12.3041C12.3141 7.39258 12.3223 7.40276 12.3223 7.41533V15.5841C12.3223 15.5967 12.3141 15.6069 12.3041 15.6069H10.6976C10.6876 15.6069 10.6794 15.5967 10.6794 15.5841V7.41533C10.6794 7.40276 10.6876 7.39258 10.6976 7.39258Z" fill="#08E1FE"/>
<path id="Vector_8" d="M0.0275342 10.6787H2.43787C2.45277 10.6787 2.46484 10.6908 2.46484 10.7057V12.2946C2.46484 12.3095 2.45277 12.3216 2.43787 12.3216H0.0275342C0.0126355 12.3216 0.000558138 12.3095 0.000558138 12.2946V10.7057C0.000558138 10.6908 0.0126355 10.6787 0.0275342 10.6787Z" fill="#08E1FE"/>
<path id="Vector_9" d="M20.3711 10.6077L22.9688 10.6123C22.986 10.6123 23 10.6263 22.9999 10.6435L22.997 12.355C22.9969 12.3722 22.983 12.3861 22.9657 12.3861L20.368 12.3815C20.3508 12.3815 20.3369 12.3675 20.3369 12.3503L20.3399 10.6388C20.3399 10.6216 20.3539 10.6077 20.3711 10.6077Z" fill="#08E1FE"/>
<path id="Vector_10" d="M11.5008 17.2501C11.0472 17.2501 10.6794 17.0663 10.6794 16.8394C10.6794 16.6126 11.0472 16.4287 11.5008 16.4287C11.9545 16.4287 12.3223 16.6126 12.3223 16.8394C12.3223 17.0663 11.9545 17.2501 11.5008 17.2501Z" fill="#08E1FE"/>
</g>
</svg>
