<?xml version="1.0" encoding="UTF-8"?><svg id="Capa_2" xmlns="http://www.w3.org/2000/svg" xmlns:xlink="http://www.w3.org/1999/xlink" viewBox="0 0 611.51 125.4"><defs><style>.cls-1{fill:url(#Degradado_sin_nombre_7-5);}.cls-1,.cls-2,.cls-3,.cls-4,.cls-5,.cls-6,.cls-7,.cls-8,.cls-9{stroke-width:0px;}.cls-2{fill:url(#Degradado_sin_nombre_7-3);}.cls-3{fill:url(#Degradado_sin_nombre_7-2);}.cls-4{fill:#ef55ff;}.cls-5{fill:url(#Degradado_sin_nombre_7-4);}.cls-6{fill:url(#Degradado_sin_nombre_7-6);}.cls-7,.cls-10{fill:#fff;}.cls-8{fill:url(#Degradado_sin_nombre_7);}.cls-10{stroke:#fff;stroke-miterlimit:10;}.cls-9{fill:url(#Degradado_sin_nombre_6);}</style><linearGradient id="Degradado_sin_nombre_7" x1=".16" y1="95.63" x2="76.59" y2="95.63" gradientTransform="translate(0 124.38) scale(1 -1)" gradientUnits="userSpaceOnUse"><stop offset="0" stop-color="#ef55ff"/><stop offset=".09" stop-color="#e55afe"/><stop offset=".24" stop-color="#cd69fe"/><stop offset=".43" stop-color="#a482fe"/><stop offset=".66" stop-color="#6ca4fe"/><stop offset=".9" stop-color="#25cffe"/><stop offset="1" stop-color="#08e1fe"/></linearGradient><linearGradient id="Degradado_sin_nombre_7-2" x1="42.94" y1="73.77" x2="115.81" y2="73.77" xlink:href="#Degradado_sin_nombre_7"/><linearGradient id="Degradado_sin_nombre_7-3" x1="41.27" y1="27.7" x2="114.11" y2="27.7" xlink:href="#Degradado_sin_nombre_7"/><linearGradient id="Degradado_sin_nombre_7-4" x1=".01" y1="36.75" x2="30.25" y2="36.75" xlink:href="#Degradado_sin_nombre_7"/><linearGradient id="Degradado_sin_nombre_7-5" x1=".16" y1="95.64" x2="76.59" y2="95.64" xlink:href="#Degradado_sin_nombre_7"/><linearGradient id="Degradado_sin_nombre_6" x1="42.96" y1="73.79" x2="115.83" y2="73.79" gradientTransform="translate(0 124.38) scale(1 -1)" gradientUnits="userSpaceOnUse"><stop offset="0" stop-color="#ef55ff"/><stop offset=".07" stop-color="#e55afe"/><stop offset=".18" stop-color="#cd69fe"/><stop offset=".33" stop-color="#a482fe"/><stop offset=".5" stop-color="#6ca4fe"/><stop offset=".68" stop-color="#25cffe"/><stop offset=".76" stop-color="#08e1fe"/></linearGradient><linearGradient id="Degradado_sin_nombre_7-6" x1="41.26" y1="27.7" x2="114.1" y2="27.7" xlink:href="#Degradado_sin_nombre_7"/></defs><g id="Capa_1-2"><path class="cls-7" d="M161.07,51.45h-13.09V.54h13.09v50.91Z"/><path class="cls-7" d="M242.52.54v50.91h-17.82l-34.69-38.18v38.18h-13.09V.54h17.74l34.76,38.25V.54h13.1Z"/><path class="cls-7" d="M271.47,11.53v12.94h36.36v11.05h-36.36v15.93h-13.09V.54h53.82v10.98h-40.73Z"/><path class="cls-7" d="M339.61,51.45h-13.09V.54h13.09v50.91Z"/><path class="cls-7" d="M421.06.54v50.91h-17.82l-34.69-38.18v38.18h-13.09V.54h17.75l34.76,38.25V.54h13.09Z"/><path class="cls-7" d="M450,51.45h-13.09V.54h13.09v50.91Z"/><path class="cls-7" d="M526.87,11.53h-24.73v39.92h-13.09V11.53h-24.73V.55h62.54v10.98h.01Z"/><path class="cls-7" d="M539.6.54h15.78l19.56,23.2,19.56-23.2h15.78l-28.8,34.18v16.73h-13.09v-16.73L539.59.54h0Z"/><path class="cls-10" d="M209.65,98.72c0,17.31-11.56,25.45-24.73,25.45h-36.94v-50.91h36.94c13.16,0,24.73,8.14,24.73,25.45h0ZM196.56,98.72c0-12.36-6.69-14.47-16.58-14.47h-18.91v28.94h18.91c9.89,0,16.58-2.11,16.58-14.47h0Z"/><path class="cls-10" d="M246.82,124.17h-13.09v-50.91h13.09v50.91Z"/><path class="cls-10" d="M302.01,96.9h32.29v27.27h-9.67l-.58-8c-4.8,5.24-12.44,8.73-23.27,8.73-18.76,0-30.25-9.31-30.25-26.18s11.49-26.18,32.44-26.18,30.54,7.93,31.34,20.58h-13.31c-.73-3.85-4.22-9.6-18.04-9.6-17.02,0-19.34,9.38-19.34,15.49s2.4,15.78,19.34,15.78c12.65,0,17.74-5.53,18.04-9.38h-18.98v-8.51h-.01Z"/><path class="cls-10" d="M371.83,124.17h-13.09v-50.91h13.09v50.91Z"/><path class="cls-10" d="M458,84.25h-24.73v39.92h-13.09v-39.92h-24.73v-10.98h62.54v10.98h.01Z"/><path class="cls-10" d="M516.26,113.34h-30.47l-5.45,10.84h-14.4l26.25-50.91h17.67l26.33,50.91h-14.47l-5.45-10.84h-.01ZM511.39,103.59l-10.33-20.65-10.4,20.65h20.73Z"/><path class="cls-10" d="M611.01,113.19v10.98h-52.36v-50.91h13.09v39.92h39.27,0Z"/><path class="cls-8" d="M45.05,13.11c-1.74,9.76-11.54,16.47-21.37,14.15-1.91-.45-3.77-1.25-5.72-1.44-4.89-.48-9.09.87-12.59,4.06-5.93,5.41-6.95,14.22-2.3,20.86,5.28,7.54,15.96,9.01,23.09,3.1,3.28-2.73,4.94-5.94,5.71-9.96,1.92-9.99,12.83-16.56,22.73-13.25,5.55,1.85,10.49,1.36,14.81-1.48,10.25-6.74,9.38-22.03-1.67-27.51-5.91-2.93-13-1.83-17.87,2.6-2.47,2.24-4.22,5.49-4.82,8.88" vector-effect="non-scaling-stroke"/><path class="cls-3" d="M73.13,65.05c.39-2.21,1.47-4.66,2.75-6.33,4.2-5.46,9.68-7.79,16.45-6.99,2.48.29,4.65,1.53,7.17,1.68,4.9.29,9.01-1.34,12.33-4.91,2.87-3.08,4.19-6.8,3.95-11.17-.54-10.02-11-16.73-20.31-13.19-4.25,1.62-7.25,4.59-9,8.91-.02.04-.34,1.32-.98,3.84-1.25,4.92-4.24,8.59-8.97,11-2.93,1.5-6.05,2.06-9.36,1.71-2.62-.29-4.96-1.52-7.6-1.76-6.84-.61-12.8,3.08-15.49,9.3-1.01,2.33-1.34,4.94-.99,7.83,1.15,9.48,11.56,15.64,20.51,11.98,5.14-2.1,8.56-6.36,9.52-11.88" vector-effect="non-scaling-stroke"/><path class="cls-2" d="M82.56,86.4c-3.51,6.6-9.96,10.04-17.39,9.22-2.59-.29-4.87-1.54-7.49-1.72-4.78-.33-8.86,1.23-12.22,4.67-5.05,5.16-5.63,13.52-1.25,19.31,3.55,4.7,8.94,6.94,14.79,5.98,5.31-.87,10-4.81,11.74-10.01.6-1.79.8-3.75,1.53-5.49,3.29-7.89,11.74-12.43,20.19-10.14,1.52.41,2.95,1.02,4.5,1.2,10.24,1.21,18.6-7.37,16.94-17.61-1.44-8.85-11.06-14.85-19.75-11.69-5.09,1.85-8.76,5.8-9.91,11.1-.4,1.82-.8,3.55-1.67,5.18" vector-effect="non-scaling-stroke"/><path class="cls-5" d="M30.25,87.62c0-8.35-6.77-15.12-15.12-15.12h0C6.78,72.5.01,79.27.01,87.62s6.77,15.12,15.12,15.12,15.12-6.77,15.12-15.12h0" vector-effect="non-scaling-stroke"/><path class="cls-1" d="M23.68,27.26c9.83,2.32,19.63-4.38,21.37-14.15.6-3.38,2.36-6.64,4.82-8.88C54.74-.2,61.83-1.3,67.74,1.63c11.05,5.48,11.92,20.78,1.67,27.51-4.32,2.84-9.26,3.33-14.81,1.48-9.9-3.31-20.81,3.26-22.73,13.25-.77,4.02-2.43,7.23-5.71,9.96-7.12,5.91-17.81,4.45-23.09-3.1-4.65-6.64-3.63-15.45,2.3-20.86,3.5-3.19,7.7-4.55,12.59-4.06,1.94.19,3.8.99,5.72,1.44h0Z"/><path class="cls-9" d="M75.88,58.72c-1.28,1.68-2.36,4.12-2.75,6.33-.96,5.52-4.39,9.78-9.52,11.88-8.95,3.66-19.36-2.5-20.51-11.98-.35-2.89-.02-5.5.99-7.83,2.69-6.22,8.65-9.9,15.49-9.3,2.64.24,4.97,1.47,7.6,1.76,3.3.36,6.42-.21,9.36-1.71,4.73-2.41,7.72-6.08,8.97-11,.64-2.52.96-3.8.98-3.84,1.75-4.32,4.75-7.29,9-8.91,9.3-3.53,19.77,3.17,20.31,13.19.23,4.36-1.08,8.09-3.95,11.17-3.32,3.57-7.43,5.21-12.33,4.91-2.52-.15-4.7-1.38-7.17-1.68-6.77-.8-12.25,1.53-16.45,6.99l-.02.02Z"/><path class="cls-6" d="M82.56,86.4c.87-1.63,1.28-3.36,1.67-5.18,1.15-5.29,4.82-9.24,9.91-11.1,8.69-3.16,18.32,2.84,19.75,11.69,1.66,10.24-6.71,18.83-16.94,17.61-1.55-.18-2.99-.79-4.5-1.2-8.45-2.3-16.9,2.24-20.19,10.14-.73,1.75-.93,3.71-1.53,5.49-1.74,5.2-6.43,9.14-11.74,10.01-5.85.96-11.24-1.29-14.79-5.98-4.38-5.79-3.8-14.15,1.25-19.31,3.36-3.44,7.44-5,12.22-4.67,2.62.18,4.9,1.43,7.49,1.72,7.43.82,13.88-2.63,17.39-9.22h.01Z"/><circle class="cls-4" cx="15.12" cy="87.62" r="15.12"/></g></svg>