<svg width="25" height="25" viewBox="0 0 25 25" fill="none" xmlns="http://www.w3.org/2000/svg">
<g id="Pasted-20240121-025500 1" clip-path="url(#clip0_797_67)">
<path id="Vector" d="M18.0432 12.4414C12.4054 12.4486 6.71264 12.4491 0.964812 12.443C0.843476 12.4424 0.717789 12.4093 0.58775 12.3434C-0.0788286 12.0039 -0.207844 11.1412 0.352758 10.6242C1.94394 9.15595 3.68565 7.5522 5.57787 5.81288C5.58172 5.80946 5.58416 5.80472 5.58473 5.79959C5.5853 5.79446 5.58395 5.78929 5.58094 5.7851C4.63125 4.49592 3.66363 3.19543 2.6781 1.88361C2.50711 1.65572 2.40011 1.46872 2.3571 1.32262C2.16435 0.661309 2.67503 0 3.36311 0C16.792 0 23.6464 0.000771562 23.9264 0.00231487C24.6959 0.00617315 25.215 0.732301 24.9125 1.45843C21.6083 9.38745 18.4305 17.0114 15.3792 24.3303C14.8309 25.646 12.921 24.835 13.4701 23.5178C15.0269 19.7824 16.5605 16.1042 18.0708 12.4831C18.0727 12.4785 18.0735 12.4735 18.073 12.4686C18.0725 12.4637 18.0708 12.4589 18.0681 12.4548C18.0654 12.4507 18.0617 12.4473 18.0573 12.445C18.053 12.4426 18.0481 12.4414 18.0432 12.4414ZM22.389 2.12051C22.3906 2.11655 22.3913 2.11225 22.3909 2.10798C22.3905 2.10371 22.389 2.09961 22.3867 2.09603C22.3843 2.09245 22.3811 2.08951 22.3774 2.08745C22.3737 2.0854 22.3695 2.08429 22.3652 2.08424H5.46882C5.46434 2.08417 5.45992 2.08537 5.45608 2.08771C5.45225 2.09005 5.44915 2.09343 5.44714 2.09746C5.44513 2.1015 5.4443 2.10602 5.44474 2.1105C5.44518 2.11499 5.44687 2.11926 5.44962 2.12283C6.2232 3.16302 6.98987 4.19266 7.74963 5.21176C8.03172 5.58987 8.09981 5.95152 7.9539 6.29671C7.87711 6.47985 7.67053 6.72395 7.33417 7.02901C6.0988 8.151 4.90259 9.25035 3.74555 10.3271C3.72149 10.3497 3.72584 10.361 3.7586 10.361H18.9302C18.946 10.361 18.9568 10.3538 18.9624 10.3394L22.389 2.12051Z" fill="#08E1FE"/>
</g>
<defs>
<clipPath id="clip0_797_67">
<rect width="25" height="25" fill="white"/>
</clipPath>
</defs>
</svg>
