<svg width="578" height="418" viewBox="0 0 578 418" fill="none" xmlns="http://www.w3.org/2000/svg">
<g clip-path="url(#clip0_694_1246)">
<path opacity="0.18" d="M312.491 50.6193C259.99 59.0348 206.549 59.105 153.627 64.1964C126.271 66.8332 -27.194 144.67 4.25643 310.197C15.7918 371.174 76.9044 420.602 138.894 417.895C191.563 415.594 197.363 380.887 291.223 378.917C362.496 377.423 417.445 428.281 500.009 398.925C536.599 385.916 565.749 353.088 575.09 315.4C584.43 277.713 570.854 234.176 538.997 211.945C522.469 200.381 501.355 194.111 489.581 177.701C466.504 145.54 513.241 95.7967 492.449 62.1205C451.104 -4.8742 356.557 43.5783 312.491 50.6193Z" fill="#68E1FD"/>
<path opacity="0.05" d="M102.373 314.454C102.373 314.454 46.9267 328.249 94.9403 348.116C142.954 367.984 365.869 389.914 447.465 344.968C447.465 344.968 503.431 343.411 504.966 335.563C506.502 327.716 498.319 321.369 498.319 321.369L469.94 320.408C469.94 320.408 464.716 331.72 438.566 311.172C412.417 290.624 102.373 314.454 102.373 314.454Z" fill="#000405"/>
<path d="M499.412 326.256C497.765 328.338 495.699 330.05 493.346 331.279C490.993 332.508 488.408 333.227 485.759 333.388C478.326 333.388 481.916 326.431 484.391 326.431C485.084 326.447 485.776 326.381 486.453 326.235L489.51 323.57L492.533 320.87L493.325 319.159C493.325 319.159 497.532 320.127 498.283 319.012L498.83 323.738V324.657C499.155 325.132 499.356 325.683 499.412 326.256Z" fill="#3F3D56"/>
<path d="M440.467 314.573C440.467 338.782 365.042 358.397 272.009 358.397C178.976 358.397 103.537 338.761 103.537 314.573C103.601 311.678 104.583 308.878 106.342 306.578C120.773 286.192 189.452 270.742 272.009 270.742C354.565 270.742 423.23 286.171 437.662 306.578C439.421 308.878 440.403 311.678 440.467 314.573Z" fill="#68E1FD"/>
<path opacity="0.05" d="M436.498 306.578C422.046 326.965 353.381 342.401 270.845 342.401C188.31 342.401 119.638 326.972 105.186 306.578C119.61 286.192 188.289 270.742 270.845 270.742C353.402 270.742 422.067 286.192 436.498 306.578Z" fill="#000405"/>
<path opacity="0.05" d="M271.307 326.263C347.28 326.263 408.869 315.032 408.869 301.178C408.869 287.324 347.28 276.093 271.307 276.093C195.334 276.093 133.746 287.324 133.746 301.178C133.746 315.032 195.334 326.263 271.307 326.263Z" fill="#000405"/>
<path d="M390.208 298.576C390.208 298.576 399.85 319.671 275.844 320.506C274.533 320.506 273.235 320.506 271.952 320.506C270.844 320.506 269.75 320.506 268.663 320.506C235.607 320.506 211.695 318.767 194.395 316.298H194.346C150.042 309.937 149.243 298.633 149.243 298.633L69.2109 1.55688L197.628 1.04493L465.381 0L390.208 298.576Z" fill="url(#paint0_linear_694_1246)"/>
<path d="M481.173 325.885C481.173 326.586 473.74 330.836 466.447 330.836C459.154 330.836 462.604 323.823 465.086 323.879H467.562L468.964 323.178L474.294 320.457L475.086 318.746C475.086 318.746 479.293 319.714 480.044 318.599L480.591 323.403V324.272C480.92 324.751 481.12 325.306 481.173 325.885Z" fill="#3F3D56"/>
<path d="M480.655 324.272C480.92 324.776 481.055 325.337 481.048 325.906C481.048 326.608 473.615 330.857 466.322 330.857C459.029 330.857 462.479 323.844 464.961 323.901H467.437L468.839 323.199L480.543 323.396L480.655 324.272Z" fill="#3F3D56"/>
<path d="M470.416 328.164C468.627 328.627 466.749 328.627 464.96 328.164C463.326 327.273 462.808 326.6 462.857 325.913C462.906 325.225 463.901 323.234 467.814 324.173C471.727 325.113 472.45 327.224 472.45 327.224L470.416 328.164ZM499.412 326.256C497.766 328.339 495.699 330.05 493.346 331.279C490.994 332.508 488.408 333.227 485.759 333.388C478.326 333.388 481.916 326.432 484.392 326.432C485.084 326.447 485.776 326.381 486.453 326.235L489.511 323.57L498.9 323.739V324.657C499.203 325.139 499.379 325.689 499.412 326.256Z" fill="#3F3D56"/>
<path d="M489.896 330.366C488.109 330.829 486.234 330.829 484.448 330.366C482.807 329.476 482.288 328.81 482.344 328.115C482.4 327.421 483.382 325.436 487.302 326.383C491.221 327.33 492.035 329.328 492.035 329.328L489.896 330.366Z" fill="#3F3D56"/>
<path d="M465.957 245.138L473.383 318.578C473.383 318.578 478.341 320.366 480.55 318.578L483.621 260.735L492.316 319.076C492.316 319.076 496.377 321.698 498.88 318.732L502.057 244.738C502.057 244.738 476.188 250.089 465.957 245.138Z" fill="#68E1FD"/>
<path d="M465.957 244.506L473.383 317.96C473.383 317.96 478.341 319.741 480.55 317.96L483.621 260.117L492.316 318.444C492.316 318.444 496.377 321.067 498.88 318.093L502.057 244.106C502.057 244.106 476.188 249.457 465.957 244.506Z" fill="url(#paint1_linear_694_1246)"/>
<path d="M491.98 175.653C492.948 176.412 493.986 177.076 495.079 177.638C497.681 179.135 500.512 180.19 503.459 180.759C507.351 181.18 508.985 188.473 509.504 191.902C510.023 195.332 513.592 212.38 513.592 212.38C513.717 214.057 513.229 215.722 512.217 217.065C511.206 218.409 509.74 219.338 508.094 219.681C501.783 221.735 501.944 222.752 501.944 222.752L502.071 244.64C502.071 244.64 473.636 251.547 465.957 245.039L467.072 215.424L471.314 183.234L483.362 177.624L491.98 175.653Z" fill="#EF55FF"/>
<path d="M492.028 175.016C491.605 175.925 491.002 176.74 490.256 177.41C489.51 178.08 488.636 178.593 487.687 178.917C486.737 179.24 485.732 179.368 484.732 179.293C483.732 179.218 482.757 178.942 481.867 178.48C481.867 178.48 475.717 189.154 484.518 187.891C489.181 187.19 492.231 179.819 492.933 176.327L492.028 175.016Z" fill="#3F3D56"/>
<path opacity="0.05" d="M494.035 211.785C496.327 211.247 498.586 210.578 500.801 209.779C501.573 209.26 499.687 195.29 499.687 195.29C499.687 195.29 498.985 206.511 484.617 211.883C477.605 214.506 489.427 218.096 489.427 218.096L494.035 211.785Z" fill="#000405"/>
<path opacity="0.05" d="M492.646 220.971C492.646 220.971 500.408 223.839 501.944 222.829V239.913C501.944 239.913 482.113 227.058 482.113 225.052C482.113 223.047 466.945 222.584 466.945 222.584V217.906L489.974 215.185C489.974 215.185 494.953 210.865 492.646 220.971Z" fill="#000405"/>
<path d="M493.963 211.539C493.963 211.539 493.963 218.552 492.897 220.551C491.831 222.549 491.158 215.6 491.158 215.6L493.963 211.539Z" fill="#033B4B"/>
<path d="M492.478 166.48C492.478 166.48 492.394 168.058 492.282 170.127C492.183 171.859 492.064 173.935 491.98 175.667C491.822 178.609 490.554 181.381 488.432 183.424C487.202 184.689 485.727 185.691 484.098 186.369C483.705 186.508 483.281 186.538 482.873 186.455C482.464 186.371 482.086 186.179 481.778 185.897C481.47 185.615 481.245 185.255 481.126 184.856C481.008 184.456 481 184.031 481.104 183.627C481.546 182.312 481.815 180.944 481.903 179.56C481.946 179.042 481.958 178.522 481.938 178.003C481.915 177.043 481.8 176.087 481.595 175.148C480.262 171.796 491.075 167.084 492.359 166.53L492.478 166.48Z" fill="url(#paint2_linear_694_1246)"/>
<path d="M492.358 166.516C491.783 168.08 491.657 171.186 489.294 174.23C488.221 175.632 485.332 178.795 481.903 179.553C481.946 179.035 481.957 178.515 481.938 177.996C481.914 177.036 481.799 176.08 481.594 175.142C480.262 171.782 491.075 167.07 492.358 166.516Z" fill="url(#paint3_linear_694_1246)"/>
<path d="M481.798 145.568C480.183 145.649 478.603 146.062 477.156 146.783C475.709 147.503 474.426 148.514 473.388 149.753C472.35 150.992 471.578 152.432 471.123 153.983C470.667 155.534 470.536 157.163 470.739 158.766C471.105 163.536 472.331 168.2 474.358 172.533C478.2 179.069 487.892 173.697 489.427 170.997C490.963 168.297 496.86 156.144 494.385 152.7C492.772 150.428 488.109 145.323 481.798 145.568Z" fill="url(#paint4_linear_694_1246)"/>
<path d="M471.532 141.016L473.467 142.033C472.301 142.001 471.144 142.245 470.089 142.743C469.034 143.241 468.111 143.98 467.395 144.901C465.586 146.721 464.555 149.173 464.52 151.739L467.914 150.126C467.914 150.126 467.668 154.285 474.063 154.607C480.459 154.93 487.247 155.175 487.247 155.175L485.066 152.181C485.066 152.181 489.105 153.794 489.75 155.252C490.374 157.6 490.822 159.991 491.089 162.406C491.089 162.406 492.702 158.324 493.319 159.215C493.936 160.105 492.618 163.822 491.784 164.664C490.949 165.505 491.082 167.932 491.012 168.128C490.942 168.325 494.981 164.986 495.178 163.843C495.374 162.7 499.385 151.045 496.79 148.618L498.403 148.492C497.457 147.859 496.381 147.444 495.255 147.279C495.255 147.279 484.715 133.519 471.532 141.016Z" fill="#3F3D56"/>
<path d="M471.335 183.41C471.335 183.41 466.378 185.584 465.726 195.332C465.191 201.615 464.03 207.829 462.261 213.881C458.512 214.26 454.747 214.449 450.979 214.449L456.483 218.657C458.544 220.237 460.945 221.312 463.496 221.799L467.289 222.641L471.335 183.41Z" fill="#EF55FF"/>
<path d="M489.721 216.882C489.728 216.973 489.728 217.065 489.721 217.156C489.655 217.659 489.402 218.12 489.013 218.446C488.623 218.772 488.125 218.94 487.618 218.916L450.452 216.812C450.128 216.8 449.812 216.706 449.534 216.538C449.293 216.437 449.075 216.288 448.892 216.102C448.709 215.915 448.565 215.694 448.468 215.451L440.355 192.344C440.245 192.036 440.212 191.705 440.259 191.382C440.305 191.058 440.429 190.75 440.621 190.485C440.815 190.22 441.07 190.005 441.364 189.859C441.658 189.713 441.983 189.639 442.311 189.644L468.109 190.093C468.545 190.103 468.966 190.252 469.309 190.52C469.653 190.788 469.901 191.159 470.017 191.579L475.669 211.882C475.775 212.26 475.988 212.599 476.283 212.858C476.578 213.117 476.942 213.285 477.331 213.341L487.891 214.904C488.386 214.952 488.845 215.18 489.183 215.545C489.52 215.91 489.712 216.385 489.721 216.882Z" fill="url(#paint5_linear_694_1246)"/>
<path d="M493.669 215.718C493.07 215.928 492.417 215.928 491.818 215.718C491.205 215.591 490.611 215.386 490.051 215.108C489.034 214.554 486.818 212.52 484.743 213.102C482.907 213.544 481.005 213.644 479.133 213.397C478.368 213.221 478.368 213.018 477.625 213.102C476.882 213.186 476.889 212.205 476.889 212.205C479.131 210.757 481.552 209.607 484.09 208.782C486.64 208.849 489.158 209.361 491.53 210.297L493.143 211.223L493.241 211.272L494.111 211.777C494.111 211.777 494.209 215.332 493.669 215.718Z" fill="url(#paint6_linear_694_1246)"/>
<path d="M486.132 208.839L482.71 206.98C482.71 206.98 482.142 207.899 482.485 208.383C482.668 208.622 482.877 208.838 483.11 209.028C484.093 208.755 485.122 208.691 486.132 208.839Z" fill="url(#paint7_linear_694_1246)"/>
<path d="M459.953 217.353C461.235 219.063 463.051 220.298 465.114 220.859C468.831 222.044 475.5 219.618 475.5 219.618C475.5 219.618 477.68 218.629 477.281 218.404C476.881 218.18 466.18 217.759 466.18 217.759L459.953 217.353Z" fill="url(#paint8_linear_694_1246)"/>
<path d="M467.562 323.879C467.562 323.879 470.045 325.141 470.192 327.098L470.388 328.164C470.388 328.164 479.694 326.376 480.753 324.272L480.304 321.004C479.775 321.591 479.108 322.038 478.365 322.306C477.621 322.574 476.823 322.654 476.04 322.539C473.839 321.873 474.259 320.436 474.259 320.436L467.562 323.879ZM487.267 326.677L486.454 326.256L492.526 320.835C492.526 320.835 493.838 324.005 498.452 321.452L498.992 324.622C496.343 327.419 492.987 329.448 489.28 330.492C489.254 329.746 489.059 329.015 488.711 328.354C488.362 327.693 487.869 327.12 487.267 326.677Z" fill="#68E1FD"/>
<path opacity="0.61" d="M467.562 323.879C467.562 323.879 470.045 325.141 470.192 327.098L470.388 328.164C470.388 328.164 479.694 326.376 480.753 324.272L480.304 321.004C479.775 321.591 479.108 322.038 478.365 322.306C477.621 322.574 476.823 322.654 476.04 322.539C473.839 321.873 474.259 320.436 474.259 320.436L467.562 323.879Z" fill="url(#paint9_linear_694_1246)"/>
<path opacity="0.61" d="M487.267 326.678L486.453 326.257L492.526 320.836C492.526 320.836 493.837 324.006 498.451 321.453L498.991 324.623C496.343 327.42 492.987 329.448 489.279 330.493C489.253 329.746 489.059 329.015 488.71 328.355C488.362 327.694 487.868 327.121 487.267 326.678Z" fill="url(#paint10_linear_694_1246)"/>
<path d="M476.517 217.906L462.493 217.163L449.359 216.461C448.939 216.232 448.613 215.862 448.44 215.416L447.648 213.116L444.766 204.869L440.383 192.344C440.446 192.092 440.556 191.854 440.705 191.643L453.622 191.811L467.275 191.993C467.627 192.031 467.957 192.185 468.211 192.432C468.465 192.678 468.629 193.003 468.678 193.354C468.874 194.644 474.288 215.29 474.288 215.29C474.448 215.861 474.731 216.391 475.116 216.843C475.501 217.294 475.979 217.657 476.517 217.906Z" fill="url(#paint11_linear_694_1246)"/>
<path d="M476.461 213.741C476.461 213.741 478.221 217.577 476.461 217.9L487.765 218.37C487.765 218.37 489.006 218.075 488.88 217.157C488.695 216.451 488.307 215.814 487.765 215.326L476.987 213.867L476.461 213.741Z" fill="url(#paint12_linear_694_1246)"/>
<path d="M476.419 217.128C476.685 217.065 476.797 216.553 476.671 215.978C476.545 215.403 476.215 214.989 475.97 215.052C475.725 215.115 475.591 215.627 475.725 216.202C475.858 216.777 476.187 217.191 476.419 217.128Z" fill="#C7FDFB"/>
<path d="M473.888 217.675L462.486 217.205L449.352 216.504C448.926 216.272 448.599 215.893 448.433 215.438L447.641 213.138L472.002 213.706C472.316 215.156 472.962 216.515 473.888 217.675Z" fill="url(#paint13_linear_694_1246)"/>
<path d="M479.693 248.729C479.693 248.729 480.914 258.631 483.613 260.686L482.772 249.051L479.693 248.729Z" fill="#3F3D56"/>
<path d="M497.211 245.677L498.375 318.977L502.063 244.646L497.211 245.677Z" fill="#3F3D56"/>
<path d="M349.77 40.5352H194.383C187.342 40.5352 181.635 46.2433 181.635 53.2847V251.359C181.635 258.4 187.342 264.108 194.383 264.108H349.77C356.811 264.108 362.518 258.4 362.518 251.359V53.2847C362.518 46.2433 356.811 40.5352 349.77 40.5352Z" fill="#68E1FD"/>
<path d="M346.936 55.416H197.377V240.432H346.936V55.416Z" fill="white"/>
<path d="M220.51 151.929H328.956" stroke="#C7FDFB" stroke-width="1.68" stroke-miterlimit="10"/>
<path d="M220.51 137.818H328.956" stroke="#C7FDFB" stroke-width="1.68" stroke-miterlimit="10"/>
<path d="M220.51 123.708H328.956" stroke="#C7FDFB" stroke-width="1.68" stroke-miterlimit="10"/>
<path d="M220.51 109.592H328.956" stroke="#C7FDFB" stroke-width="1.68" stroke-miterlimit="10"/>
<path d="M220.51 95.4814H328.956" stroke="#C7FDFB" stroke-width="1.68" stroke-miterlimit="10"/>
<path d="M123.2 293.016L122.857 293.275C122.583 293.478 122.282 293.724 121.952 293.976C120.989 294.773 120.077 295.63 119.224 296.543C116.721 299.222 115.206 301.915 115.192 304.482C115.187 305.652 115.521 306.8 116.153 307.785L116.216 307.266L112.149 311.179L111.826 311.488L112.163 311.782L122.064 320.696L122.261 320.871L122.506 320.766L134.28 315.815H133.985L134.189 315.906L134.778 316.151L136.881 317.035C139.104 317.947 141.397 318.858 143.648 319.707C144.434 320.008 145.212 320.296 145.962 320.57C150.471 322.211 153.956 323.27 156.032 323.543L155.688 323.01L150.457 339.476L150.338 339.862L150.717 339.995L159.742 343.137L159.461 342.758L159.587 347.464H160.415L160.289 342.758V342.471L160.022 342.38L150.997 339.238L151.257 339.75L156.481 323.284L156.635 322.814L156.144 322.751C154.153 322.484 150.71 321.439 146.25 319.812L143.943 318.957C141.706 318.108 139.413 317.196 137.197 316.292L135.093 315.408L134.511 315.163L134.308 315.078L134.146 315.008L133.985 315.078L122.211 320.03L122.646 320.1L112.731 311.214V311.817L116.791 307.904L117.036 307.673L116.854 307.385C116.306 306.535 116.019 305.543 116.027 304.531C116.027 302.224 117.429 299.692 119.834 297.153C120.665 296.265 121.551 295.429 122.485 294.65C122.808 294.383 123.102 294.152 123.361 293.948L123.691 293.703L123.2 293.016ZM163.332 330.851L163.851 330.935L165.351 331.166C166.971 331.426 168.802 331.706 170.814 332.015C176.55 332.884 182.539 333.754 188.478 334.567C191.493 334.979 194.413 335.365 197.237 335.725C210.714 337.436 220.903 338.375 226.506 338.284H226.78L226.885 338.032L229.69 331.25L229.283 331.503H229.5L230.146 331.545L232.509 331.699C235.005 331.853 237.656 332.015 240.342 332.162C242.536 332.281 244.654 332.386 246.653 332.478C252.929 332.765 257.837 332.891 260.846 332.8L260.418 332.421L261.736 352.002V352.394H262.599H263.917L268.643 352.331C273.552 352.254 278.419 352.142 282.984 351.995C294.407 351.623 301.812 351.083 303.607 350.297L303.873 350.178V349.891L303.354 342.043L303.172 342.415L317.029 333.298L316.825 333.368H317.211L318.298 333.284L322.162 332.989C326.166 332.66 330.163 332.288 333.9 331.888C341.859 331.019 347.504 330.114 349.888 329.181L349.341 328.894L351.368 336.854L351.424 337.085L351.656 337.155L374.677 343.691H374.88L394.235 339.483L393.891 339.399L398.098 342.794L398.617 342.155L394.41 338.761L394.256 338.635L394.066 338.677L374.705 342.885H374.909L351.88 336.342L352.167 336.643L350.162 328.62L350.043 328.165L349.608 328.333C347.322 329.231 341.705 330.135 333.83 330.984C330.107 331.391 326.117 331.762 322.113 332.085C320.71 332.204 319.42 332.302 318.256 332.386L317.176 332.463H316.79L316.594 332.534L302.737 341.65L302.534 341.777V342.022L303.053 349.87L303.298 349.463C301.658 350.164 294.182 350.725 282.963 351.09C278.405 351.244 273.524 351.349 268.636 351.427L263.917 351.49H262.599H262.129L262.543 351.875L261.231 332.288V331.888H260.832C257.851 331.973 252.964 331.846 246.702 331.566C244.682 331.475 242.564 331.362 240.391 331.243C237.705 331.096 235.054 330.942 232.558 330.787L230.202 330.633L229.557 330.591H229.339H229.038L228.925 330.865L226.12 337.653L226.492 337.394C220.945 337.485 210.777 336.545 197.342 334.841C194.537 334.483 191.599 334.098 188.59 333.684C182.658 332.877 176.669 332.001 170.933 331.131C168.928 330.829 167.098 330.542 165.478 330.289L163.984 330.051L163.458 329.974L163.332 330.851Z" fill="white"/>
<path d="M246.359 357.731L238.084 346.714L237.944 346.525H237.706C234.725 346.868 224.733 346.23 210.021 344.883L203.843 344.301C198.577 343.796 193.226 343.256 188.065 342.716L183.156 342.19L181.803 342.043L181.326 341.994H181.165L181.039 342.085L171.782 348.818L172.266 349.484L181.509 342.801L181.221 342.878L181.698 342.927L183.051 343.074L187.96 343.6C193.121 344.14 198.478 344.68 203.738 345.192L209.923 345.767C224.733 347.121 234.718 347.766 237.783 347.408L237.404 347.247L245.679 358.236L246.359 357.731ZM424.297 332.555L424.472 324.013L424.255 324.371L424.704 324.111C425.061 323.901 425.454 323.655 425.875 323.368C427.133 322.529 428.322 321.591 429.43 320.563C432.319 317.87 434.206 314.882 434.577 311.656L434.199 312.021L438.736 311.677L438.672 310.85L434.135 311.2H433.799L433.757 311.537C433.406 314.538 431.653 317.365 428.848 319.952C427.775 320.946 426.624 321.851 425.405 322.659C424.991 322.933 424.613 323.178 424.269 323.361C424.066 323.487 423.925 323.564 423.848 323.606L423.638 323.718V323.964L423.463 332.506L424.297 332.555ZM135.472 287.945C135.388 287.994 135.241 288.086 135.038 288.226C134.694 288.45 134.336 288.717 133.895 289.018C132.682 289.928 131.54 290.929 130.48 292.013C126.37 296.164 124.428 300.737 125.901 305.506L126.686 305.267C125.326 300.849 127.149 296.55 131.069 292.595C132.107 291.548 133.225 290.584 134.414 289.713C134.813 289.418 135.185 289.159 135.515 288.941C135.711 288.808 135.851 288.724 135.928 288.682L135.472 287.945ZM107.086 303.044C106.831 303.446 106.624 303.877 106.469 304.328C105.623 306.736 105.653 309.366 106.554 311.754C107.879 315.639 111.09 319.658 116.581 323.718C121.608 327.024 126.93 329.857 132.478 332.183L132.247 331.931L135.094 340.795L135.879 340.542L133.032 331.678L132.969 331.496L132.794 331.426C127.299 329.11 122.029 326.293 117.051 323.01C111.708 319.055 108.636 315.177 107.339 311.46C106.497 309.252 106.462 306.818 107.241 304.587C107.344 304.3 107.469 304.021 107.612 303.752C107.659 303.661 107.71 303.572 107.767 303.486L107.086 303.044ZM423.904 297.28C423.904 297.315 423.982 297.371 424.052 297.469C424.122 297.567 424.311 297.806 424.458 298.009C424.914 298.647 425.331 299.312 425.707 300.001C427.348 303.037 428 306.123 427.109 308.984C426.015 312.526 422.621 315.45 416.394 317.519C407.706 320.415 399.957 322.863 393.253 324.876C390.916 325.577 388.875 326.178 387.132 326.678L385.561 327.12L385.028 327.267L385.428 327.372L379.53 321.607L379.39 321.467H379.194L365.933 323.031L366.263 323.136L362.056 319.293L361.502 319.903L365.709 323.739L365.849 323.873H366.039L379.299 322.316L378.962 322.204L384.86 327.968L385.028 328.137L385.259 328.073L385.792 327.926L387.37 327.477C389.109 326.979 391.157 326.376 393.499 325.675C400.203 323.655 407.958 321.208 416.64 318.311C423.098 316.165 426.702 313.059 427.859 309.237C428.813 306.123 428.119 302.827 426.38 299.615C425.992 298.887 425.559 298.184 425.083 297.511C424.928 297.294 424.781 297.097 424.648 296.936C424.596 296.862 424.54 296.792 424.479 296.726L423.904 297.28Z" fill="white"/>
<path d="M493.67 215.718C493.07 215.927 492.418 215.927 491.818 215.718C493.536 215.283 493.172 211.223 493.172 211.223L493.27 211.272L494.139 211.777C494.139 211.777 494.21 215.332 493.67 215.718Z" fill="url(#paint14_linear_694_1246)"/>
<path d="M480.641 253.869L478.656 319.188C479.333 319.159 479.989 318.948 480.557 318.578L483.628 260.686L480.641 253.869Z" fill="#3F3D56"/>
<path d="M218.744 84.4004V166.739H328.957" stroke="#3F3D56" stroke-width="3" stroke-miterlimit="10"/>
<path d="M233.897 108.154H240.208C240.952 108.154 241.665 108.45 242.191 108.976C242.717 109.502 243.013 110.215 243.013 110.959V165.008H231.092V110.987C231.088 110.617 231.158 110.249 231.297 109.905C231.437 109.562 231.643 109.249 231.904 108.986C232.164 108.722 232.475 108.513 232.817 108.37C233.159 108.228 233.526 108.154 233.897 108.154ZM256.813 127.257H263.328C264.049 127.257 264.741 127.544 265.252 128.054C265.762 128.565 266.049 129.257 266.049 129.978V165.043H254.128V129.978C254.127 129.263 254.409 128.576 254.912 128.067C255.415 127.557 256.098 127.267 256.813 127.257ZM303.501 139.186H308.936C309.799 139.186 310.627 139.529 311.237 140.14C311.847 140.75 312.19 141.577 312.19 142.44V165.029H300.269V142.44C300.269 141.581 300.609 140.757 301.214 140.147C301.82 139.537 302.642 139.192 303.501 139.186ZM278.846 100.615H284.288C285.151 100.615 285.978 100.958 286.588 101.568C287.199 102.179 287.541 103.006 287.541 103.869V165.029H275.585V103.876C275.584 103.448 275.668 103.023 275.832 102.627C275.995 102.231 276.235 101.871 276.538 101.568C276.841 101.265 277.201 101.025 277.597 100.862C277.993 100.698 278.418 100.614 278.846 100.615Z" fill="#EF55FF"/>
<path d="M272.001 320.716L219.037 318.907C218.406 318.865 203.904 317.035 185.034 314.461C177.692 313.458 151.578 305.681 149.271 298.647L69.2109 1.55687L197.628 1.04492L271.959 320.52L272.001 320.716Z" fill="url(#paint15_linear_694_1246)"/>
<path opacity="0.13" d="M453.614 191.847L453.18 192.85L445.746 205.683L444.758 204.877L440.375 192.352C440.438 192.1 440.548 191.862 440.698 191.65L453.614 191.847Z" fill="url(#paint16_linear_694_1246)"/>
</g>
<defs>
<linearGradient id="paint0_linear_694_1246" x1="268.832" y1="320.541" x2="267.296" y2="0.6031" gradientUnits="userSpaceOnUse">
<stop offset="0.01" stop-color="#EF55FF" stop-opacity="0.62"/>
<stop offset="1" stop-color="white" stop-opacity="0"/>
</linearGradient>
<linearGradient id="paint1_linear_694_1246" x1="427.116" y1="296.851" x2="527.807" y2="269.217" gradientUnits="userSpaceOnUse">
<stop stop-color="#68E1FD" stop-opacity="0"/>
<stop offset="0.02" stop-color="#66DAF6" stop-opacity="0.04"/>
<stop offset="0.18" stop-color="#58A1BC" stop-opacity="0.39"/>
<stop offset="0.35" stop-color="#4D758F" stop-opacity="0.66"/>
<stop offset="0.53" stop-color="#45566F" stop-opacity="0.85"/>
<stop offset="0.73" stop-color="#40435C" stop-opacity="0.96"/>
<stop offset="0.99" stop-color="#3F3D56"/>
</linearGradient>
<linearGradient id="paint2_linear_694_1246" x1="481.027" y1="176.474" x2="492.478" y2="176.474" gradientUnits="userSpaceOnUse">
<stop stop-color="#ECC4D7"/>
<stop offset="0.42" stop-color="#EFD4D1"/>
<stop offset="1" stop-color="#F2EAC9"/>
</linearGradient>
<linearGradient id="paint3_linear_694_1246" x1="486.482" y1="170.324" x2="498.461" y2="220.347" gradientUnits="userSpaceOnUse">
<stop stop-color="#ECC4D7"/>
<stop offset="0.42" stop-color="#EFD4D1"/>
<stop offset="1" stop-color="#F2EAC9"/>
</linearGradient>
<linearGradient id="paint4_linear_694_1246" x1="470.641" y1="160.618" x2="494.988" y2="160.618" gradientUnits="userSpaceOnUse">
<stop stop-color="#ECC4D7"/>
<stop offset="0.42" stop-color="#EFD4D1"/>
<stop offset="1" stop-color="#F2EAC9"/>
</linearGradient>
<linearGradient id="paint5_linear_694_1246" x1="459.099" y1="214.792" x2="466.406" y2="201.756" gradientUnits="userSpaceOnUse">
<stop stop-color="#183866"/>
<stop offset="0.73" stop-color="#1B6CA9"/>
<stop offset="1" stop-color="#1A7FC1"/>
</linearGradient>
<linearGradient id="paint6_linear_694_1246" x1="476.917" y1="212.324" x2="494.146" y2="212.324" gradientUnits="userSpaceOnUse">
<stop stop-color="#ECC4D7"/>
<stop offset="0.42" stop-color="#EFD4D1"/>
<stop offset="1" stop-color="#F2EAC9"/>
</linearGradient>
<linearGradient id="paint7_linear_694_1246" x1="482.373" y1="207.997" x2="486.132" y2="207.997" gradientUnits="userSpaceOnUse">
<stop stop-color="#ECC4D7"/>
<stop offset="0.42" stop-color="#EFD4D1"/>
<stop offset="1" stop-color="#F2EAC9"/>
</linearGradient>
<linearGradient id="paint8_linear_694_1246" x1="459.953" y1="219.274" x2="477.33" y2="219.274" gradientUnits="userSpaceOnUse">
<stop stop-color="#ECC4D7"/>
<stop offset="0.42" stop-color="#EFD4D1"/>
<stop offset="1" stop-color="#F2EAC9"/>
</linearGradient>
<linearGradient id="paint9_linear_694_1246" x1="477.134" y1="328.465" x2="472.001" y2="318.788" gradientUnits="userSpaceOnUse">
<stop offset="0.36" stop-color="#00272E"/>
<stop offset="1" stop-color="#69B9EB" stop-opacity="0"/>
</linearGradient>
<linearGradient id="paint10_linear_694_1246" x1="497.147" y1="329.876" x2="489.839" y2="321.187" gradientUnits="userSpaceOnUse">
<stop offset="0.36" stop-color="#00272E"/>
<stop offset="1" stop-color="#69B9EB" stop-opacity="0"/>
</linearGradient>
<linearGradient id="paint11_linear_694_1246" x1="440.376" y1="204.792" x2="476.517" y2="204.792" gradientUnits="userSpaceOnUse">
<stop stop-color="#183866"/>
<stop offset="1" stop-color="#1A7FC1"/>
</linearGradient>
<linearGradient id="paint12_linear_694_1246" x1="476.461" y1="216.055" x2="488.887" y2="216.055" gradientUnits="userSpaceOnUse">
<stop stop-color="#183866"/>
<stop offset="1" stop-color="#1A7FC1"/>
</linearGradient>
<linearGradient id="paint13_linear_694_1246" x1="459.267" y1="210.725" x2="465.39" y2="229.814" gradientUnits="userSpaceOnUse">
<stop stop-color="#183866"/>
<stop offset="1" stop-color="#1A7FC1"/>
</linearGradient>
<linearGradient id="paint14_linear_694_1246" x1="492.344" y1="212.015" x2="497.738" y2="226.693" gradientUnits="userSpaceOnUse">
<stop stop-color="#ECC4D7"/>
<stop offset="0.42" stop-color="#EFD4D1"/>
<stop offset="1" stop-color="#F2EAC9"/>
</linearGradient>
<linearGradient id="paint15_linear_694_1246" x1="171.374" y1="321.2" x2="169.831" y2="1.07297" gradientUnits="userSpaceOnUse">
<stop offset="0.01" stop-color="white" stop-opacity="0.4"/>
<stop offset="1" stop-color="white" stop-opacity="0"/>
</linearGradient>
<linearGradient id="paint16_linear_694_1246" x1="440.375" y1="198.677" x2="453.614" y2="198.677" gradientUnits="userSpaceOnUse">
<stop stop-color="#68E1FD"/>
<stop offset="1" stop-color="#69B9EB"/>
</linearGradient>
<clipPath id="clip0_694_1246">
<rect width="578" height="418" fill="white"/>
</clipPath>
</defs>
</svg>
