<?xml version="1.0" encoding="UTF-8"?><svg id="Capa_1" xmlns="http://www.w3.org/2000/svg" xmlns:xlink="http://www.w3.org/1999/xlink" viewBox="0 0 116.63 117.39"><defs><style>.cls-1{clip-path:url(#clippath-2);}.cls-2{fill:none;}.cls-2,.cls-3{stroke-width:0px;}.cls-4{clip-path:url(#clippath-1);}.cls-5{clip-path:url(#clippath);}.cls-6{clip-path:url(#clippath-3);}.cls-3{fill:url(#Degradado_sin_nombre_2);}</style><clipPath id="clippath"><rect class="cls-2" x="18.87" y="39.69" width="78.88" height="38.02"/></clipPath><clipPath id="clippath-1"><path class="cls-2" d="m56.26,66.97l-6.16-6.21-5.13,5.17c-1.92,1.93-4.48,3-7.19,3-5.61,0-10.17-4.59-10.17-10.24s4.56-10.24,10.17-10.24c2.66,0,5.17,1.02,7.07,2.88l7.31,7.36,6.16,6.2,7.19,7.23c.85.86,1.79,1.64,2.79,2.32,1.01.68,2.09,1.28,3.21,1.75,2.33.99,4.8,1.5,7.35,1.5s5.02-.5,7.35-1.5c1.12-.47,2.2-1.07,3.21-1.75,1-.68,1.94-1.46,2.79-2.32s1.63-1.8,2.3-2.81c.68-1.01,1.27-2.1,1.74-3.23.98-2.35,1.48-4.84,1.48-7.4s-.5-5.05-1.48-7.4c-.47-1.13-1.06-2.21-1.74-3.23-.67-1-1.45-1.95-2.3-2.81-.85-.86-1.79-1.64-2.79-2.32-1.01-.69-2.09-1.28-3.21-1.75-2.33-.99-4.81-1.49-7.35-1.49s-5.02.5-7.35,1.49c-1.12.48-2.2,1.07-3.21,1.75-1,.68-1.94,1.46-2.79,2.32l-5.13,5.17,6.16,6.2,5.14-5.17h0c1.92-1.93,4.48-3,7.19-3,5.61,0,10.17,4.59,10.17,10.24s-4.56,10.24-10.17,10.24c-2.72,0-5.27-1.06-7.19-3l-7.19-7.23-6.16-6.21-7.19-7.24c-.85-.86-1.79-1.64-2.79-2.32-1.01-.69-2.09-1.28-3.21-1.75-2.33-.99-4.8-1.49-7.35-1.49s-5.02.5-7.35,1.49c-1.12.48-2.2,1.07-3.21,1.75-1,.68-1.94,1.46-2.79,2.32-.85.86-1.63,1.81-2.3,2.81-.68,1.02-1.27,2.1-1.74,3.23-.98,2.35-1.49,4.84-1.49,7.4s.5,5.06,1.49,7.4c.47,1.13,1.06,2.21,1.74,3.23.67,1.01,1.45,1.95,2.3,2.81.85.86,1.79,1.64,2.79,2.32,1.01.69,2.09,1.28,3.21,1.75,2.33.99,4.81,1.5,7.35,1.5s5.02-.5,7.35-1.5c1.12-.48,2.2-1.07,3.21-1.75,1-.68,1.94-1.46,2.79-2.32"/></clipPath><clipPath id="clippath-2"><path class="cls-2" d="m56.26,66.97l-6.16-6.21-5.13,5.17c-1.92,1.93-4.48,3-7.19,3-5.61,0-10.17-4.59-10.17-10.24s4.56-10.24,10.17-10.24c2.66,0,5.17,1.02,7.07,2.88l7.31,7.36,6.16,6.2,7.19,7.23c.85.86,1.79,1.64,2.79,2.32,1.01.68,2.09,1.28,3.21,1.75,2.33.99,4.8,1.5,7.35,1.5s5.02-.5,7.35-1.5c1.12-.47,2.2-1.07,3.21-1.75,1-.68,1.94-1.46,2.79-2.32s1.63-1.8,2.3-2.81c.68-1.01,1.27-2.1,1.74-3.23.98-2.35,1.48-4.84,1.48-7.4s-.5-5.05-1.48-7.4c-.47-1.13-1.06-2.21-1.74-3.23-.67-1-1.45-1.95-2.3-2.81-.85-.86-1.79-1.64-2.79-2.32-1.01-.69-2.09-1.28-3.21-1.75-2.33-.99-4.8-1.49-7.35-1.49s-5.02.5-7.35,1.49c-1.12.48-2.2,1.07-3.21,1.75-1,.68-1.94,1.46-2.79,2.32l-5.14,5.17,6.17,6.2,5.14-5.17h0c1.92-1.93,4.48-3,7.19-3,5.61,0,10.17,4.59,10.17,10.24s-4.56,10.24-10.17,10.24c-2.71,0-5.27-1.06-7.19-3l-7.19-7.23-6.17-6.21-7.19-7.24c-.85-.86-1.79-1.64-2.79-2.32-1.01-.69-2.09-1.28-3.21-1.75-2.33-.99-4.8-1.49-7.35-1.49s-5.02.5-7.35,1.49c-1.12.48-2.2,1.07-3.21,1.75-1,.68-1.94,1.46-2.79,2.32-.85.86-1.63,1.81-2.3,2.81-.68,1.02-1.27,2.1-1.74,3.23-.98,2.35-1.49,4.84-1.49,7.4s.5,5.06,1.49,7.4c.47,1.13,1.06,2.21,1.74,3.23.67,1.01,1.45,1.95,2.3,2.81.85.86,1.79,1.64,2.79,2.32,1.01.69,2.09,1.28,3.21,1.75,2.33.99,4.81,1.5,7.35,1.5s5.02-.5,7.35-1.5c1.12-.48,2.2-1.07,3.21-1.75,1-.68,1.94-1.46,2.79-2.32"/></clipPath><clipPath id="clippath-3"><polygon class="cls-2" points="0 58.7 58.31 117.39 116.63 58.7 58.31 0 0 58.7"/></clipPath><linearGradient id="Degradado_sin_nombre_2" x1="-39.92" y1="160.31" x2="-39.35" y2="160.31" gradientTransform="translate(20434.33 12437.08) rotate(-45.19) scale(144.6 -144.59) skewX(.38)" gradientUnits="userSpaceOnUse"><stop offset="0" stop-color="#1958a5"/><stop offset=".06" stop-color="#1958a5"/><stop offset=".09" stop-color="#1958a5"/><stop offset=".1" stop-color="#1958a5"/><stop offset=".1" stop-color="#195aa6"/><stop offset=".11" stop-color="#195aa6"/><stop offset=".11" stop-color="#1a5aa7"/><stop offset=".11" stop-color="#1a5ba8"/><stop offset=".12" stop-color="#1d5ca8"/><stop offset=".12" stop-color="#1d5ca8"/><stop offset=".12" stop-color="#1d5ca8"/><stop offset=".13" stop-color="#1e5ca8"/><stop offset=".13" stop-color="#1e5ca8"/><stop offset=".14" stop-color="#1e5ca8"/><stop offset=".14" stop-color="#1f5da9"/><stop offset=".14" stop-color="#1f5da9"/><stop offset=".15" stop-color="#1d5eaa"/><stop offset=".16" stop-color="#1d5eaa"/><stop offset=".16" stop-color="#215eaa"/><stop offset=".16" stop-color="#215eaa"/><stop offset=".17" stop-color="#225faa"/><stop offset=".17" stop-color="#225faa"/><stop offset=".18" stop-color="#245faa"/><stop offset=".18" stop-color="#2460ab"/><stop offset=".18" stop-color="#2460ab"/><stop offset=".19" stop-color="#2660ab"/><stop offset=".19" stop-color="#2660ab"/><stop offset=".2" stop-color="#2661ac"/><stop offset=".2" stop-color="#2661ac"/><stop offset=".21" stop-color="#2762ac"/><stop offset=".21" stop-color="#2662ad"/><stop offset=".21" stop-color="#2662ad"/><stop offset=".22" stop-color="#2662ad"/><stop offset=".22" stop-color="#2662ad"/><stop offset=".23" stop-color="#2863ad"/><stop offset=".23" stop-color="#2863ad"/><stop offset=".23" stop-color="#2964ae"/><stop offset=".24" stop-color="#2964ae"/><stop offset=".24" stop-color="#2864ae"/><stop offset=".25" stop-color="#2864ae"/><stop offset=".25" stop-color="#2965af"/><stop offset=".25" stop-color="#2965af"/><stop offset=".26" stop-color="#2965af"/><stop offset=".26" stop-color="#2a66af"/><stop offset=".27" stop-color="#2a66af"/><stop offset=".27" stop-color="#2c67b0"/><stop offset=".27" stop-color="#2c67b0"/><stop offset=".28" stop-color="#2d67b0"/><stop offset=".28" stop-color="#2d67b0"/><stop offset=".29" stop-color="#2d67b0"/><stop offset=".29" stop-color="#2d67b0"/><stop offset=".29" stop-color="#2e68b1"/><stop offset=".3" stop-color="#2e68b1"/><stop offset=".3" stop-color="#2f69b1"/><stop offset=".3" stop-color="#2e68b1"/><stop offset=".31" stop-color="#2e68b1"/><stop offset=".32" stop-color="#2f69b1"/><stop offset=".32" stop-color="#2f69b1"/><stop offset=".32" stop-color="#2f69b1"/><stop offset=".33" stop-color="#2e69b2"/><stop offset=".33" stop-color="#2e69b2"/><stop offset=".34" stop-color="#2f6ab2"/><stop offset=".34" stop-color="#2f6ab2"/><stop offset=".35" stop-color="#306bb3"/><stop offset=".35" stop-color="#306bb3"/><stop offset=".36" stop-color="#306bb3"/><stop offset=".36" stop-color="#306bb3"/><stop offset=".36" stop-color="#306bb3"/><stop offset=".37" stop-color="#316bb3"/><stop offset=".38" stop-color="#316bb3"/><stop offset=".38" stop-color="#336cb4"/><stop offset=".38" stop-color="#326db4"/><stop offset=".39" stop-color="#326db4"/><stop offset=".39" stop-color="#336eb5"/><stop offset=".4" stop-color="#336eb5"/><stop offset=".4" stop-color="#346eb5"/><stop offset=".41" stop-color="#346eb5"/><stop offset=".41" stop-color="#336fb6"/><stop offset=".41" stop-color="#346eb5"/><stop offset=".42" stop-color="#346eb5"/><stop offset=".43" stop-color="#356fb6"/><stop offset=".43" stop-color="#366fb6"/><stop offset=".44" stop-color="#3470b6"/><stop offset=".44" stop-color="#376fb6"/><stop offset=".45" stop-color="#3670b7"/><stop offset=".45" stop-color="#376fb6"/><stop offset=".46" stop-color="#376fb6"/><stop offset=".46" stop-color="#3870b7"/><stop offset=".46" stop-color="#3870b7"/><stop offset=".47" stop-color="#3871b8"/><stop offset=".47" stop-color="#3771b7"/><stop offset=".48" stop-color="#3871b8"/><stop offset=".48" stop-color="#3871b8"/><stop offset=".48" stop-color="#3a72b8"/><stop offset=".49" stop-color="#3a72b8"/><stop offset=".49" stop-color="#3972b8"/><stop offset=".5" stop-color="#3b72b8"/><stop offset=".5" stop-color="#3a73b9"/><stop offset=".5" stop-color="#3a73b9"/><stop offset=".51" stop-color="#3c73b9"/><stop offset=".51" stop-color="#3c73b9"/><stop offset=".52" stop-color="#3d75ba"/><stop offset=".52" stop-color="#3d75ba"/><stop offset=".52" stop-color="#3c75ba"/><stop offset=".53" stop-color="#3d76bb"/><stop offset=".53" stop-color="#3d76bb"/><stop offset=".54" stop-color="#3e77bc"/><stop offset=".54" stop-color="#3e77bc"/><stop offset=".54" stop-color="#3e77bc"/><stop offset=".55" stop-color="#3e77bc"/><stop offset=".55" stop-color="#3f78bc"/><stop offset=".55" stop-color="#3f78bc"/><stop offset=".56" stop-color="#3f78bc"/><stop offset=".56" stop-color="#3f79bd"/><stop offset=".57" stop-color="#3f79bd"/><stop offset=".57" stop-color="#417abe"/><stop offset=".57" stop-color="#417abe"/><stop offset=".58" stop-color="#417cbf"/><stop offset=".58" stop-color="#417cbf"/><stop offset=".59" stop-color="#427cbf"/><stop offset=".59" stop-color="#427cbf"/><stop offset=".59" stop-color="#417ec0"/><stop offset=".6" stop-color="#417ec0"/><stop offset=".6" stop-color="#427fc1"/><stop offset=".61" stop-color="#427fc1"/><stop offset=".61" stop-color="#4380c2"/><stop offset=".61" stop-color="#4480c2"/><stop offset=".62" stop-color="#4681c2"/><stop offset=".62" stop-color="#4582c3"/><stop offset=".62" stop-color="#4582c3"/><stop offset=".63" stop-color="#4683c4"/><stop offset=".63" stop-color="#4683c4"/><stop offset=".64" stop-color="#4783c4"/><stop offset=".64" stop-color="#4783c4"/><stop offset=".64" stop-color="#4885c5"/><stop offset=".65" stop-color="#4885c5"/><stop offset=".65" stop-color="#4886c6"/><stop offset=".66" stop-color="#4886c6"/><stop offset=".66" stop-color="#4886c6"/><stop offset=".66" stop-color="#4987c7"/><stop offset=".67" stop-color="#4b87c7"/><stop offset=".67" stop-color="#4a88c8"/><stop offset=".68" stop-color="#4a88c8"/><stop offset=".68" stop-color="#4c8ac9"/><stop offset=".69" stop-color="#4d8bc9"/><stop offset=".69" stop-color="#4d8bc9"/><stop offset=".7" stop-color="#4d8cca"/><stop offset=".7" stop-color="#4e8cca"/><stop offset=".71" stop-color="#4e8dcb"/><stop offset=".71" stop-color="#4e8ecc"/><stop offset=".71" stop-color="#4e8ecc"/><stop offset=".72" stop-color="#4f90cd"/><stop offset=".72" stop-color="#4f90cd"/><stop offset=".73" stop-color="#5091ce"/><stop offset=".73" stop-color="#5291ce"/><stop offset=".73" stop-color="#5293cf"/><stop offset=".74" stop-color="#5294cf"/><stop offset=".74" stop-color="#5394d0"/><stop offset=".75" stop-color="#5395d0"/><stop offset=".75" stop-color="#5395d0"/><stop offset=".75" stop-color="#5495d0"/><stop offset=".76" stop-color="#5596d1"/><stop offset=".76" stop-color="#5596d1"/><stop offset=".77" stop-color="#5698d2"/><stop offset=".77" stop-color="#5698d2"/><stop offset=".77" stop-color="#5698d2"/><stop offset=".78" stop-color="#5698d2"/><stop offset=".78" stop-color="#579ad3"/><stop offset=".79" stop-color="#579ad3"/><stop offset=".79" stop-color="#589ad4"/><stop offset=".79" stop-color="#589ad4"/><stop offset=".8" stop-color="#599cd5"/><stop offset=".8" stop-color="#599cd5"/><stop offset=".8" stop-color="#5a9cd5"/><stop offset=".81" stop-color="#5b9cd4"/><stop offset=".81" stop-color="#5b9dd5"/><stop offset=".82" stop-color="#5b9dd5"/><stop offset=".82" stop-color="#5c9ed6"/><stop offset=".82" stop-color="#5d9fd7"/><stop offset=".83" stop-color="#5d9fd7"/><stop offset=".83" stop-color="#5ea1d8"/><stop offset=".84" stop-color="#5ea1d8"/><stop offset=".84" stop-color="#5fa1d8"/><stop offset=".84" stop-color="#5fa1d8"/><stop offset=".85" stop-color="#60a3d9"/><stop offset=".85" stop-color="#60a3d9"/><stop offset=".86" stop-color="#60a4da"/><stop offset=".86" stop-color="#61a4da"/><stop offset=".86" stop-color="#61a5da"/><stop offset=".87" stop-color="#62a5db"/><stop offset=".88" stop-color="#62a6db"/><stop offset=".88" stop-color="#63a6db"/><stop offset=".88" stop-color="#63a7dc"/><stop offset=".89" stop-color="#65a7dc"/><stop offset=".89" stop-color="#64a8dc"/><stop offset=".89" stop-color="#64a8dc"/><stop offset=".9" stop-color="#65a9dd"/><stop offset=".9" stop-color="#67a9dd"/><stop offset=".91" stop-color="#68aadd"/><stop offset=".91" stop-color="#68aadd"/><stop offset=".91" stop-color="#69abde"/><stop offset=".92" stop-color="#69abde"/><stop offset=".92" stop-color="#6aacdf"/><stop offset=".93" stop-color="#6aacdf"/><stop offset=".93" stop-color="#6caee0"/><stop offset=".94" stop-color="#6caee0"/><stop offset="1" stop-color="#6caee0"/></linearGradient></defs><g class="cls-5"><g class="cls-4"><g class="cls-1"><g class="cls-6"><path class="cls-3" d="m0,58.7l58.31,58.7,58.31-58.7L58.31,0,0,58.7Z"/></g></g></g></g></svg>