<svg width="184" height="155" viewBox="0 0 184 155" fill="none" xmlns="http://www.w3.org/2000/svg">
<path opacity="0.25" d="M158.803 77.6227C154.776 81.7287 149.688 84.9001 145.899 89.1978C140.858 94.9149 138.333 102.364 134.493 108.774C133.533 110.395 132.443 111.948 131.232 113.419C129.941 114.985 128.44 116.395 126.766 117.615C119.485 122.867 109.434 123.423 100.229 122.535C91.2626 121.675 82.3176 119.661 73.3471 120.29L72.6233 120.345C68.6085 120.693 64.615 121.585 60.6342 122.359C55.3975 123.376 50.1821 124.193 44.9709 123.301C41.7609 122.731 38.7213 121.535 36.0575 119.794C33.3936 118.053 31.1674 115.807 29.529 113.208C25.9613 107.448 25.5781 100.464 22.5978 94.4379C20.5713 90.3357 17.4037 86.7928 15.1728 82.7806C12.7439 78.3361 11.4903 73.4281 11.514 68.4552C11.5377 63.4822 12.8379 58.5845 15.309 54.1596C18.2211 49.0564 22.5978 44.8096 26.9192 40.6371L39.9769 28.0257C44.2344 23.9197 48.6196 19.7198 54.2054 17.3148C58.4259 15.5366 63.1022 14.8731 67.7102 15.3987C71.4567 15.7897 74.3348 17.788 77.5662 18.8869C78.2232 19.1181 78.8995 19.2998 79.5885 19.4304C83.5182 20.1734 87.7672 19.1567 91.9352 19.7003C92.2631 19.7394 92.5866 19.7941 92.9102 19.8567C97.47 20.7404 101.851 22.4454 105.998 24.3459C113.946 27.971 121.657 32.4368 130.385 33.9345C137.767 35.1976 145.635 34.2786 152.604 36.84C160.745 39.8237 166.348 47.4609 167.246 55.4657C168.144 63.4705 164.674 71.6357 158.803 77.6227Z" fill="#08E1FE"/>
<path d="M124.82 100.033L123.117 100.647C123.117 100.647 124.152 100.729 125.77 103.615C127.387 106.501 131.624 115.519 131.453 116.669C131.453 116.669 133.02 116.606 133.322 115.945C133.331 115.945 129.073 103.557 124.82 100.033Z" fill="#08E1FE"/>
<path d="M124.82 100.033L123.117 100.647C123.117 100.647 124.152 100.729 125.77 103.615C127.387 106.501 131.624 115.519 131.453 116.669C131.453 116.669 133.02 116.606 133.322 115.945C133.331 115.945 129.073 103.557 124.82 100.033Z" fill="url(#paint0_linear_403_2085)"/>
<path d="M68.535 63.7826C68.535 63.7826 62.9151 71.8382 61.3568 71.2634C59.7986 70.6885 60.003 62.6329 60.003 62.6329L66.7596 56.2705L68.535 63.7826Z" fill="url(#paint1_linear_403_2085)"/>
<path d="M68.6979 64.9873C68.6979 64.9873 66.3264 71.4709 63.5676 72.3782C60.8087 73.2854 58.6076 78.9478 59.6507 80.5198L61.3537 83.0851L63.6315 81.3215C63.6315 81.3215 61.2898 78.5294 62.682 76.5741C64.4915 74.0362 63.5761 76.3864 65.9986 73.5435C68.4211 70.7006 69.0512 68.6788 69.0512 68.6788L68.6979 64.9873Z" fill="#EF55FF"/>
<path d="M57.7546 99.2046C57.1713 100.679 56.6817 102.419 57.6098 103.737C58.2229 104.609 59.3128 105.074 60.3559 105.473C64.8339 107.182 69.4803 108.491 74.231 109.384C75.3167 109.591 76.6024 109.728 77.3986 109.02C77.7688 108.634 78.0343 108.173 78.1735 107.675L81.6178 98.3873C83.9466 92.1305 86.301 85.7994 89.8603 80.0353C90.4819 79.0264 91.1673 77.9001 90.8693 76.77C90.6011 75.7376 89.5367 75.0024 88.417 74.7326C85.2664 73.9505 81.4432 75.0142 78.1649 74.8108C76.3513 74.6974 74.3332 74.2986 72.6898 75.2019C70.4248 76.4376 69.0624 79.5034 67.7256 81.4587C65.9119 84.1335 64.1408 86.8317 62.5144 89.6043C60.6724 92.6923 59.0815 95.9011 57.7546 99.2046Z" fill="#08E1FE"/>
<path d="M89.8619 80.0509C86.2984 85.815 83.9483 92.1305 81.6194 98.403C80.7509 100.749 79.8795 103.096 79.0053 105.442L78.1538 107.683C78.0147 108.181 77.7491 108.642 77.379 109.028C77.1519 109.226 76.8758 109.371 76.5743 109.45C75.7929 109.604 74.9826 109.584 74.2114 109.391C69.4606 108.499 64.8142 107.19 60.3363 105.481C59.2932 105.09 58.2075 104.617 57.5902 103.745C57.3409 103.391 57.1809 102.99 57.1218 102.572C56.9388 101.481 57.3134 100.272 57.7349 99.2007C59.0628 95.9039 60.6537 92.7016 62.4948 89.62C64.1212 86.8474 65.9008 84.1452 67.706 81.4744C69.0428 79.4996 70.4052 76.4494 72.6702 75.2176C74.3263 74.3142 76.3316 74.7131 78.1453 74.8265C81.4236 75.0299 85.2468 73.9818 88.3973 74.7483C89.5171 75.0181 90.5814 75.7533 90.8496 76.7857C91.169 77.9158 90.4835 79.042 89.8619 80.0509Z" fill="url(#paint2_linear_403_2085)"/>
<path d="M77.3986 109.036C76.6025 109.744 75.3167 109.607 74.2311 109.399C72.9325 109.157 71.6383 108.879 70.3568 108.57C66.9489 107.753 63.6072 106.718 60.3559 105.473C60.0111 105.34 59.6577 105.203 59.3256 105.039C58.6428 104.751 58.0552 104.301 57.6226 103.737C57.3733 103.383 57.2133 102.982 57.1543 102.564L57.7418 102.298C58.8253 102.15 59.9209 102.09 61.0158 102.118C63.6961 102.126 66.339 102.696 68.7432 103.784C69.1987 104.003 69.6415 104.226 70.0715 104.449C72.65 105.786 75.101 107.32 77.3986 109.036Z" fill="url(#paint3_linear_403_2085)"/>
<path d="M79.7671 108.543C80.1034 109.372 80.5334 110.259 81.3934 110.666C82.0831 110.998 82.9091 110.944 83.6882 110.869C88.0423 110.473 92.3661 109.834 96.6352 108.953C96.8651 108.923 97.0824 108.838 97.2653 108.707C97.4732 108.462 97.5693 108.152 97.5336 107.843C97.657 102.286 97.3122 96.6664 98.5639 91.2269C99.062 89.0722 99.8071 86.9606 100.054 84.7707C100.505 80.5888 99.1351 76.4131 96.2435 73.1565C96.079 72.9358 95.8461 72.7655 95.5751 72.6677C95.2025 72.6232 94.8247 72.6992 94.5065 72.8827C91.0707 74.3492 87.2134 74.3414 83.5051 74.3062C80.8485 74.2788 77.4893 73.6336 77.2509 76.758C76.7443 83.3629 76.3696 90.2806 77.021 96.8932C77.3724 100.871 78.2958 104.788 79.7671 108.543Z" fill="#08E1FE"/>
<path d="M100.066 84.7707C99.8188 86.9606 99.0737 89.0722 98.5756 91.2269C97.3239 96.6664 97.6687 102.286 97.5453 107.843C97.5639 108.1 97.5065 108.356 97.3792 108.586C97.3528 108.631 97.3182 108.672 97.2771 108.707C97.0941 108.838 96.8768 108.923 96.6469 108.953C92.3778 109.834 88.0541 110.473 83.6999 110.869C82.9208 110.944 82.0949 110.998 81.4052 110.666C80.5537 110.275 80.1279 109.372 79.7788 108.543C78.3075 104.788 77.3842 100.871 77.0327 96.8932C76.3813 90.2806 76.756 83.3629 77.2626 76.758C77.501 73.6296 80.8602 74.2788 83.5169 74.3062C87.2251 74.3414 91.0824 74.3492 94.5182 72.8827C94.8364 72.6992 95.2142 72.6232 95.5868 72.6677C95.8578 72.7655 96.0907 72.9358 96.2553 73.1565C96.4383 73.3598 96.6129 73.5475 96.7789 73.7743C99.316 76.9409 100.487 80.8581 100.066 84.7707Z" fill="url(#paint4_linear_403_2085)"/>
<path d="M90.1289 74.6075C90.1289 74.6075 91.0145 81.8654 96.4087 82.3073L95.5189 73.6494L90.1289 74.6075Z" fill="url(#paint5_linear_403_2085)"/>
<path d="M97.5461 107.843C97.5461 107.874 97.5461 108.578 95.9581 108.848C95.792 108.875 95.609 108.899 95.4089 108.914C93.2503 109.098 84.0031 110.666 84.0031 110.666C84.0031 110.666 80.9845 111.315 80.7461 109.563C80.7461 109.563 81.9723 109.149 83.8072 108.668C86.9493 107.843 91.8964 106.818 95.5451 107.338C96.2319 107.431 96.9039 107.601 97.5461 107.843Z" fill="url(#paint6_linear_403_2085)"/>
<path d="M86.7745 33.0112C86.7277 33.148 86.4679 33.0698 86.4552 32.9251C86.4424 32.7805 86.5786 32.6671 86.6978 32.5771C88.507 31.2677 90.7882 30.6349 93.0841 30.8057C93.5225 30.812 93.9497 30.9341 94.3145 31.1576C94.6204 31.4156 94.854 31.7375 94.9957 32.0961C98.1739 38.6199 100.585 45.4368 102.187 52.4307C102.489 53.7447 102.923 55.258 104.26 55.7938C105.686 56.3686 107.398 55.4027 108.028 54.0927C108.658 52.7827 108.488 51.285 108.253 49.8733C107.617 45.8349 106.44 41.8842 104.75 38.1105C103.481 35.3888 101.906 32.8 100.628 30.1096C99.3511 27.4192 98.0441 24.3924 95.298 22.8048C92.5519 21.2171 89.1502 21.4752 86.0209 22.0227C83.3131 22.4958 80.2648 23.4735 79.3281 25.851C78.5703 27.775 79.5793 30.0001 81.2568 31.3257C82.9342 32.6514 85.1524 33.281 87.3322 33.6916C88.0052 33.8576 88.7086 33.8922 89.3971 33.7933" fill="#EF55FF"/>
<path d="M92.1524 25.938C93.4722 26.0514 94.8602 26.2938 95.8394 27.1111C96.4264 27.6637 96.8957 28.3123 97.2231 29.0234C101.229 36.4964 103.929 44.4933 106.615 52.4512C107.071 53.8082 107.522 55.3098 106.909 56.612C106.338 57.8125 105.002 58.5321 103.716 59.0991C101.398 60.1234 98.9729 60.9291 96.478 61.504C96.1603 61.6436 95.7956 61.6628 95.4626 61.5574C95.1296 61.4521 94.8551 61.2306 94.6984 60.9409C92.6335 58.3287 91.2669 55.3176 89.9257 52.3378L81.2022 33.0004C80.7211 31.9328 79.3757 30.0831 79.3502 28.9178C79.3204 27.5139 80.521 27.2988 81.8706 26.9117C85.1933 25.9624 88.6887 25.6314 92.1524 25.938Z" fill="#33233A"/>
<path d="M60.7306 39.2761C59.1324 43.3009 57.8714 47.432 56.9585 51.6333C56.8777 51.8229 56.8396 52.0256 56.8465 52.2291C56.8534 52.4326 56.9052 52.6327 56.9987 52.8173C57.0923 53.0019 57.2256 53.1672 57.3906 53.3031C57.5557 53.439 57.749 53.5428 57.959 53.6081L61.9738 55.927C62.8253 56.4197 64.0089 56.8968 64.7582 56.275C65.2478 55.884 65.2776 55.184 65.2649 54.5779C65.1967 49.9713 64.9981 45.3686 64.6688 40.7699C64.5879 39.6593 65.2265 35.6237 63.6938 35.2443C62.1611 34.865 61.1393 38.2515 60.7306 39.2761Z" fill="#08E1FE"/>
<path d="M73.4788 31.1968C70.7072 31.4158 67.7695 31.7756 65.6237 33.3985C64.9558 33.9164 64.3672 34.5149 63.8739 35.1777C61.9764 37.6602 61.0246 40.6488 61.1661 43.6792C61.2853 45.9981 62.0432 48.2466 62.7967 50.4639C64.338 54.9962 65.8792 59.5324 67.6545 63.9942C68.9318 67.2595 68.9701 72.3314 71.5374 74.8889C72.3463 75.6906 74.7305 74.6543 75.8289 75.0844C77.2466 75.6397 78.8347 75.6554 80.3759 75.6124C84.4198 75.4942 88.4412 75.0109 92.382 74.1694C93.3527 73.9582 95.788 73.9582 96.2563 73.1566C96.5543 72.6599 97.0056 72.4683 97.0056 71.9013C97.0312 64.5495 94.9195 56.4939 94.2298 49.1656C93.804 44.7898 93.2378 40.2849 90.8919 36.4565C88.546 32.6281 84.0246 29.6092 79.2519 30.1175C77.5574 30.3052 75.1733 31.06 73.4788 31.1968Z" fill="#08E1FE"/>
<path d="M97.0056 71.9017C97.0056 72.4688 96.5543 72.6604 96.2563 73.157C96.0763 73.3943 95.8134 73.5682 95.5113 73.6497C94.6279 73.8788 93.7225 74.0294 92.8078 74.0994C92.6545 74.119 92.514 74.1425 92.382 74.1659C88.4412 75.0074 84.4198 75.4907 80.3759 75.6089C78.8347 75.6519 72.3463 75.6871 71.5374 74.8855C68.9829 72.328 68.9531 67.2561 67.6545 63.9908C65.8792 59.5289 64.338 54.9966 62.7967 50.4604C62.0432 48.2432 61.2853 45.9946 61.1661 43.6757C61.0246 40.6453 61.9764 37.6568 63.8739 35.1743C64.3672 34.5115 64.9558 33.913 65.6237 33.395C66.6279 32.6612 67.7881 32.1284 69.0297 31.8308C70.4832 31.4886 71.9685 31.2725 73.466 31.1855C75.169 31.0487 77.5447 30.2861 79.2391 30.1062C79.8568 30.0399 80.4803 30.032 81.0997 30.0828C82.3893 30.1968 83.6449 30.5282 84.8037 31.0604C86.0014 31.6033 87.1024 32.31 88.0692 33.1564C89.1802 34.116 90.1262 35.2249 90.8749 36.4452C93.2207 40.2736 93.804 44.7785 94.2127 49.1543C94.9195 56.5061 97.0312 64.55 97.0056 71.9017Z" fill="url(#paint7_linear_403_2085)"/>
<path d="M97.0052 71.902C97.0052 72.469 96.554 72.6606 96.2559 73.1573C96.0759 73.3946 95.813 73.5684 95.5109 73.65L92.8074 74.1036L92.3816 74.1701L90.5424 47.9032L80.5841 41.2554C80.5841 41.2554 77.7061 37.4817 76.267 37.4817C74.828 37.4817 70.4215 34.8969 70.4215 34.8969C69.1868 35.0064 65.7383 45.1893 65.7383 45.1893L66.9133 33.9232L69.0421 31.831L71.537 30.0518L79.2515 30.1065L81.1121 30.083L83.5601 30.0518L84.8374 31.0607L86.7149 32.5662L88.1028 33.1567C89.2138 34.1162 90.1598 35.2251 90.9085 36.4454C93.2544 40.2738 93.8377 44.7787 94.2464 49.1546C94.9191 56.5063 97.0308 64.5502 97.0052 71.902Z" fill="url(#paint8_linear_403_2085)"/>
<path d="M94.6176 63.3647C94.6176 63.3647 99.5265 61.0184 101.361 57.5967L102.72 58.5978C102.72 58.5978 98.411 64.9875 94.8134 64.9875C91.2159 64.9875 94.6176 63.3647 94.6176 63.3647Z" fill="#EF55FF"/>
<path d="M78.456 32.4294C74.9819 37.6108 73.1767 44.0945 74.7733 49.9993C75.9483 54.3283 79.2138 57.9142 82.7135 61.0074C84.2717 62.3839 85.9236 63.7135 87.8608 64.5933C89.7979 65.4732 92.0799 65.8603 94.1491 65.2894C94.8431 65.0978 95.6307 64.5073 95.3327 63.9129C95.1669 63.6627 94.9153 63.4701 94.6174 63.3654C91.1476 61.7348 87.5287 60.0141 85.2509 57.1086C83.5224 54.9031 82.6964 52.2088 82.16 49.5418C81.2148 45.0252 80.9424 40.1214 83.2669 36.0466C84.4292 34.0054 86.2216 32.2104 86.7283 29.9541C86.7581 29.8133 82.0067 28.6558 81.4533 28.7809C79.9589 29.1759 79.2096 31.2993 78.456 32.4294ZM60.7661 39.4371C59.0631 47.1095 62.3031 63.2599 68.0039 64.9883C68.1358 64.1554 65.8453 56.307 65.6495 49.7178C65.2706 36.8483 70.3668 32.6758 70.4306 31.5496C70.4604 30.9904 68.3402 30.0988 65.6537 31.749C62.7799 33.5126 61.4601 36.4142 60.7661 39.4371Z" fill="#33233A"/>
<path d="M79.5712 44.1328C79.0286 49.4878 78.858 54.8691 79.0604 60.2441C82.3216 56.3648 82.9176 51.1873 83.3902 46.307C84.5653 46.5327 85.6974 46.9176 86.7494 47.4489C87.2745 47.7179 87.7289 48.0896 88.0805 48.5375C88.4322 48.9855 88.6725 49.4989 88.7844 50.0415C88.8739 50.6477 90.662 51.7074 90.5343 52.3018C89.7296 56.0129 83.7734 64.7802 82.5047 65.9026C80.3461 67.7992 78.2174 68.5539 76.1993 66.5322C74.1813 64.5104 73.5512 61.644 73.2531 58.9184C72.9183 55.8665 72.8941 52.7926 73.1808 49.7365C73.1808 49.9281 71.8141 48.3678 71.729 48.1215C71.4097 47.2103 71.5672 46.1662 71.6694 45.2277C71.8482 43.6635 72.0185 41.6692 72.9977 40.3083C73.9045 39.0452 75.2967 38.6933 76.8635 39.1742C79.3413 39.9368 79.7926 41.9898 79.5712 44.1328Z" fill="url(#paint9_linear_403_2085)"/>
<path d="M56.8705 57.6086C57.5262 53.1584 58.5991 50.8551 59.2547 46.4089C59.4548 45.0441 59.6805 43.609 60.5958 42.4984C61.5112 41.3878 63.3376 40.8208 64.5468 41.6381C65.4408 42.2364 65.7005 43.3431 65.8921 44.3441C66.237 45.7787 66.38 47.2481 66.3179 48.7161C66.1902 50.1786 65.6026 51.6646 64.402 52.6266C63.9492 52.9198 63.5448 53.2714 63.2014 53.6707C62.9456 54.1171 62.8098 54.6132 62.8055 55.1176C62.4223 59.8102 63.2567 64.5302 62.716 69.1954C62.6181 70.0518 62.2903 71.092 61.3579 71.2406C61.0688 71.2529 60.7801 71.2075 60.5119 71.1076C60.2436 71.0077 60.0021 70.8556 59.8039 70.6618C57.8881 69.1289 56.9174 66.7904 56.6704 64.4676C56.4026 62.1755 56.4699 59.8608 56.8705 57.5851" fill="url(#paint10_linear_403_2085)"/>
<path d="M122.078 109.927C122.021 110.179 121.871 110.404 121.652 110.565C113.959 117.392 105.614 123.993 95.541 127.306C94.3361 127.697 92.9865 128.052 91.7902 127.661C90.3298 127.192 85.1315 116.114 84.0202 110.666C83.9564 110.357 83.9053 110.068 83.8712 109.802C83.8176 109.428 83.8019 109.049 83.8244 108.672C86.9664 107.847 91.9136 106.822 95.5623 107.342L95.6687 107.69C95.6687 107.733 95.69 107.773 95.6985 107.816C95.7837 108.164 95.8773 108.508 95.9753 108.852C96.2052 109.677 96.4649 110.494 96.7459 111.304C97.0127 112.086 97.3093 112.852 97.6357 113.603C97.7216 113.891 97.9106 114.145 98.1721 114.323C98.5638 114.534 99.0577 114.377 99.4749 114.213C105.913 111.7 112.048 108.578 117.782 104.898C118.027 104.693 118.349 104.584 118.68 104.593C119.051 104.648 119.285 104.984 119.468 105.293C120.271 106.641 121.077 107.989 121.886 109.337C122.008 109.514 122.074 109.718 122.078 109.927Z" fill="url(#paint11_linear_403_2085)"/>
<path d="M72.2316 105.614C72.0996 106.216 70.6265 108.015 70.3583 108.57C69.5324 110.283 68.1998 111.824 67.2504 113.506C66.3059 115.321 65.5917 117.23 65.1216 119.195C63.8728 123.695 62.7743 128.225 61.8263 132.784C61.0117 136.679 60.3021 140.59 59.6976 144.516C57.7735 144.159 55.9056 143.582 54.1373 142.799C53.7263 142.648 53.3591 142.411 53.0644 142.107C52.66 141.626 52.6387 140.965 52.6387 140.355C52.7021 134.366 53.1799 128.386 54.0692 122.453C54.8526 117.51 55.9255 112.536 58.0542 107.925C58.3352 107.319 58.7822 106.201 59.3314 105.039C59.689 104.263 60.097 103.507 60.5533 102.775C60.7023 102.544 60.8514 102.333 61.0046 102.138C63.6849 102.146 66.3278 102.715 68.732 103.804C69.1875 104.023 69.6303 104.245 70.0603 104.468C70.4009 104.664 72.2316 105.614 72.2316 105.614Z" fill="url(#paint12_linear_403_2085)"/>
<path d="M123.124 100.648C123.282 100.547 123.475 100.505 123.665 100.531C123.852 100.597 124.004 100.728 124.09 100.894C127.089 105.445 129.501 110.3 131.277 115.363C131.481 115.954 131.665 116.65 131.277 117.146C131.027 117.415 130.687 117.601 130.311 117.674C128.148 118.206 125.972 117.017 124.107 115.883L118.922 112.731C119.42 113.032 119.59 109.372 119.526 109.083C119.207 107.64 118.151 106.658 117.555 105.352C116.291 102.65 121.012 101.641 123.124 100.648ZM54.3997 142.24C56.1027 143.484 58.5678 142.901 60.6199 142.263C61.5407 144.648 62.233 147.101 62.689 149.596C62.8275 150.065 62.8037 150.563 62.6209 151.019C62.3237 151.459 61.8737 151.794 61.3436 151.969C56.2091 154.21 50.3295 154.382 44.6458 154.511C44.2981 154.541 43.9474 154.505 43.6155 154.406C42.4872 153.987 42.5724 152.486 43.0109 151.445C44.2583 148.481 46.7575 147.089 48.7628 144.711C49.461 143.882 49.9123 142.94 50.7084 142.166C52.2113 140.711 52.8755 141.122 54.3997 142.24Z" fill="#08E1FE"/>
<path d="M123.124 100.648C123.282 100.547 123.475 100.505 123.665 100.531C123.852 100.597 124.005 100.728 124.091 100.894C127.09 105.445 129.501 110.3 131.277 115.363C131.482 115.954 131.665 116.65 131.277 117.146C131.027 117.415 130.688 117.601 130.311 117.674C128.148 118.206 125.973 117.017 124.108 115.883L118.922 112.731C119.42 113.032 119.591 109.372 119.527 109.083C119.207 107.64 118.152 106.658 117.556 105.352C116.291 102.65 121.013 101.641 123.124 100.648Z" fill="url(#paint13_linear_403_2085)"/>
<path d="M62.6226 151.019C62.3254 151.459 61.8754 151.794 61.3454 151.969C56.2108 154.21 50.3313 154.382 44.6475 154.511C44.2998 154.541 43.9492 154.505 43.6172 154.406C42.8083 154.104 42.6252 153.232 42.7657 152.407C42.8122 152.078 42.9023 151.755 43.0339 151.445C44.2814 148.481 46.7805 147.089 48.7858 144.711C49.484 143.882 49.9353 142.94 50.7315 142.166C52.2301 140.711 52.8943 141.122 54.4185 142.24C56.1214 143.484 58.5865 142.901 60.6386 142.263C61.5032 144.517 62.1625 146.832 62.6098 149.185C62.6397 149.322 62.6652 149.459 62.6907 149.596C62.8292 150.065 62.8054 150.563 62.6226 151.019Z" fill="url(#paint14_linear_403_2085)"/>
<path d="M51.8587 28.1939C46.0543 32.9639 39.8188 37.2718 33.2194 41.0712L32.8789 41.2589C32.6428 41.414 32.3714 41.5179 32.0852 41.5626C31.7991 41.6073 31.5056 41.5917 31.2269 41.517C30.699 41.3136 30.4265 40.7935 30.1881 40.3164C26.1605 32.2686 18.1224 26.5202 14.8867 18.093C21.0814 13.7876 29.0173 10.753 35.8208 7.23356C36.3955 6.93637 37.0384 6.63135 37.677 6.70565C37.7345 6.71096 37.7914 6.72011 37.8473 6.73302C38.5285 6.88944 38.9798 7.46037 39.3673 7.9922C44.0611 14.4377 48.236 21.1896 51.8587 28.1939Z" fill="#08E1FE"/>
<path d="M51.8588 28.1933C46.0544 32.9633 39.8188 37.2713 33.2195 41.0706L32.8789 41.2583C32.8061 41.2434 32.7348 41.2224 32.666 41.1957C32.1381 40.9924 31.8656 40.4684 31.6272 39.9913C27.5996 31.9474 19.5615 26.1989 16.3301 17.7913C22.5247 13.4898 30.4607 10.4279 37.2641 6.93186C37.4004 6.86147 37.5409 6.79108 37.6899 6.72852C37.7473 6.73383 37.8042 6.74298 37.8602 6.75589C38.5414 6.91231 38.9927 7.48324 39.3801 8.01507C44.0685 14.4534 48.2391 21.1974 51.8588 28.1933Z" fill="url(#paint15_linear_403_2085)"/>
<path d="M0.0366483 85.8854C0.00178812 85.8255 -0.00863879 85.7561 0.00724285 85.6897C0.0231245 85.6233 0.0642725 85.5643 0.123286 85.5233C0.1823 85.4823 0.255307 85.462 0.329176 85.466C0.403045 85.47 0.472929 85.4981 0.526259 85.5452C3.5065 88.2826 9.99491 96.4438 10.1354 96.698C10.2261 96.8418 10.2571 97.0109 10.2227 97.174C10.1883 97.3372 10.0907 97.4834 9.94807 97.5857C8.624 98.3091 4.99662 93.0456 4.36225 92.2322C2.77365 90.204 1.32879 88.0841 0.0366483 85.8854ZM11.9789 77.6538C11.7873 77.3292 12.2471 77.1063 13.7159 78.4711C23.6444 87.7038 22.5928 88.1809 21.4816 88.3256C20.7876 88.4233 19.7786 86.8904 19.4295 86.5189C17.7776 84.6614 12.6601 78.8152 11.9789 77.6538Z" fill="#08E1FE"/>
<path d="M0.0366487 85.8858C0.00178857 85.8258 -0.00863892 85.7564 0.00724272 85.69C0.0231244 85.6236 0.0642727 85.5646 0.123286 85.5236C0.1823 85.4826 0.255308 85.4623 0.329177 85.4663C0.403046 85.4703 0.47293 85.4984 0.52626 85.5456C3.5065 88.2829 9.99491 96.4441 10.1354 96.6983C10.2261 96.8421 10.2571 97.0112 10.2227 97.1744C10.1883 97.3376 10.0907 97.4838 9.94808 97.586C8.624 98.3094 4.99662 93.0459 4.36225 92.2325C2.77365 90.2044 1.32879 88.0844 0.0366487 85.8858Z" fill="url(#paint16_linear_403_2085)"/>
<path d="M11.9787 77.6538C11.7871 77.3292 12.2469 77.1064 13.7157 78.4711C23.6442 87.7038 22.5926 88.1809 21.4814 88.3256C20.7874 88.4233 19.7784 86.8904 19.4293 86.5189C17.7774 84.6614 12.6599 78.8152 11.9787 77.6538Z" fill="url(#paint17_linear_403_2085)"/>
<path d="M31.658 92.0209C30.666 93.4522 29.1248 94.4728 27.6347 95.4778C25.6239 96.8009 23.6977 98.2293 21.8658 99.7559C20.9892 100.58 20.0235 101.321 18.9835 101.965C18.0954 102.452 17.1078 102.764 16.0822 102.884C15.0567 103.004 14.0152 102.928 13.023 102.661C11.4562 102.231 9.336 101.035 8.72292 99.533C8.69351 99.4589 8.66934 99.3832 8.65055 99.3062C8.2844 97.742 10.7069 96.518 11.9458 95.7203C14.9795 93.7764 17.757 91.5153 20.2224 88.9825C20.671 88.4539 21.2297 88.0125 21.8658 87.6842C22.417 87.4754 23.0031 87.355 23.5986 87.3283L30.3169 86.6714C30.667 86.6062 31.0301 86.6333 31.3642 86.7496C31.5324 86.8335 31.6779 86.9511 31.79 87.0937C31.8264 87.1351 31.8605 87.1782 31.8922 87.2227C32.9608 88.6188 32.6457 90.5897 31.658 92.0209Z" fill="#08E1FE"/>
<path d="M31.658 92.0209C30.666 93.4522 29.1248 94.4728 27.6347 95.4778C25.6239 96.8009 23.6977 98.2293 21.8658 99.7559C20.9892 100.58 20.0235 101.321 18.9835 101.965C18.0954 102.452 17.1078 102.764 16.0822 102.884C15.0567 103.004 14.0152 102.928 13.023 102.661C11.4562 102.231 9.336 101.035 8.72293 99.533C8.69352 99.4589 8.66934 99.3832 8.65055 99.3062C8.2844 97.742 10.7069 96.518 11.9458 95.7203C14.9795 93.7764 17.757 91.5153 20.2224 88.9825C20.671 88.4539 21.2297 88.0125 21.8658 87.6842C22.417 87.4754 23.0031 87.355 23.5986 87.3283L30.3169 86.6714C30.667 86.6062 31.0301 86.6333 31.3642 86.7496C31.5324 86.8335 31.6779 86.9511 31.79 87.0937C31.8264 87.1351 31.8605 87.1782 31.8922 87.2227C32.9608 88.6188 32.6457 90.5897 31.658 92.0209Z" fill="url(#paint18_linear_403_2085)"/>
<path d="M31.8056 87.0937C31.631 87.2267 31.482 87.3401 31.3799 87.4378C29.0382 89.4987 26.6498 91.5204 24.3593 93.6282C23.2371 94.6752 22.0177 95.6304 20.7149 96.4828C17.2152 98.6297 12.9237 99.1302 8.66617 99.3179C8.30003 97.7537 10.7225 96.5297 11.9615 95.732C14.9951 93.7881 17.7726 91.527 20.238 88.9942C20.6804 88.463 21.2332 88.0177 21.8644 87.6842C22.4156 87.4754 23.0017 87.355 23.5972 87.3283L30.3155 86.6714C30.6656 86.6062 31.0287 86.6333 31.3628 86.7496C31.5372 86.8316 31.6887 86.9493 31.8056 87.0937Z" fill="#08E1FE"/>
<path d="M82.824 25.8977C82.279 26.3475 81.2657 26.8832 80.427 27.4619C79.9444 27.7583 79.5294 28.1382 79.2051 28.5803C78.724 29.3898 78.8177 30.7741 78.6985 31.1652C77.732 34.2936 75.748 35.3494 74.2366 35.2165C74.0601 35.2037 73.8858 35.1722 73.7172 35.1226C71.2564 34.3953 70.3325 31.7048 69.7577 29.3898C69.183 27.0748 68.604 24.6972 68.0249 22.3509C67.4928 20.1962 66.9563 18.0259 66.901 15.8165C66.8456 13.607 67.2969 11.335 68.604 9.48144C69.1367 8.70101 69.8451 8.03433 70.6816 7.52618C72.0525 6.72453 73.73 6.50163 75.3648 6.40387C78.2599 6.2318 81.8107 6.70107 83.4541 9.22725C84.7781 11.2529 84.6802 14.9522 84.7739 17.2164C84.8675 19.4806 84.6972 24.3375 82.824 25.8977Z" fill="url(#paint19_linear_403_2085)"/>
<path d="M83.4621 4.52357C82.9512 6.40843 81.0737 7.79666 79.0386 8.3324C77.5527 8.72345 75.9775 8.72345 74.4618 9.01674C72.9461 9.31003 71.3922 9.9709 70.6812 11.2301C70.1447 12.1803 70.1703 13.3027 70.2086 14.3585L70.4257 20.1499L69.191 18.6874C69.0925 18.5412 68.9422 18.4307 68.7653 18.3746C68.3608 18.2768 68.0713 18.7343 68.0075 19.1137C67.9177 19.7173 68.0064 20.332 68.264 20.8934C68.5217 21.4547 68.9389 21.9422 69.472 22.3046C69.7685 22.4526 70.0213 22.6647 70.2086 22.9225C70.3299 23.2415 70.3299 23.5889 70.2086 23.9079L69.5998 26.4107C67.8968 25.699 66.8239 24.0996 66.1086 22.5002C64.9634 19.9662 64.4056 17.2366 64.0735 14.511C63.8947 13.0837 63.7713 11.6172 64.1502 10.2094C64.5291 8.80166 65.4955 7.47209 66.9431 6.94808C66.1725 5.35259 67.2283 3.40516 68.8249 2.46273C70.4215 1.5203 72.4054 1.3365 74.3043 1.24265C75.5815 1.18399 77.0674 1.24265 78.285 0.871153C79.2515 0.570044 79.7879 -0.122116 80.8395 0.0186626C82.9172 0.327593 83.9007 2.93199 83.4621 4.52357Z" fill="#33233A"/>
<path d="M81.9165 54.1876C84.2496 54.7702 88.507 56.3266 90.5336 57.5389C92.3899 58.6494 92.4452 43.8521 92.4367 40.9779C92.4367 39.441 92.343 37.8495 91.615 36.4769C90.3378 34.0719 85.4842 31.5105 84.0878 34.9127C82.4997 38.7723 81.3545 54.0468 81.9165 54.1876Z" fill="#08E1FE"/>
<path d="M81.9165 54.1876C84.2496 54.7702 88.507 56.3266 90.5336 57.5389C92.3899 58.6494 92.4452 43.8521 92.4367 40.9779C92.4367 39.441 92.343 37.8495 91.615 36.4769C90.3378 34.0719 85.4842 31.5105 84.0878 34.9127C82.4997 38.7723 81.3545 54.0468 81.9165 54.1876Z" fill="url(#paint20_linear_403_2085)"/>
<path d="M94.1481 65.2886C94.1481 65.2886 98.1586 68.5813 93.7479 71.0371C89.3371 73.4929 91.9725 79.7184 91.9725 79.7184H94.9102C94.9102 79.7184 92.99 75.976 94.791 73.4968C96.5919 71.0175 97.6052 70.9667 97.6052 68.4327C97.6052 65.8986 95.3317 63.9121 95.3317 63.9121L94.1481 65.2886Z" fill="#EF55FF"/>
<path d="M80.4266 27.4463C79.944 27.7427 79.529 28.1225 79.2047 28.5647C78.7236 29.3742 78.8173 30.7585 78.6981 31.1496C77.7316 34.278 75.7476 35.3338 74.2362 35.2009L73.7168 35.107C73.7168 35.107 73.9893 27.2195 76.548 27.8413C79.1068 28.4631 80.4223 27.4033 80.4223 27.4033L80.4266 27.4463Z" fill="url(#paint21_linear_403_2085)"/>
<path d="M100.066 84.7709C99.8192 86.9608 99.0741 89.0725 98.576 91.2271C97.3243 96.6667 97.6692 102.286 97.5457 107.843C97.5643 108.1 97.5069 108.356 97.3796 108.586L94.3994 107.229C94.3994 107.229 93.7693 96.8426 95.3956 92.979C97.022 89.1155 96.4089 82.3151 96.4089 82.3151L95.5191 73.6494L96.7964 73.7746C99.3274 76.9433 100.492 80.8603 100.066 84.7709Z" fill="url(#paint22_linear_403_2085)"/>
<path d="M79.0048 105.45L78.1533 107.69C78.0141 108.189 77.7486 108.65 77.3785 109.036C77.1514 109.234 76.8753 109.379 76.5738 109.458L71.0391 104.996L76.842 94.1992L79.0048 105.45Z" fill="url(#paint23_linear_403_2085)"/>
<path d="M72.2305 105.614C72.0985 106.216 70.6254 108.015 70.3572 108.57C69.5312 110.283 68.1986 111.824 67.2492 113.506C66.3048 115.321 65.5905 117.23 65.1205 119.195C63.8716 123.695 62.7732 128.225 61.8252 132.784C62.6767 126.207 63.7155 118.272 64.0263 116.208C64.5883 112.524 68.1433 108.989 68.1433 108.989C68.1433 108.989 69.3822 105.907 67.2577 104.253C65.1332 102.599 60.5352 102.775 60.5352 102.775C60.6842 102.544 60.8332 102.333 60.9864 102.138C63.6667 102.146 66.3096 102.715 68.7138 103.804C69.1693 104.023 69.6121 104.245 70.0421 104.468C70.3998 104.664 72.2305 105.614 72.2305 105.614Z" fill="url(#paint24_linear_403_2085)"/>
<path d="M96.7322 111.3L93.2709 108.586C91.1421 108.257 83.8576 109.802 83.8576 109.802C83.8039 109.427 83.7882 109.049 83.8107 108.672C86.9528 107.847 91.9 106.822 95.5486 107.342L95.6551 107.69L96.7322 111.3Z" fill="url(#paint25_linear_403_2085)"/>
<path d="M174.135 53.1582C174.156 53.2256 174.208 53.2455 174.135 53.1582V53.1582Z" fill="#08E1FE"/>
<path d="M174.133 53.1581C174.154 53.2246 174.206 53.2442 174.133 53.1581V53.1581ZM183.977 32.3425C184.228 29.1633 182.052 26.6058 179.2 24.7874C169.833 18.8121 152.348 10.3381 151.309 10.0057C150.457 9.72803 149.67 10.3967 148.997 11.6403C146.323 16.591 145.165 30.8409 145.617 33.7268C145.194 33.9372 144.81 34.2077 144.48 34.5285C144.48 34.5285 129.902 42.3729 125.772 45.3449L125.585 45.4818C124.593 46.217 124.252 47.5192 126.343 48.9191C134.888 54.6441 146.523 63.1182 155.068 68.8627C155.482 69.1982 155.992 69.418 156.537 69.4962C157.214 69.5353 157.814 69.1404 158.359 68.761L178.982 54.4017C179.332 54.1592 179.715 53.8386 179.659 53.4397C179.63 53.1229 183.334 40.492 183.977 32.3425Z" fill="#08E1FE"/>
<path d="M181.66 31.8225C181.895 28.8192 179.842 26.4025 177.147 24.6858C168.322 19.043 151.781 11.0382 150.802 10.7214C150.142 10.5102 149.525 10.8739 148.997 11.6404C146.323 16.5911 145.165 30.841 145.617 33.7269C145.194 33.9373 144.81 34.2078 144.48 34.5286C144.48 34.5286 129.902 42.373 125.772 45.345C125.691 45.9668 126.062 46.7098 127.216 47.4802C135.305 52.8884 146.281 60.8932 154.349 66.3014C154.74 66.6175 155.222 66.825 155.737 66.8997C156.379 66.9349 156.95 66.5634 157.44 66.2037L176.918 52.642C177.25 52.4113 177.612 52.1102 177.56 51.7309C177.521 51.5954 177.451 51.4689 177.356 51.3592C177.261 51.2495 177.142 51.1591 177.007 51.0935C177.084 51.0624 177.158 51.0258 177.228 50.984C178.05 50.4952 181.052 39.5223 181.66 31.8225ZM172.362 51.4845C172.362 51.5471 172.43 51.5666 172.362 51.4845V51.4845Z" fill="url(#paint26_linear_403_2085)"/>
<path d="M174.135 53.1582C174.156 53.2256 174.208 53.2455 174.135 53.1582V53.1582Z" fill="#08E1FE"/>
<path d="M145.617 33.7275L177.595 51.7315L176.952 52.6427L144.812 34.2515L145.617 33.7275Z" fill="url(#paint27_linear_403_2085)"/>
<path d="M150.671 13.1621L178.882 28.9449C178.882 28.9449 177.758 43.0227 175.603 49.0566L147.078 32.6873L150.671 13.1621Z" fill="#08E1FE"/>
<path d="M150.671 13.1621L178.882 28.9449C178.882 28.9449 177.758 43.0227 175.603 49.0566L147.078 32.6873L150.671 13.1621Z" fill="url(#paint28_linear_403_2085)"/>
<path d="M135.965 41.7909L145.433 36.5039L172.362 51.4851L161.769 58.2268L135.965 41.7909Z" fill="url(#paint29_linear_403_2085)"/>
<path d="M141.718 47.7344L151.71 53.9755L145.554 57.8665L136.285 51.5393L141.718 47.7344Z" fill="url(#paint30_linear_403_2085)"/>
<path d="M9.57812 98.4181C9.57812 98.4181 16.1219 98.0623 18.5188 96.8148C19.9108 96.0983 21.2165 95.249 22.4144 94.2808L24.0834 87.8872C23.4424 87.8051 22.7895 87.8545 22.1718 88.0318C21.4821 88.3251 18.5827 91.2619 15.6748 93.6121C13.2608 95.5596 9.6207 97.2059 9.57812 98.4181Z" fill="url(#paint31_linear_403_2085)"/>
<path d="M62.6226 151.018C62.3254 151.458 61.8754 151.793 61.3454 151.968C56.2109 154.209 50.3313 154.381 44.6475 154.51C44.2998 154.54 43.9492 154.504 43.6172 154.405C42.8083 154.103 42.6252 153.231 42.7657 152.406C43.4341 152.406 53.716 152.504 57.3476 151.084C61.1027 149.618 62.4566 148.809 62.4566 148.809L62.6099 149.2C62.6397 149.337 62.6652 149.473 62.6907 149.61C62.8256 150.075 62.8018 150.566 62.6226 151.018Z" fill="#08E1FE"/>
<path d="M62.6226 151.018C62.3254 151.458 61.8754 151.793 61.3454 151.968C56.2108 154.209 50.3313 154.381 44.6475 154.51C44.2998 154.54 43.9492 154.504 43.6172 154.405C42.8083 154.103 42.6252 153.231 42.7657 152.406C43.4341 152.406 53.716 152.504 57.3476 151.084C61.1027 149.618 62.4566 148.809 62.4566 148.809L62.6098 149.2C62.6397 149.337 62.6652 149.473 62.6907 149.61C62.8256 150.075 62.8018 150.566 62.6226 151.018Z" fill="url(#paint32_linear_403_2085)"/>
<defs>
<linearGradient id="paint0_linear_403_2085" x1="124.871" y1="97.7729" x2="131.272" y2="121.577" gradientUnits="userSpaceOnUse">
<stop stop-opacity="0"/>
<stop offset="0.97"/>
</linearGradient>
<linearGradient id="paint1_linear_403_2085" x1="59.9944" y1="63.7826" x2="68.535" y2="63.7826" gradientUnits="userSpaceOnUse">
<stop stop-color="#AD59D4"/>
<stop offset="0.42" stop-color="#D8A353"/>
<stop offset="1" stop-color="#F2E2C9"/>
</linearGradient>
<linearGradient id="paint2_linear_403_2085" x1="66.5224" y1="92.897" x2="100.982" y2="89.2507" gradientUnits="userSpaceOnUse">
<stop stop-opacity="0"/>
<stop offset="0.97"/>
</linearGradient>
<linearGradient id="paint3_linear_403_2085" x1="57.1415" y1="105.845" x2="77.3986" y2="105.845" gradientUnits="userSpaceOnUse">
<stop stop-opacity="0"/>
<stop offset="0.97"/>
</linearGradient>
<linearGradient id="paint4_linear_403_2085" x1="75.9811" y1="102.927" x2="128.931" y2="43.3706" gradientUnits="userSpaceOnUse">
<stop stop-opacity="0"/>
<stop offset="0.97"/>
</linearGradient>
<linearGradient id="paint5_linear_403_2085" x1="96.3576" y1="76.4298" x2="86.7692" y2="83.8807" gradientUnits="userSpaceOnUse">
<stop stop-opacity="0"/>
<stop offset="0.97"/>
</linearGradient>
<linearGradient id="paint6_linear_403_2085" x1="88.8566" y1="107.061" x2="89.5706" y2="111.886" gradientUnits="userSpaceOnUse">
<stop stop-opacity="0"/>
<stop offset="0.97"/>
</linearGradient>
<linearGradient id="paint7_linear_403_2085" x1="94.0893" y1="51.7392" x2="65.521" y2="54.5209" gradientUnits="userSpaceOnUse">
<stop stop-color="white" stop-opacity="0"/>
<stop offset="0.84" stop-color="white" stop-opacity="0.84"/>
<stop offset="0.97" stop-color="white"/>
</linearGradient>
<linearGradient id="paint8_linear_403_2085" x1="94.5316" y1="31.8506" x2="6.07065" y2="208.475" gradientUnits="userSpaceOnUse">
<stop stop-opacity="0"/>
<stop offset="0.97"/>
</linearGradient>
<linearGradient id="paint9_linear_403_2085" x1="71.5374" y1="53.3498" x2="90.5428" y2="53.3498" gradientUnits="userSpaceOnUse">
<stop stop-color="#AD59D4"/>
<stop offset="0.42" stop-color="#D8A353"/>
<stop offset="1" stop-color="#F2E2C9"/>
</linearGradient>
<linearGradient id="paint10_linear_403_2085" x1="56.5129" y1="56.2712" x2="66.3519" y2="56.2712" gradientUnits="userSpaceOnUse">
<stop stop-color="#AD59D4"/>
<stop offset="0.42" stop-color="#D8A353"/>
<stop offset="1" stop-color="#F2E2C9"/>
</linearGradient>
<linearGradient id="paint11_linear_403_2085" x1="83.7946" y1="116.208" x2="122.078" y2="116.208" gradientUnits="userSpaceOnUse">
<stop stop-color="#EF55FF"/>
<stop offset="0.42" stop-color="#D8A353"/>
<stop offset="1" stop-color="#F2E2C9"/>
</linearGradient>
<linearGradient id="paint12_linear_403_2085" x1="52.6812" y1="123.329" x2="72.2316" y2="123.329" gradientUnits="userSpaceOnUse">
<stop stop-color="#EF55FF"/>
<stop offset="0.42" stop-color="#D8A353"/>
<stop offset="1" stop-color="#F2E2C9"/>
</linearGradient>
<linearGradient id="paint13_linear_403_2085" x1="125.245" y1="114.749" x2="119.756" y2="82.8697" gradientUnits="userSpaceOnUse">
<stop stop-opacity="0"/>
<stop offset="0.97"/>
</linearGradient>
<linearGradient id="paint14_linear_403_2085" x1="50.5995" y1="147.308" x2="64.1946" y2="158.438" gradientUnits="userSpaceOnUse">
<stop stop-opacity="0"/>
<stop offset="0.97"/>
</linearGradient>
<linearGradient id="paint15_linear_403_2085" x1="54.0301" y1="15.535" x2="8.33315" y2="39.9343" gradientUnits="userSpaceOnUse">
<stop stop-color="white" stop-opacity="0"/>
<stop offset="0.84" stop-color="white" stop-opacity="0.84"/>
<stop offset="0.97" stop-color="white"/>
</linearGradient>
<linearGradient id="paint16_linear_403_2085" x1="4.63899" y1="91.8219" x2="6.32606" y2="90.4726" gradientUnits="userSpaceOnUse">
<stop stop-opacity="0"/>
<stop offset="0.97"/>
</linearGradient>
<linearGradient id="paint17_linear_403_2085" x1="16.7769" y1="82.9526" x2="18.1999" y2="81.7721" gradientUnits="userSpaceOnUse">
<stop stop-opacity="0"/>
<stop offset="0.97"/>
</linearGradient>
<linearGradient id="paint18_linear_403_2085" x1="17.025" y1="90.0031" x2="28.508" y2="104.512" gradientUnits="userSpaceOnUse">
<stop stop-opacity="0"/>
<stop offset="0.97"/>
</linearGradient>
<linearGradient id="paint19_linear_403_2085" x1="71.0733" y1="13.8495" x2="83.1137" y2="30.592" gradientUnits="userSpaceOnUse">
<stop stop-color="#EF55FF"/>
<stop offset="0.42" stop-color="#D8A353"/>
<stop offset="1" stop-color="#F2E2C9"/>
</linearGradient>
<linearGradient id="paint20_linear_403_2085" x1="90.6698" y1="45.5219" x2="83.1202" y2="45.1327" gradientUnits="userSpaceOnUse">
<stop stop-color="white" stop-opacity="0"/>
<stop offset="0.84" stop-color="white" stop-opacity="0.84"/>
<stop offset="0.97" stop-color="white"/>
</linearGradient>
<linearGradient id="paint21_linear_403_2085" x1="79.3409" y1="33.4607" x2="114.572" y2="74.0385" gradientUnits="userSpaceOnUse">
<stop stop-color="#EF55FF"/>
<stop offset="0.42" stop-color="#D8A353"/>
<stop offset="1" stop-color="#F2E2C9"/>
</linearGradient>
<linearGradient id="paint22_linear_403_2085" x1="102.57" y1="87.1016" x2="69.2047" y2="113.031" gradientUnits="userSpaceOnUse">
<stop stop-opacity="0"/>
<stop offset="0.97"/>
</linearGradient>
<linearGradient id="paint23_linear_403_2085" x1="70.1705" y1="99.3024" x2="107.264" y2="116.234" gradientUnits="userSpaceOnUse">
<stop stop-opacity="0"/>
<stop offset="0.97"/>
</linearGradient>
<linearGradient id="paint24_linear_403_2085" x1="49.9255" y1="112.348" x2="116.349" y2="142.671" gradientUnits="userSpaceOnUse">
<stop stop-opacity="0"/>
<stop offset="0.97"/>
</linearGradient>
<linearGradient id="paint25_linear_403_2085" x1="84.3216" y1="114.905" x2="127.488" y2="72.5526" gradientUnits="userSpaceOnUse">
<stop stop-opacity="0"/>
<stop offset="0.97"/>
</linearGradient>
<linearGradient id="paint26_linear_403_2085" x1="200.402" y1="30.0667" x2="85.4288" y2="55.2084" gradientUnits="userSpaceOnUse">
<stop stop-color="white" stop-opacity="0"/>
<stop offset="0.84" stop-color="white" stop-opacity="0.84"/>
<stop offset="0.97" stop-color="white"/>
</linearGradient>
<linearGradient id="paint27_linear_403_2085" x1="184.041" y1="38.9872" x2="127.77" y2="51.2934" gradientUnits="userSpaceOnUse">
<stop stop-color="white" stop-opacity="0"/>
<stop offset="0.84" stop-color="white" stop-opacity="0.84"/>
<stop offset="0.97" stop-color="white"/>
</linearGradient>
<linearGradient id="paint28_linear_403_2085" x1="182.381" y1="18.1793" x2="69.1072" y2="108.406" gradientUnits="userSpaceOnUse">
<stop stop-opacity="0"/>
<stop offset="0.97"/>
</linearGradient>
<linearGradient id="paint29_linear_403_2085" x1="169.982" y1="36.0073" x2="76.6199" y2="110.376" gradientUnits="userSpaceOnUse">
<stop stop-opacity="0"/>
<stop offset="0.97"/>
</linearGradient>
<linearGradient id="paint30_linear_403_2085" x1="155.712" y1="50.5734" x2="126.778" y2="56.9014" gradientUnits="userSpaceOnUse">
<stop stop-color="white" stop-opacity="0"/>
<stop offset="0.84" stop-color="white" stop-opacity="0.84"/>
<stop offset="0.97" stop-color="white"/>
</linearGradient>
<linearGradient id="paint31_linear_403_2085" x1="18.621" y1="85.8107" x2="14.6799" y2="104.889" gradientUnits="userSpaceOnUse">
<stop stop-color="white" stop-opacity="0"/>
<stop offset="0.84" stop-color="white" stop-opacity="0.84"/>
<stop offset="0.97" stop-color="white"/>
</linearGradient>
<linearGradient id="paint32_linear_403_2085" x1="51.6042" y1="146.494" x2="53.7083" y2="157.503" gradientUnits="userSpaceOnUse">
<stop stop-opacity="0"/>
<stop offset="0.97"/>
</linearGradient>
</defs>
</svg>
