<svg width="201" height="153" viewBox="0 0 201 153" fill="none" xmlns="http://www.w3.org/2000/svg">
<path opacity="0.18" d="M148.745 26.5234C142.61 20.0851 137.86 12.3989 130.527 7.14207C119.009 -1.12593 102.431 -1.93231 88.9623 3.26326C75.4937 8.45883 64.9933 18.9316 58.0778 30.7901C54.4402 37.0294 51.5827 43.8352 46.2523 48.9338C41.7461 53.2413 35.8237 55.9896 30.2083 58.9829C21.1629 63.7983 12.4438 69.6114 6.58505 77.5911C0.726247 85.5707 -1.89334 96.0511 1.85209 105.044C4.37762 111.112 9.46466 115.94 14.6762 120.312C20.8088 125.451 27.4007 130.277 35.0077 133.326C44.5262 137.136 55.1041 137.955 65.4718 138.343C83.8518 139.027 102.261 138.516 120.563 136.812C135.551 135.419 150.991 133.04 163.531 125.341C181.096 114.56 190.152 94.8058 192.191 75.4347C193.021 67.6873 192.811 59.6362 189.569 52.4477C181.815 35.2533 160.894 39.275 148.745 26.5234Z" fill="#08E1FE"/>
<path d="M74.3679 61.0448C74.3679 61.0448 67.4164 59.9169 65.469 64.3622C63.5216 68.8075 65.469 84.1595 65.469 84.1595L91.4049 101.099L74.3679 61.0448Z" fill="#4E3D56"/>
<path d="M107.036 129.416L96.9756 132.164C96.2736 132.354 95.5184 132.28 94.8756 131.958C94.2327 131.635 93.7545 131.091 93.5456 130.444C93.3395 129.797 93.42 129.1 93.7694 128.507C94.1188 127.914 94.7087 127.473 95.41 127.28L105.468 124.534C106.17 124.344 106.924 124.418 107.567 124.74C108.21 125.062 108.688 125.605 108.898 126.252C109.104 126.899 109.024 127.595 108.675 128.188C108.326 128.781 107.737 129.223 107.036 129.416Z" fill="#08E1FE"/>
<path d="M110.996 136.271C111.581 133.971 110.034 131.67 107.541 131.13C105.048 130.591 102.554 132.018 101.969 134.318C101.384 136.617 102.931 138.919 105.424 139.458C107.917 139.997 110.411 138.57 110.996 136.271Z" fill="#33233A"/>
<path d="M105.646 137.822C106.926 137.822 107.964 136.864 107.964 135.683C107.964 134.502 106.926 133.545 105.646 133.545C104.366 133.545 103.328 134.502 103.328 135.683C103.328 136.864 104.366 137.822 105.646 137.822Z" fill="#4E3D56"/>
<path d="M91.1746 134.093C92.9851 132.422 92.9851 129.714 91.1746 128.044C89.3641 126.374 86.4286 126.374 84.6181 128.044C82.8076 129.714 82.8076 132.422 84.6181 134.093C86.4286 135.763 89.3641 135.763 91.1746 134.093Z" fill="#33233A"/>
<path d="M89.3803 131.453C89.3803 131.876 89.2443 132.289 88.9896 132.641C88.7349 132.993 88.3729 133.267 87.9493 133.429C87.5257 133.59 87.0596 133.633 86.61 133.55C86.1603 133.468 85.7473 133.264 85.4231 132.965C85.0989 132.666 84.8781 132.285 84.7887 131.87C84.6992 131.455 84.7451 131.025 84.9206 130.635C85.096 130.244 85.3932 129.91 85.7744 129.675C86.1556 129.44 86.6037 129.314 87.0622 129.314C87.6768 129.315 88.266 129.541 88.7005 129.942C89.1351 130.342 89.3795 130.886 89.3803 131.453Z" fill="url(#paint0_linear_403_2080)"/>
<path d="M86.5541 141.192C89.1146 141.192 91.1903 139.278 91.1903 136.916C91.1903 134.553 89.1146 132.639 86.5541 132.639C83.9936 132.639 81.918 134.553 81.918 136.916C81.918 139.278 83.9936 141.192 86.5541 141.192Z" fill="#33233A"/>
<path d="M90.2162 137.059C90.2162 137.482 90.0803 137.896 89.8256 138.247C89.5708 138.599 89.2088 138.873 88.7852 139.035C88.3617 139.197 87.8956 139.239 87.4459 139.157C86.9963 139.074 86.5832 138.871 86.259 138.571C85.9348 138.272 85.7141 137.891 85.6246 137.477C85.5352 137.062 85.5811 136.632 85.7565 136.241C85.932 135.85 86.2291 135.516 86.6103 135.281C86.9915 135.046 87.4397 134.921 87.8982 134.921C88.5129 134.921 89.1026 135.146 89.5373 135.547C89.972 135.948 90.2162 136.492 90.2162 137.059Z" fill="#4E3D56"/>
<path d="M107.412 133.611L86.2095 129.664C85.4928 129.528 84.8634 129.137 84.459 128.574C84.0547 128.012 83.9083 127.324 84.0519 126.663C84.1986 126.002 84.6229 125.422 85.2319 125.049C85.8409 124.676 86.5852 124.54 87.3022 124.672L108.505 128.617C109.222 128.753 109.851 129.144 110.256 129.707C110.66 130.269 110.806 130.957 110.663 131.618C110.517 132.279 110.093 132.86 109.483 133.234C108.874 133.607 108.13 133.743 107.412 133.611Z" fill="#08E1FE"/>
<path d="M94.3418 102.882H100.131V125.376C100.131 126.084 99.8266 126.763 99.284 127.264C98.7413 127.764 98.0054 128.046 97.238 128.046C96.4706 128.046 95.7347 127.764 95.192 127.264C94.6494 126.763 94.3446 126.084 94.3446 125.376V102.882H94.3418Z" fill="#08E1FE"/>
<path d="M96.4191 132.134L86.3612 134.888C85.6588 135.079 84.9029 135.005 84.2594 134.682C83.6159 134.36 83.1373 133.815 82.9284 133.168C82.7223 132.52 82.8028 131.824 83.1522 131.231C83.5017 130.637 84.0916 130.196 84.7928 130.004L94.8507 127.258C95.5524 127.068 96.3072 127.141 96.95 127.463C97.5928 127.785 98.0713 128.329 98.2808 128.975C98.4853 129.622 98.4043 130.317 98.0556 130.909C97.7068 131.5 97.1186 131.941 96.4191 132.134Z" fill="#08E1FE"/>
<path d="M98.0854 131.861L96.9789 132.164C96.649 132.255 96.3037 132.287 95.9609 132.259L96.4229 132.134C96.7441 132.047 97.0451 131.906 97.3108 131.718L98.0854 131.861Z" fill="url(#paint1_linear_403_2080)"/>
<path d="M109.015 126.977C109.015 127.563 108.794 128.131 108.39 128.584L99.5938 126.943C99.815 126.665 99.9748 126.35 100.064 126.015L105.483 124.534C105.894 124.425 106.327 124.405 106.748 124.476C107.169 124.547 107.566 124.708 107.908 124.944C108.25 125.181 108.529 125.488 108.721 125.84C108.913 126.193 109.014 126.582 109.015 126.977Z" fill="url(#paint2_linear_403_2080)"/>
<path opacity="0.31" d="M94.4165 125.984C94.3663 125.785 94.3413 125.581 94.3418 125.376V102.882H96.3528V127.124C96.3334 127.244 96.34 127.365 96.3722 127.482C96.0677 127.361 95.741 127.294 95.4096 127.285C95.1756 127.27 94.9409 127.27 94.7069 127.285L94.8508 127.247C94.9393 127.232 94.5327 126.443 94.4165 125.984Z" fill="url(#paint3_linear_403_2080)"/>
<path opacity="0.31" d="M109.275 133.336C108.871 133.541 108.417 133.649 107.955 133.65C107.77 133.649 107.584 133.632 107.402 133.598L98.0746 131.861L97.2973 131.718C97.0316 131.906 96.7306 132.047 96.4093 132.134L95.9474 132.259L86.3625 134.887C85.6601 135.078 84.9043 135.004 84.2607 134.682C83.6172 134.359 83.1386 133.815 82.9297 133.167C83.3329 133.512 83.8536 133.716 84.4023 133.745C84.951 133.774 85.4935 133.625 85.9365 133.325C87.1066 132.578 91.7649 131.455 94.4039 130.858C95.0141 130.723 95.5689 130.428 96.0009 130.008C96.433 129.588 96.7238 129.061 96.8381 128.492C96.8381 128.421 96.863 128.354 96.8713 128.288C97.3111 128.727 98.1189 129.22 99.5794 129.638C103.175 130.659 109.015 131.335 109.015 131.335C109.015 131.335 110.069 132.289 109.275 133.336Z" fill="url(#paint4_linear_403_2080)"/>
<path d="M110.277 132.479C110.095 132.742 109.862 132.972 109.588 133.155C109.773 132.979 110.011 132.744 110.277 132.479Z" fill="url(#paint5_linear_403_2080)"/>
<path d="M94.4171 125.984C94.5311 126.436 94.7714 126.853 95.1142 127.193C95.0284 127.209 94.9399 127.229 94.8514 127.252L86.1323 129.633C85.4839 129.481 84.9172 129.118 84.537 128.61C84.1568 128.102 83.989 127.484 84.0646 126.871C84.1402 126.258 84.4542 125.691 84.9483 125.275C85.4423 124.859 86.0831 124.622 86.7519 124.608C86.9377 124.609 87.123 124.626 87.3052 124.659L94.4171 125.984Z" fill="url(#paint6_linear_403_2080)"/>
<path d="M107.849 17.6301C107.849 17.6301 107.736 9.69896 100.845 10.3829C93.9547 11.0667 94.483 8.44089 91.5398 8.72925C88.5966 9.01761 85.1776 11.6971 86.1596 15.0068C87.1416 18.3166 83.5621 19.0566 81.2108 21.5676C78.8596 24.0786 81.7641 26.1329 85.7253 28.5878C89.6864 31.0426 85.4791 30.4072 87.8276 34.2886C90.1761 38.17 98.1261 33.2117 98.1261 33.2117L107.849 17.6301Z" fill="#4E3D56"/>
<path d="M51.6434 150.328L56.5313 150.481V114.472C56.5313 114.472 56.7775 105.16 66.3042 104.226C75.831 103.292 162.23 91.7554 162.23 91.7554C162.23 91.7554 165.655 91.4211 167.622 97.4715C169.588 103.522 171.514 127.351 171.514 127.351L198.039 130.643C198.039 130.643 198.739 88.5732 189.162 86.2536C179.585 83.9339 54.346 95.7643 54.346 95.7643C54.346 95.7643 45.0571 140.455 51.6434 150.328Z" fill="#08E1FE"/>
<path d="M51.6434 150.328L56.5313 150.481V114.472C56.5313 114.472 56.7775 105.16 66.3042 104.226C75.831 103.292 162.23 91.7554 162.23 91.7554C162.23 91.7554 165.655 91.4211 167.622 97.4715C169.588 103.522 171.514 127.351 171.514 127.351L198.039 130.643C198.039 130.643 198.739 88.5732 189.162 86.2536C179.585 83.9339 54.346 95.7643 54.346 95.7643C54.346 95.7643 45.0571 140.455 51.6434 150.328Z" fill="url(#paint7_linear_403_2080)"/>
<path d="M25.8516 100.182C25.8516 100.182 28.2471 87.9536 45.096 84.7484L164.017 72.178C164.017 72.178 175.694 71.7314 181.035 74.7145C186.377 77.6977 194 80.1704 197.126 93.6697C200.252 107.169 200.999 130.23 200.999 130.23L198.044 130.643C198.044 130.643 193.74 88.8952 189.168 86.254C184.595 83.6129 60.9656 99.8299 60.9656 99.8299C60.9656 99.8299 52.3904 101.404 51.6436 113.128C50.8967 124.851 51.6436 150.328 51.6436 150.328L25.8516 140.721V100.182Z" fill="#08E1FE"/>
<path opacity="0.19" d="M148.215 76.8831C142.06 76.143 135.855 75.6071 129.654 75.824C124.993 75.9925 120.362 76.5896 115.74 77.1842L74.9742 82.4436C74.2827 82.5329 73.4943 82.6783 73.1485 83.2397C72.4846 84.3115 74.0448 85.368 75.3089 85.7763C88.8633 90.1604 103.344 94.6006 117.297 91.4746C123.676 90.0455 129.601 87.0777 136.071 86.0468C142.541 85.0158 149.183 85.9651 155.639 84.9929C161.708 84.0793 167.487 81.4841 173.639 81.4585C175.525 81.4585 177.467 81.6831 179.257 81.1319C181.047 80.5807 182.629 78.8965 182.134 77.2174C176.358 77.0311 169.874 76.0461 164.209 77.1153C158.602 78.1718 153.83 76.8831 148.215 76.8831Z" fill="url(#paint8_linear_403_2080)"/>
<path d="M111.35 83.2944L111.587 84.134C111.587 84.134 118.63 88.1736 118.586 88.3037C118.542 88.4338 147.8 81.8552 147.8 81.8552L148.48 79.9668L111.35 83.2944Z" fill="url(#paint9_linear_403_2080)"/>
<path d="M112.008 83.2936L137.747 77.9424L148.477 79.966L119.236 86.7514L112.008 83.2936Z" fill="url(#paint10_linear_403_2080)"/>
<path d="M103.906 87.5333L110.016 87.7221C110.016 87.7221 111.568 87.8063 111.969 86.7192C112.37 85.6321 109.493 83.338 109.17 83.2946C108.846 83.2513 100.819 85.2213 101.978 87.1913L103.906 87.5333Z" fill="url(#paint11_linear_403_2080)"/>
<path d="M33.2755 143.053L30.3018 151.382C21.6769 154.207 14.3437 151.382 14.3437 151.382L12.2109 142.652C12.2109 142.652 22.9687 145.937 33.2755 143.053Z" fill="#08E1FE"/>
<path d="M33.2755 143.053L30.3018 151.382C21.6769 154.207 14.3437 151.382 14.3437 151.382L12.2109 142.652C12.2109 142.652 22.9687 145.937 33.2755 143.053Z" fill="url(#paint12_linear_403_2080)"/>
<path d="M36.6487 135.298L35.6944 141.884L33.2767 143.053C22.9782 145.934 12.2122 142.652 12.2122 142.652L10.3561 141.376L9.49023 135.298H36.6487Z" fill="#08E1FE"/>
<path d="M36.6487 135.298L35.6944 141.884L33.2767 143.053C22.9782 145.934 12.2122 142.652 12.2122 142.652L10.3561 141.376L9.49023 135.298H36.6487Z" fill="url(#paint13_linear_403_2080)"/>
<path d="M23.0667 137.552C30.5648 137.552 36.6432 136.543 36.6432 135.298C36.6432 134.054 30.5648 133.045 23.0667 133.045C15.5686 133.045 9.49023 134.054 9.49023 135.298C9.49023 136.543 15.5686 137.552 23.0667 137.552Z" fill="#08E1FE"/>
<path d="M23.0667 137.552C30.5648 137.552 36.6432 136.543 36.6432 135.298C36.6432 134.054 30.5648 133.045 23.0667 133.045C15.5686 133.045 9.49023 134.054 9.49023 135.298C9.49023 136.543 15.5686 137.552 23.0667 137.552Z" fill="url(#paint14_linear_403_2080)"/>
<path d="M16.6069 85.0224C15.2736 84.4406 13.8408 84.0017 12.6873 83.1519C10.3636 81.4243 9.77445 78.4489 9.04694 75.7796C8.31943 73.1104 6.9142 70.1656 4.04289 69.4C2.96961 69.1167 1.71099 69.229 0.894961 69.9333C0.0346743 70.681 -0.139596 71.9059 0.0955307 72.9751C0.330657 74.0444 0.90326 75.0166 1.34585 76.0374C2.37924 78.4082 2.69384 80.9937 2.25593 83.5168C1.89356 85.5864 1.02774 87.684 1.58374 89.7127C2.52702 93.1552 7.22678 95.1737 7.35679 98.7208C7.44531 101.114 5.30981 103.329 5.79389 105.685C6.15073 107.428 7.89067 108.788 7.98472 110.559C8.08983 112.567 6.03178 114.267 6.13137 116.275C6.23095 118.283 8.40518 119.633 9.82424 121.203C11.0139 122.529 11.7213 124.167 11.8463 125.885C11.921 126.957 11.7716 128.067 12.1506 129.083C12.4272 129.825 12.9805 130.456 13.4092 131.124C13.8822 131.846 14.2391 132.627 14.8089 133.296C15.5253 134.129 16.4961 134.744 17.5959 135.063C18.6956 135.381 19.8736 135.388 20.9775 135.082C21.4174 132.413 21.0329 129.69 21.1546 126.993C21.3952 121.767 23.539 116.5 22.167 111.426C21.6636 109.566 20.6954 107.8 20.5239 105.891C20.3717 104.187 20.8641 102.498 21.2071 100.816C21.9153 97.3428 21.9042 93.7523 21.6138 90.241C21.3842 87.4646 19.2597 86.181 16.6069 85.0224Z" fill="#08E1FE"/>
<path d="M25.0849 98.71C25.0628 101.04 25.6382 103.449 24.8304 105.661C24.2191 107.338 22.8747 108.711 22.1804 110.359C20.5788 114.164 22.7337 118.431 22.2938 122.493C22.1113 124.167 21.4889 125.775 21.0961 127.418C20.6036 129.498 20.4793 131.638 20.7282 133.755C20.7011 134.138 20.8245 134.518 21.076 134.824C21.3274 135.131 21.69 135.343 22.0974 135.424C23.4528 135.9 24.8569 136.25 26.2882 136.467C25.8011 134 26.3108 131.453 27.7211 129.309C29.9147 125.992 34.1774 123.756 34.9713 119.947C35.5079 117.367 34.2576 114.748 34.3461 112.123C34.4086 110.375 35.0603 108.689 36.2106 107.3C37.2423 106.059 38.6393 105.1 39.5991 103.814C41.9061 100.713 41.1869 96.569 40.5009 92.8612C39.8149 89.1534 39.4166 84.8867 42.1274 82.0771C42.985 81.189 44.1025 80.523 44.8798 79.5737C46.6114 77.4582 46.1744 74.1995 44.1606 72.3086C42.1468 70.4177 38.9048 69.8945 36.1663 70.7264C35.0322 71.0735 33.9533 71.6579 33.2507 72.5561C31.8676 74.3679 32.4209 76.8432 33.0073 78.997C33.519 80.8675 33.9312 83.0264 33.2314 84.9122C32.7086 86.3157 31.3835 87.0761 30.2577 88.0535C27.0876 90.7968 25.1209 94.6858 25.0849 98.71Z" fill="#08E1FE"/>
<path d="M22.2282 119.354C21.8354 121.886 21.2683 124.438 21.1521 126.977C21.1521 127.064 21.1521 127.148 21.1521 127.232C21.1521 127.316 21.1189 127.354 21.1051 127.416C20.6126 129.496 20.4884 131.635 20.7372 133.752C20.7553 134.099 20.8553 134.437 21.0304 134.745C21.0166 134.852 21 134.956 20.9834 135.064C19.8795 135.369 18.7015 135.363 17.6017 135.044C16.502 134.726 15.5312 134.11 14.8148 133.277C14.2615 132.609 13.8881 131.828 13.4151 131.106C12.9725 130.435 12.4331 129.804 12.1565 129.064C11.7775 128.043 11.9269 126.938 11.8522 125.867C11.7271 124.149 11.0197 122.511 9.8301 121.184C8.41104 119.615 6.23404 118.298 6.13723 116.256C6.04041 114.215 8.09569 112.549 7.99058 110.54C7.89653 108.769 6.15659 107.409 5.79975 105.666C5.31567 103.311 7.45947 101.096 7.36265 98.7022C7.23264 95.1552 2.53287 93.1366 1.5896 89.6942C1.03636 87.6655 1.89942 85.5678 2.26179 83.4983C2.6997 80.9751 2.3851 78.3896 1.35171 76.0188C0.909118 74.9981 0.336517 74.036 0.10139 72.9566C-0.133736 71.8772 0.0405337 70.6599 0.90082 69.9148C1.73068 69.2105 2.97547 69.0982 4.04875 69.3814C6.92006 70.147 8.32252 73.0918 9.0528 75.7611C9.78307 78.4303 10.3695 81.4058 12.6931 83.1334C13.8411 83.9882 15.2795 84.4221 16.6128 85.0039C19.2684 86.1624 21.3928 87.446 21.6196 90.2071C21.8962 93.7185 21.9211 97.3089 21.213 100.782C20.87 102.464 20.3831 104.153 20.5297 105.858C20.6763 107.562 21.4813 109.175 22.0069 110.829C22.065 111.015 22.1231 111.204 22.1729 111.393C22.8699 114.018 22.6459 116.675 22.2282 119.354Z" fill="url(#paint15_linear_403_2080)"/>
<path d="M21.0331 134.747C20.858 134.44 20.7579 134.101 20.7399 133.754C20.4911 131.638 20.6153 129.498 21.1078 127.418C21.1216 127.357 21.1382 127.296 21.1548 127.234C21.058 129.74 21.3733 132.267 21.0331 134.747Z" fill="url(#paint16_linear_403_2080)"/>
<path d="M44.8694 79.5737C44.0921 80.523 42.9746 81.189 42.117 82.0771C39.4062 84.8841 39.8045 89.1534 40.4905 92.8612C41.1765 96.569 41.8957 100.713 39.5887 103.814C38.6289 105.09 37.2319 106.059 36.2001 107.3C35.0499 108.689 34.3982 110.375 34.3357 112.123C34.2472 114.748 35.4975 117.367 34.9609 119.947C34.167 123.756 29.9043 125.997 27.7107 129.309C26.3042 131.455 25.7984 134.001 26.2889 136.467C24.8613 136.249 23.461 135.9 22.1091 135.424C21.7393 135.323 21.4039 135.135 21.1354 134.88C21.0973 134.839 21.0631 134.794 21.0331 134.747C20.858 134.44 20.7579 134.101 20.7399 133.755C20.4911 131.638 20.6153 129.498 21.1078 127.418C21.1216 127.357 21.1382 127.296 21.1548 127.235C21.5476 125.655 22.1285 124.106 22.3055 122.493C22.4008 121.448 22.3786 120.396 22.2392 119.355C22.6569 116.675 22.8809 114.019 22.1755 111.411C22.1257 111.222 22.0677 111.033 22.0096 110.847C22.0621 110.683 22.123 110.52 22.1921 110.359C22.8864 108.711 24.2308 107.338 24.8421 105.661C25.6471 103.449 25.0745 101.04 25.0966 98.71C25.1326 94.6858 27.0994 90.7993 30.2584 88.0535C31.3842 87.0761 32.7092 86.3157 33.232 84.9122C33.9319 83.0264 33.5086 80.8675 33.0079 78.997C32.4187 76.8432 31.86 74.3679 33.2514 72.5561C33.9429 71.6579 35.0328 71.0735 36.1669 70.7264C38.8944 69.8945 42.1502 70.4177 44.1612 72.3086C46.1723 74.1995 46.601 77.471 44.8694 79.5737Z" fill="url(#paint17_linear_403_2080)"/>
<path d="M93.9008 39.5426C93.9008 39.5426 82.2634 41.1835 76.8804 52.8888C71.4974 64.5942 74.2968 79.1168 74.3908 80.3799C74.4849 81.6431 90.8856 87.1908 95.5743 87.1908C100.263 87.1908 101.239 82.9088 101.239 82.9088L92.9547 79.6909L118.127 77.0396H122.647L120.157 80.8546C120.157 80.8546 125.07 81.3241 128.354 81.4313C131.637 81.5385 133.867 75.6156 134.235 72.6708C134.603 69.726 119.731 43.9012 117.51 42.3471C115.289 40.793 109.248 37.0878 93.9008 39.5426Z" fill="#08E1FE"/>
<path d="M107.849 17.6306C107.849 17.6306 109.91 18.7152 109.725 22.224C109.539 25.7328 108.378 31.0125 107.205 32.3803C106.032 33.7481 101.93 34.284 101.93 34.284C101.93 34.284 104.167 39.2576 105.833 40.5412C107.498 41.8247 104.159 46.5533 100.912 45.0018C97.6642 43.4503 93.8994 39.5434 93.8994 39.5434C93.8994 39.5434 96.6075 34.8505 95.6919 32.3803C94.7763 29.9101 91.266 21.2517 93.8994 18.8785C96.5328 16.5053 102.168 13.1215 107.849 17.6306Z" fill="url(#paint18_linear_403_2080)"/>
<path opacity="0.25" d="M89.1901 56.4023L87.3672 77.0392L92.9411 79.6905L97.4776 78.9735L91.818 72.673L89.1901 56.4023Z" fill="white"/>
<path opacity="0.25" d="M118.586 55.3613C118.586 55.3613 125.875 71.364 122.644 77.0393L120.154 76.5978L118.586 55.3613Z" fill="white"/>
<path d="M98.2096 82.169C98.2096 82.169 95.4268 84.4657 96.6688 86.252C97.9109 88.0383 99.3935 87.9872 100.63 87.1885C101.867 86.3898 104.295 84.4938 107.189 85.3639C110.082 86.2341 110.785 86.7879 110.785 86.7879C110.785 86.7879 112.309 85.8666 111.913 84.9429C111.518 84.0191 108.492 81.0258 107.615 80.6277C106.738 80.2296 103.097 81.4315 103.097 81.4315C103.097 81.4315 100.423 80.7425 98.2096 82.169Z" fill="url(#paint19_linear_403_2080)"/>
<path d="M123.472 77.8589C123.472 77.8589 120.822 78.1397 120.152 79.6912C119.483 81.2427 119.242 81.4315 119.242 81.4315C119.242 81.4315 120.739 81.6867 121.361 80.9646C121.983 80.2424 122.631 80.546 122.631 80.546L122.445 81.4724C122.445 81.4724 126.512 82.0185 128.349 81.4315C130.185 80.8446 130.974 80.1556 130.974 80.1556L131.693 78.5888C131.693 78.5888 129.958 77.4685 128.65 77.295C127.342 77.1215 123.472 77.8589 123.472 77.8589Z" fill="url(#paint20_linear_403_2080)"/>
<path d="M136.919 95.1113C136.919 95.1113 145.946 101.45 145.143 110.024C144.341 118.599 143.163 131.33 143.163 131.33C143.163 131.33 139.522 132.743 137.11 131.33C134.698 129.916 133.238 110.57 132.043 108.723C130.848 106.875 123.658 98.5461 115.977 97.829L136.919 95.1113Z" fill="#33233A"/>
<path d="M91.4043 101.089C91.4043 101.089 95.7555 104.916 103.512 106.118C111.268 107.32 114.884 108.323 117.254 114.476C119.625 120.628 121.899 133.87 122.643 135.35C123.387 136.83 126.552 136.075 126.552 136.075C126.552 136.075 128.341 134.181 128.341 123.652C128.341 108.974 129.448 105.965 125.462 102.278C121.476 98.5904 117.849 97.585 117.849 97.585L91.4043 101.089Z" fill="#4E3D56"/>
<path d="M122.645 135.349L123.383 140.721H124.766C124.766 140.721 133.673 141.17 133.953 140.976C134.232 140.782 133.524 136.722 130.149 136.837C126.774 136.952 126.553 136.071 126.553 136.071L122.645 135.349ZM138.202 131.772L139.64 137.059L155.358 135.069C155.358 135.069 155.911 131.595 150.932 131.94C149.618 132.029 148.638 132.882 147.059 132.889C145.479 132.897 143.966 132.3 143.17 131.33L138.202 131.772Z" fill="#33233A"/>
<path d="M193.007 65.2555L133.514 68.1952C133.161 68.2126 132.807 68.1633 132.475 68.0505C132.143 67.9376 131.839 67.7636 131.582 67.5389C131.325 67.3143 131.12 67.0437 130.98 66.7437C130.84 66.4437 130.768 66.1206 130.768 65.7939V26.9012C130.767 26.1437 131.089 25.4165 131.664 24.8754C132.238 24.3344 133.02 24.0227 133.841 24.0074L193.09 22.8794C193.471 22.8723 193.85 22.9354 194.204 23.0651C194.559 23.1948 194.882 23.3884 195.154 23.6346C195.426 23.8808 195.643 24.1746 195.79 24.4989C195.938 24.8232 196.014 25.1714 196.014 25.5232V62.3285C196.014 63.0786 195.702 63.8001 195.142 64.3446C194.583 64.889 193.819 65.215 193.007 65.2555Z" fill="#EF55FF"/>
<path d="M195.752 65.2556L136.26 68.1953C135.906 68.2123 135.553 68.1627 135.221 68.0497C134.889 67.9367 134.586 67.7626 134.329 67.538C134.072 67.3134 133.868 67.043 133.728 66.7431C133.588 66.4433 133.516 66.1204 133.516 65.794V26.9012C133.515 26.144 133.836 25.4167 134.41 24.8756C134.984 24.3345 135.765 24.0228 136.586 24.0074L195.835 22.8795C196.217 22.872 196.596 22.9349 196.951 23.0644C197.305 23.1939 197.628 23.3875 197.901 23.6337C198.174 23.8799 198.39 24.1739 198.538 24.4984C198.686 24.8228 198.762 25.1713 198.762 25.5232V62.3286C198.761 63.0789 198.448 63.8004 197.889 64.3448C197.329 64.8892 196.564 65.2151 195.752 65.2556Z" fill="#08E1FE"/>
<path d="M195.752 65.2556L136.26 68.1953C135.906 68.2123 135.553 68.1627 135.221 68.0497C134.889 67.9367 134.586 67.7626 134.329 67.538C134.072 67.3134 133.868 67.043 133.728 66.7431C133.588 66.4433 133.516 66.1204 133.516 65.794V26.9012C133.515 26.144 133.836 25.4167 134.41 24.8756C134.984 24.3345 135.765 24.0228 136.586 24.0074L195.835 22.8795C196.217 22.872 196.596 22.9349 196.951 23.0644C197.305 23.1939 197.628 23.3875 197.901 23.6337C198.174 23.8799 198.39 24.1739 198.538 24.4984C198.686 24.8228 198.762 25.1713 198.762 25.5232V62.3286C198.761 63.0789 198.448 63.8004 197.889 64.3448C197.329 64.8892 196.564 65.2151 195.752 65.2556Z" fill="url(#paint21_linear_403_2080)"/>
<path d="M178.43 79.9464L163.324 81.4316C163.324 81.4316 158.724 80.5742 158.973 79.9464C159.222 79.3186 164.026 78.7138 164.026 78.7138V53.4097C163.985 53.3535 163.352 52.6084 161.617 52.1338C161.281 52.0424 160.939 51.9691 160.594 51.9143C160.296 51.8745 160.007 51.7937 159.736 51.6744C158.704 51.1819 159.844 50.3245 161.446 50.2862C161.696 50.2786 161.947 50.2923 162.195 50.327H173.813C173.813 50.327 178.212 51.4703 178.425 57.1762C178.638 62.8822 178.43 79.9464 178.43 79.9464Z" fill="#08E1FE"/>
<path d="M166.136 79.9999L163.314 81.4315C163.314 81.4315 158.714 80.5741 158.963 79.9463C159.212 79.3186 164.017 78.7138 164.017 78.7138V53.4096C163.959 53.3509 163.253 52.6798 161.607 52.1337C160.995 51.934 160.366 51.7804 159.726 51.6743C158.695 51.1818 159.834 50.3244 161.436 50.2861C162.8 50.4571 165.486 51.8351 165.66 52.6211C165.834 53.407 166.136 79.9999 166.136 79.9999Z" fill="#08E1FE"/>
<path d="M166.136 79.9999L163.314 81.4315C163.314 81.4315 158.714 80.5741 158.963 79.9463C159.212 79.3186 164.017 78.7138 164.017 78.7138V53.4096C163.959 53.3509 163.253 52.6798 161.607 52.1337C160.995 51.934 160.366 51.7804 159.726 51.6743C158.695 51.1818 159.834 50.3244 161.436 50.2861C162.8 50.4571 165.486 51.8351 165.66 52.6211C165.834 53.407 166.136 79.9999 166.136 79.9999Z" fill="url(#paint22_linear_403_2080)"/>
<path d="M109.588 133.154C109.237 133.487 109.074 133.609 109.281 133.336C109.389 133.283 109.491 133.223 109.588 133.154Z" fill="url(#paint23_linear_403_2080)"/>
<defs>
<linearGradient id="paint0_linear_403_2080" x1="84.7441" y1="131.453" x2="89.3803" y2="131.453" gradientUnits="userSpaceOnUse">
<stop stop-color="#3A1866"/>
<stop offset="1" stop-color="#1AC1AD"/>
</linearGradient>
<linearGradient id="paint1_linear_403_2080" x1="95.9582" y1="131.993" x2="98.0854" y2="131.993" gradientUnits="userSpaceOnUse">
<stop/>
<stop offset="0.99" stop-opacity="0"/>
</linearGradient>
<linearGradient id="paint2_linear_403_2080" x1="100.703" y1="128.748" x2="113" y2="122.795" gradientUnits="userSpaceOnUse">
<stop/>
<stop offset="0.99" stop-opacity="0"/>
</linearGradient>
<linearGradient id="paint3_linear_403_2080" x1="100.505" y1="113.587" x2="85.3896" y2="119.082" gradientUnits="userSpaceOnUse">
<stop/>
<stop offset="0.99" stop-opacity="0"/>
</linearGradient>
<linearGradient id="paint4_linear_403_2080" x1="109.04" y1="128.985" x2="70.2991" y2="143.071" gradientUnits="userSpaceOnUse">
<stop/>
<stop offset="0.99" stop-opacity="0"/>
</linearGradient>
<linearGradient id="paint5_linear_403_2080" x1="110.373" y1="132.68" x2="109.031" y2="133.169" gradientUnits="userSpaceOnUse">
<stop/>
<stop offset="0.99" stop-opacity="0"/>
</linearGradient>
<linearGradient id="paint6_linear_403_2080" x1="95.2857" y1="129.066" x2="83.4478" y2="125.579" gradientUnits="userSpaceOnUse">
<stop/>
<stop offset="0.99" stop-opacity="0"/>
</linearGradient>
<linearGradient id="paint7_linear_403_2080" x1="192.764" y1="114.919" x2="-21.541" y2="126.093" gradientUnits="userSpaceOnUse">
<stop/>
<stop offset="0.99" stop-opacity="0"/>
</linearGradient>
<linearGradient id="paint8_linear_403_2080" x1="72.977" y1="84.1482" x2="182.211" y2="84.1482" gradientUnits="userSpaceOnUse">
<stop stop-color="#3A1866"/>
<stop offset="1" stop-color="#1AC1AD"/>
</linearGradient>
<linearGradient id="paint9_linear_403_2080" x1="129.819" y1="80.5716" x2="130.189" y2="85.425" gradientUnits="userSpaceOnUse">
<stop stop-color="#68FDEB"/>
<stop offset="0.2" stop-color="#5DCFC1"/>
<stop offset="0.46" stop-color="#509B92"/>
<stop offset="0.69" stop-color="#674776"/>
<stop offset="0.87" stop-color="#55415E"/>
<stop offset="0.99" stop-color="#4E3D56"/>
</linearGradient>
<linearGradient id="paint10_linear_403_2080" x1="128.489" y1="72.1318" x2="131.29" y2="89.9523" gradientUnits="userSpaceOnUse">
<stop stop-color="#68FDEB"/>
<stop offset="0.2" stop-color="#5DCFC1"/>
<stop offset="0.46" stop-color="#509B92"/>
<stop offset="0.69" stop-color="#674776"/>
<stop offset="0.87" stop-color="#55415E"/>
<stop offset="0.99" stop-color="#4E3D56"/>
</linearGradient>
<linearGradient id="paint11_linear_403_2080" x1="106.976" y1="81.7737" x2="106.924" y2="89.4192" gradientUnits="userSpaceOnUse">
<stop stop-color="#68FDEB"/>
<stop offset="0.2" stop-color="#5DCFC1"/>
<stop offset="0.46" stop-color="#509B92"/>
<stop offset="0.69" stop-color="#674776"/>
<stop offset="0.87" stop-color="#55415E"/>
<stop offset="0.99" stop-color="#4E3D56"/>
</linearGradient>
<linearGradient id="paint12_linear_403_2080" x1="36.9518" y1="146.962" x2="18.2571" y2="147.736" gradientUnits="userSpaceOnUse">
<stop/>
<stop offset="0.99" stop-color="#EF55FF"/>
</linearGradient>
<linearGradient id="paint13_linear_403_2080" x1="39.7967" y1="139.047" x2="24.3064" y2="139.625" gradientUnits="userSpaceOnUse">
<stop/>
<stop offset="0.99" stop-color="#EF55FF"/>
</linearGradient>
<linearGradient id="paint14_linear_403_2080" x1="24.9671" y1="126.859" x2="18.2566" y2="161.903" gradientUnits="userSpaceOnUse">
<stop/>
<stop offset="0.99" stop-opacity="0"/>
</linearGradient>
<linearGradient id="paint15_linear_403_2080" x1="21.4232" y1="134.997" x2="7.90531" y2="68.1694" gradientUnits="userSpaceOnUse">
<stop stop-color="#EF55FF"/>
<stop offset="0.99" stop-opacity="0"/>
</linearGradient>
<linearGradient id="paint16_linear_403_2080" x1="22.3055" y1="136.327" x2="20.7269" y2="128.518" gradientUnits="userSpaceOnUse">
<stop/>
<stop offset="0.99" stop-opacity="0"/>
</linearGradient>
<linearGradient id="paint17_linear_403_2080" x1="20.0954" y1="139.79" x2="35.3355" y2="83.2342" gradientUnits="userSpaceOnUse">
<stop stop-color="#EF55FF"/>
<stop offset="0.99" stop-opacity="0"/>
</linearGradient>
<linearGradient id="paint18_linear_403_2080" x1="92.9423" y1="30.3618" x2="109.739" y2="30.3618" gradientUnits="userSpaceOnUse">
<stop stop-color="#EF55FF"/>
<stop offset="0.42" stop-color="#D8A353"/>
<stop offset="1" stop-color="#F2E2C9"/>
</linearGradient>
<linearGradient id="paint19_linear_403_2080" x1="96.3535" y1="84.1339" x2="111.969" y2="84.1339" gradientUnits="userSpaceOnUse">
<stop stop-color="#EF55FF"/>
<stop offset="0.42" stop-color="#D8A353"/>
<stop offset="1" stop-color="#F2E2C9"/>
</linearGradient>
<linearGradient id="paint20_linear_403_2080" x1="119.237" y1="79.4896" x2="131.687" y2="79.4896" gradientUnits="userSpaceOnUse">
<stop stop-color="#EF55FF"/>
<stop offset="0.42" stop-color="#D8A353"/>
<stop offset="1" stop-color="#F2E2C9"/>
</linearGradient>
<linearGradient id="paint21_linear_403_2080" x1="202.134" y1="67.5777" x2="136.547" y2="20.5104" gradientUnits="userSpaceOnUse">
<stop/>
<stop offset="0.99" stop-color="#EF55FF"/>
</linearGradient>
<linearGradient id="paint22_linear_403_2080" x1="190.29" y1="90.3221" x2="145.882" y2="45.4334" gradientUnits="userSpaceOnUse">
<stop/>
<stop offset="0.99" stop-opacity="0"/>
</linearGradient>
<linearGradient id="paint23_linear_403_2080" x1="109.621" y1="133.249" x2="109.164" y2="133.414" gradientUnits="userSpaceOnUse">
<stop/>
<stop offset="0.99" stop-opacity="0"/>
</linearGradient>
</defs>
</svg>
