<svg width="457" height="308" viewBox="0 0 457 308" fill="none" xmlns="http://www.w3.org/2000/svg">
<g id="deal 1" clip-path="url(#clip0_795_881)">
<path id="Vector" opacity="0.18" d="M456.08 217.946C455.629 227.456 453.369 236.765 449.44 245.297C443.032 258.991 433.061 270.177 421.259 278.828C414.674 283.62 407.642 287.656 400.276 290.872C396.222 292.657 392.085 294.215 387.882 295.54C362.429 303.553 335.57 303.946 309.077 304.28L122.605 306.626L98.0812 306.929C90.2793 307.03 82.328 307.09 74.4596 306.626C59.4478 305.756 44.7127 303 31.7924 295.064C25.1392 290.949 19.3303 285.426 14.7167 278.828C5.9575 266.391 1.22101 250.531 0.994141 234.724V233.063C1.08821 217.637 5.51484 202.39 14.7222 190.548C15.3088 189.798 15.9064 189.054 16.5316 188.333C17.8319 186.821 19.254 185.356 20.748 183.892C30.2597 174.658 42.8203 166.382 48.514 154.487C58.5293 133.554 46.0407 125.011 44.3973 104.477C41.6306 69.9455 74.1221 30.2647 100.516 14.4221C128.891 -2.65285 164.636 -4.70089 194.549 8.99838C226.199 23.5014 255.736 55.0853 289.124 46.1787C299.858 43.315 309.719 36.2659 320.78 36.0576C341.22 35.6348 355.407 58.0026 361.77 78.9236C368.133 99.8446 371.586 123.457 386.714 138.263C397.571 148.885 412.538 152.879 425.685 159.934C429.677 162.019 433.458 164.543 436.968 167.466C444.714 174.05 450.037 182.987 453.103 192.917C455.536 200.988 456.545 209.477 456.08 217.946Z" fill="#08E1FE"/>
<path id="Vector_2" opacity="0.18" d="M420.41 279C410.208 286.353 399.004 291.956 387.198 295.605C363.523 303.055 338.63 303.89 313.969 304.221L308.799 304.292L240.679 305.15L206.079 305.588L129.067 306.553L123.225 306.624L98.817 306.931C91.0535 307.032 83.1469 307.085 75.3119 306.624C60.3577 305.783 45.6952 303.044 32.8277 295.149C26.2287 291.051 20.471 285.557 15.9023 279H420.41Z" fill="#68E1FD"/>
<path id="Vector_3" d="M297.089 218.304L283.57 285.196L274.484 284.149L273.438 284.024C273.438 284.024 276.039 264.195 277.162 235.915C277.901 217.18 281.087 201.883 282.612 189.167C283.084 185.664 283.876 182.211 284.977 178.854C286.821 173.228 289.629 167.964 293.199 168.505C301.085 169.695 311.472 176.552 312.843 180.846C315.231 188.34 297.089 218.304 297.089 218.304Z" fill="#25233A"/>
<path id="Vector_4" opacity="0.24" d="M287.637 179.045C287.637 179.045 281.578 226.256 281.383 240.989C281.188 255.721 275.164 284.025 275.164 284.025L274.466 284.15L273.42 284.025C273.42 284.025 276.021 264.196 277.144 235.915C277.883 217.181 281.069 201.883 282.594 189.168C283.067 185.664 283.858 182.212 284.959 178.855C285.856 178.814 286.755 178.878 287.637 179.045Z" fill="white"/>
<path id="Vector_5" d="M328.083 285.089H318.064C318.062 285.069 318.062 285.049 318.064 285.03C317.792 283.668 312.743 258.51 305.608 240.286C300.288 226.696 297.717 199.016 296.741 184.849C296.351 179.496 296.197 176.071 296.197 176.071C296.197 176.071 316.603 170.01 319.252 172.698C321.9 175.387 324.909 187.567 324.909 187.567C324.909 187.567 317.922 235.802 322.367 239.073C326.812 242.344 328.083 285.089 328.083 285.089Z" fill="#3F3D56"/>
<path id="Vector_6" d="M169.066 92.3057C169.066 92.3057 154.205 96.915 148.187 140.07C146.012 155.629 159.844 183.113 159.844 183.113L169.066 92.3057Z" fill="#68E1FD"/>
<path id="Vector_7" opacity="0.61" d="M169.066 92.3057C169.066 92.3057 154.205 96.915 148.187 140.07C146.012 155.629 159.844 183.113 159.844 183.113L169.066 92.3057Z" fill="url(#paint0_linear_795_881)"/>
<path id="Vector_8" d="M158.213 177.724C157.301 177.573 156.367 177.643 155.488 177.928C154.609 178.213 153.81 178.706 153.158 179.365C152.506 180.023 152.021 180.829 151.741 181.715C151.461 182.601 151.396 183.541 151.55 184.457C152.685 191.202 154.849 200.563 158.644 205.868C165.046 214.748 173.795 227 173.795 227L182.84 289.449L193.994 287.932L193.894 228.088L181.303 181.561L158.213 177.724Z" fill="#25233A"/>
<path id="Vector_9" d="M181.273 181.56L179.825 233.542L155.913 289.49L147.903 286.059L145.574 285.053L158.816 232.596C158.816 232.596 153.661 218.322 149.866 207.914C146.224 197.928 151.178 178.14 151.592 176.547V176.439L181.273 181.56Z" fill="#3F3D56"/>
<path id="Vector_10" d="M280.289 148.313L250.786 163.028L245.276 155.968L243.863 154.148L269.07 140.379C269.07 140.379 277.73 121.008 279.61 112.105C279.97 110.451 280.331 109.131 280.668 107.995C281.324 105.931 287.584 98.6395 289.689 98.2053C291.793 97.7711 289.423 104.278 290.824 105.937C292.362 108.213 293.148 110.918 293.07 113.669C293.312 119.188 280.289 148.313 280.289 148.313Z" fill="#68E1FD"/>
<path id="Vector_11" d="M319.216 165.544C319.216 165.544 304.562 183.262 287.667 179.045C286.504 178.75 285.365 178.364 284.262 177.891C283.546 177.581 282.897 177.132 282.354 176.569C281.811 176.006 281.384 175.341 281.098 174.611C280.812 173.881 280.672 173.102 280.686 172.317C280.701 171.533 280.869 170.759 281.182 170.041C282.814 166.317 282.861 160.935 282.713 155.969C282.37 144.543 279.497 132.179 279.285 127.034C279.143 123.745 279.669 119.088 280.632 114.437C282.329 106.17 285.391 97.9326 288.5 97.4568C297.746 96.0234 300.914 98.5571 300.914 98.5571L316.698 107.782C324.536 116.049 320.718 128.991 319.216 165.544Z" fill="#68E1FD"/>
<path id="Vector_12" d="M296.05 118.879L300.087 125.421L288.909 136.799L286.609 139.142L298.757 97.7177L298.805 93.5723L300.347 95.1603V95.1662L302.369 97.2478L303.144 114.401L296.05 118.879Z" fill="#68E1FD"/>
<path id="Vector_13" opacity="0.61" d="M317.716 128.651L316.001 173.311C316.001 173.311 291.883 184.844 288.696 171.884C286.231 161.868 292.539 150.443 292.539 150.443L317.716 128.651Z" fill="url(#paint1_linear_795_881)"/>
<path id="Vector_14" d="M293.962 153.417L286.709 182.804L331.529 192.058L337.973 163.308L293.962 153.417Z" fill="white"/>
<path id="Vector_15" d="M299.117 87.0186C299.117 87.1494 298.957 93.8047 298.727 98.0393C298.561 101.316 297.036 103.624 294.707 105.908C293.354 107.33 291.727 108.459 289.925 109.227C289.489 109.388 289.017 109.426 288.561 109.336C288.105 109.246 287.683 109.031 287.34 108.715C286.998 108.399 286.748 107.995 286.619 107.546C286.49 107.097 286.486 106.621 286.608 106.17C286.839 105.289 287.069 104.266 287.247 103.196C287.625 100.989 287.791 98.5984 287.194 96.9093C287.178 96.8465 287.159 96.7849 287.134 96.7249C286.78 95.8507 287.134 94.899 287.938 93.9415C289.068 92.5914 291.042 91.2235 293.01 90.0696C294.987 88.9379 297.026 87.9192 299.117 87.0186Z" fill="url(#paint2_linear_795_881)"/>
<path id="Vector_16" d="M288.537 102.75C288.132 102.954 287.703 103.106 287.26 103.202C287.639 100.995 287.804 98.6045 287.207 96.9154L287.952 93.9416L288.513 91.7291L293.024 90.0698L297.593 88.3926C296.494 96.5764 292.143 101.031 288.537 102.75Z" fill="url(#paint3_linear_795_881)"/>
<path id="Vector_17" d="M287.294 63.764C285.505 63.8746 283.757 64.3561 282.162 65.1783C280.567 66.0005 279.157 67.1456 278.023 68.5418C276.888 69.9381 276.053 71.5552 275.569 73.2917C275.085 75.0283 274.963 76.8467 275.211 78.6328C275.624 83.9467 276.99 89.1414 279.242 93.9656C283.493 101.222 294.169 95.2146 295.853 92.217C297.538 89.2195 303.893 75.6591 301.209 71.811C299.436 69.1465 294.222 63.4428 287.294 63.764Z" fill="url(#paint4_linear_795_881)"/>
<path id="Vector_18" d="M275.992 58.6486L278.191 59.7786C276.88 59.7519 275.582 60.0389 274.403 60.6159C273.225 61.1929 272.199 62.0434 271.411 63.0973C269.402 65.1248 268.266 67.8655 268.248 70.728L271.978 68.9437C271.978 68.9437 271.7 73.5769 278.77 73.9159C285.84 74.2549 293.324 74.5106 293.324 74.5106L290.924 71.1741C290.924 71.1741 295.322 72.9583 296.091 74.5701C296.796 77.1882 297.301 79.8564 297.604 82.5517C297.604 82.5517 299.348 77.9781 300.075 78.9832C300.802 79.9883 299.318 84.1278 298.402 85.0378C297.486 85.9478 297.64 88.6717 297.557 88.8977C297.474 89.1237 301.937 85.3827 302.132 84.0981C302.327 82.8134 306.749 69.824 303.847 67.1119L305.62 66.9751C304.58 66.2681 303.393 65.8084 302.15 65.631C302.15 65.631 290.505 50.3577 275.992 58.6486Z" fill="#3F3D56"/>
<path id="Vector_19" d="M230.037 160.238C231.969 158.54 234.085 157.066 236.344 155.843C238.115 155.215 239.963 154.83 241.836 154.701C241.836 154.701 242.143 157.3 240.654 157.473C239.164 157.645 237.923 159.923 237.923 159.923C237.923 159.923 247.481 163.86 248.8 163.492C250.118 163.123 249.858 165.038 247.44 164.913C245.022 164.788 244.431 168.19 242.758 168.143C241.085 168.095 238.437 169.136 235.978 169.225C233.493 169.017 231.051 168.444 228.73 167.524L230.037 160.238Z" fill="url(#paint5_linear_795_881)"/>
<path id="Vector_20" d="M193.043 132.618L185.028 177.968C185.028 177.968 182.261 186.646 167.944 185.349C162.705 184.904 157.778 182.661 153.987 178.997L153.756 178.777L153.597 178.611C150.854 175.882 148.706 172.609 147.289 169C147.289 169 156.487 105.075 166.146 93.9476C167.11 92.8414 168.074 92.2526 169.043 92.3061C171.689 92.6614 174.216 93.6351 176.421 95.149C182.617 98.9863 187.519 104.615 190.484 111.3C193.45 117.986 194.342 125.415 193.043 132.618Z" fill="#68E1FD"/>
<path id="Vector_21" opacity="0.61" d="M177.975 131.119L167.926 185.343C167.926 185.343 183.325 187.472 185.01 177.968L189.757 150.389L177.975 131.119Z" fill="url(#paint6_linear_795_881)"/>
<path id="Vector_22" d="M169.066 92.3058C169.066 92.3058 170.597 80.6427 171.212 73.0596C171.827 65.4765 174.286 55.3181 186.937 56.6206C199.587 57.9231 199.628 77.1634 196.135 85.2163C192.641 93.2693 187.965 93.0373 187.965 93.0373C187.965 93.0373 181.664 91.6575 181.9 99.2823L169.066 92.3058Z" fill="url(#paint7_linear_795_881)"/>
<path id="Vector_23" d="M173.737 55.0087C171.895 56.7895 170.565 59.0374 169.888 61.5153C169.32 63.5237 168.937 65.5803 168.741 67.6591L170.03 66.2376C169.966 69.7964 169.704 73.3487 169.244 76.8778C168.764 80.1653 168.566 83.4884 168.653 86.8102L171.017 86.6912L173.973 90.343L177.236 88.1186L179.689 86.8042L181.877 81.3682C181.334 80.9738 180.936 80.4105 180.743 79.7654C180.551 79.1203 180.575 78.4294 180.813 77.7996C181.616 75.5812 183.615 75.0697 184.082 76.3782C184.438 78.0084 184.636 79.6697 184.673 81.3384L188.16 71.4001C188.16 71.4001 190.348 68.3133 192.263 70.4366C193.412 71.721 194.863 72.6944 196.484 73.2676L195.331 69.9846L198.494 70.7994L198.245 67.0049L200.61 68.6642C200.61 68.6642 201.644 62.5204 199.64 59.7965C197.636 57.0725 189.656 46.1944 173.737 55.0087Z" fill="#3F3D56"/>
<path id="Vector_24" d="M230.303 159.007L228.701 167.524L228.27 169.814L199.416 167.649C191.43 166.959 183.591 161.463 182.598 153.428L172.614 117.963C172.164 116.509 172.088 114.964 172.392 113.472C172.697 111.98 173.373 110.591 174.357 109.433C175.341 108.276 176.601 107.388 178.018 106.854C179.436 106.319 180.965 106.155 182.462 106.377C184.363 106.662 186.147 107.478 187.61 108.732C189.073 109.987 190.157 111.629 190.738 113.473L197.022 145.215C197.391 147.078 198.286 148.796 199.6 150.162C200.913 151.528 202.59 152.484 204.429 152.917L230.303 159.007Z" fill="#68E1FD"/>
<path id="Vector_25" d="M245.277 155.962L241.257 157.223C241.257 157.223 236.232 157.675 234.559 159.114C232.886 160.553 233.82 161.202 233.82 161.202C233.82 161.202 239.141 160.417 240.288 160.863C241.434 161.309 247.044 163.551 248.818 163.521C250.591 163.491 250.786 163.028 250.786 163.028L245.277 155.962Z" fill="url(#paint8_linear_795_881)"/>
<path id="Vector_26" d="M233.152 166.555C233.448 166.29 233.802 166.098 234.184 165.995C234.567 165.891 234.969 165.88 235.357 165.96C235.444 165.975 235.525 166.017 235.588 166.079C235.626 166.151 235.646 166.232 235.646 166.314C235.646 166.396 235.626 166.477 235.588 166.549C235.321 167.456 234.897 168.307 234.334 169.065C234.961 168.851 235.251 168.149 235.647 167.62C235.946 167.223 236.329 166.898 236.769 166.669C237.209 166.441 237.694 166.315 238.189 166.299C238.307 166.288 238.427 166.313 238.531 166.371C238.774 166.537 238.667 166.918 238.531 167.185C238.283 167.685 238.041 168.191 237.793 168.696C238.417 167.783 239.143 166.945 239.956 166.198C240.149 165.988 240.394 165.834 240.665 165.752C240.802 165.71 240.948 165.718 241.079 165.776C241.209 165.834 241.314 165.938 241.375 166.067C241.425 166.226 241.425 166.396 241.375 166.555C241.203 167.242 240.902 167.89 240.488 168.464C240.988 167.635 241.614 166.89 242.344 166.258C242.396 166.197 242.462 166.149 242.536 166.119C242.61 166.089 242.69 166.077 242.77 166.085C242.859 166.115 242.934 166.179 242.977 166.264C243.225 166.68 242.977 167.209 242.717 167.626C242.238 168.393 241.629 169.214 240.736 169.35C240.536 169.36 240.337 169.396 240.145 169.457C240.008 169.528 239.879 169.614 239.761 169.713C239.454 169.926 239.092 170.043 238.719 170.052C238.346 170.06 237.979 169.959 237.662 169.761C237.231 170.036 236.729 170.178 236.219 170.17C235.708 170.161 235.211 170.003 234.789 169.713C234.696 169.623 234.574 169.569 234.444 169.559C234.315 169.549 234.186 169.585 234.08 169.66C233.695 169.791 233.28 169.8 232.89 169.684C232.5 169.568 232.156 169.333 231.905 169.011C231.373 168.232 232.567 167.049 233.152 166.555Z" fill="url(#paint9_linear_795_881)"/>
<path id="Vector_27" d="M319.773 181.34L309.901 177.909L309.564 177.79L316.758 154.523C316.758 154.523 307.3 128.383 305.727 120.342C305.22 117.678 305.196 114.944 305.656 112.271C305.888 110.884 306.532 109.599 307.502 108.585C308.473 107.571 309.725 106.877 311.095 106.592C312.627 106.253 314.229 106.463 315.623 107.186C316.853 107.829 318.039 108.556 319.17 109.363C320.076 110.026 320.72 110.991 320.985 112.087C322.758 119.414 329.893 149.307 330.159 152.144C330.449 155.397 319.773 181.34 319.773 181.34Z" fill="#68E1FD"/>
<path id="Vector_28" d="M306.986 179.883C306.501 180.347 306.04 181.18 306.554 181.62C306.678 181.727 306.85 181.787 306.95 181.917C307.198 182.233 306.891 182.673 306.607 182.952L304.243 185.266C303.368 186.116 302.416 187.181 302.617 188.388C302.714 188.818 302.924 189.214 303.226 189.533C303.528 189.852 303.91 190.083 304.331 190.202C305.18 190.424 306.072 190.414 306.915 190.173C306.9 190.423 306.959 190.672 307.084 190.889C307.209 191.105 307.395 191.28 307.618 191.392C308.07 191.606 308.561 191.728 309.06 191.749C310.502 192.007 311.98 191.967 313.405 191.63C313.512 191.79 313.618 191.945 313.73 192.1C315.598 191.767 316.615 189.756 317.277 187.972C317.939 186.188 318.613 184.201 319.181 182.28C319.286 182.022 319.305 181.736 319.234 181.465C319.146 181.307 319.025 181.168 318.881 181.059C318.736 180.949 318.571 180.871 318.395 180.829C316.136 179.967 313.884 179.086 311.62 178.236C309.527 177.451 308.576 178.391 306.986 179.883Z" fill="url(#paint10_linear_795_881)"/>
<path id="Vector_29" d="M147.089 285.523L143.689 291.745L147.106 293.713L148.377 292.69L153.887 297.793C153.887 297.793 155.855 299.155 160.673 299.143C165.491 299.131 166.442 298.447 166.442 298.447C166.442 298.447 166.442 291.31 160.531 291.637C154.62 291.965 154.212 288.58 154.212 288.58L147.089 285.523Z" fill="url(#paint11_linear_795_881)"/>
<path id="Vector_30" d="M184.696 289.258L184.141 298.453H188.279V294.98L193.894 298.429L207.78 298.394C207.78 298.394 207.78 288.877 201.538 289.377C195.295 289.877 192.777 289.377 192.777 289.377L191.79 288.051L184.696 289.258Z" fill="url(#paint12_linear_795_881)"/>
<path id="Vector_31" d="M327.529 285.066L328.12 294.255H323.982V290.781L318.407 294.267L304.521 294.302C304.521 294.302 304.521 284.786 310.723 285.256C316.924 285.726 319.483 285.256 319.483 285.256L320.459 283.924L327.529 285.066Z" fill="url(#paint13_linear_795_881)"/>
<path id="Vector_32" d="M282.263 285.179L282.855 294.362H278.717V290.889L273.107 294.386L259.221 294.421C259.221 294.421 259.221 284.905 265.422 285.375C271.623 285.845 274.182 285.375 274.182 285.375L275.158 284.043L282.263 285.179Z" fill="url(#paint14_linear_795_881)"/>
<path id="Vector_33" d="M296.05 118.879L300.087 125.421L288.909 136.799L286.609 139.142L298.757 97.7177L298.805 93.5723L300.347 95.1603V95.1662L302.369 97.2478L303.144 114.401L296.05 118.879Z" fill="#68E1FD"/>
<path id="Vector_34" d="M287.259 103.202L285.752 110.339L286.609 139.137L297.622 101.59L292.893 104.599C292.639 104.76 292.379 104.909 292.107 105.045C291.672 105.265 291.197 105.392 290.711 105.417C290.225 105.441 289.739 105.364 289.285 105.19C288.831 105.015 288.417 104.747 288.072 104.403C287.726 104.058 287.455 103.645 287.277 103.19L287.259 103.202Z" fill="white"/>
<path id="Vector_35" d="M287.33 97.4502L282.417 106.711L284.049 110.576L281.383 116.375L286.591 139.136C286.591 139.136 285.166 111.314 287.241 103.19C287.259 103.201 287.944 99.3118 287.33 97.4502Z" fill="#68E1FD"/>
<path id="Vector_36" opacity="0.61" d="M296.05 118.879L300.087 125.421L288.909 136.799L286.609 139.142L298.757 97.7177L298.805 93.5723L300.347 95.1603V95.1662L302.369 97.2478L303.144 114.401L296.05 118.879Z" fill="url(#paint15_linear_795_881)"/>
<path id="Vector_37" opacity="0.61" d="M287.33 97.4502L282.417 106.711L284.049 110.576L281.383 116.375L286.591 139.136C286.591 139.136 285.166 111.314 287.241 103.19C287.259 103.201 287.944 99.3118 287.33 97.4502Z" fill="url(#paint16_linear_795_881)"/>
<path id="Vector_38" d="M168.665 90.3555L183.177 97.6174L187.102 105.272L166.158 93.9359L168.665 90.3555Z" fill="#68E1FD"/>
<path id="Vector_39" opacity="0.61" d="M168.665 90.3555L183.177 97.6174L187.102 105.272L166.158 93.9359L168.665 90.3555Z" fill="url(#paint17_linear_795_881)"/>
<path id="Vector_40" d="M129.874 191.047V307.024H117.182V254.412H2.70152C1.0066 248.141 0.0990265 241.681 0 235.184L0 233.542C0.100494 218.138 4.82371 202.9 14.6662 191.071L129.874 191.047ZM143.417 184.398V191.047H14.6662C15.2895 190.293 15.932 189.555 16.5933 188.834C17.9884 187.324 19.5018 185.861 21.1037 184.398H143.417ZM73.3902 146.113C71.936 144.71 70.198 143.639 68.6611 142.354C68.1172 141.902 67.5438 141.296 67.6502 140.57C67.7184 140.289 67.8666 140.034 68.0766 139.837C68.2866 139.639 68.5493 139.508 68.8325 139.458C69.4073 139.378 69.9922 139.414 70.5527 139.565L67.2423 135.818C66.9349 135.467 66.6039 134.985 66.8285 134.575C67.0532 134.165 67.6857 134.188 68.1231 134.397C68.5186 134.673 68.9794 134.839 69.4591 134.878C68.2768 133.207 66.7753 131.845 65.5162 130.257C64.2571 128.669 63.2462 126.689 63.4354 124.69C63.4385 124.399 63.5407 124.118 63.725 123.893C64.1034 123.513 64.7418 123.673 65.2325 123.893C68.7344 125.427 71.5435 128.217 73.1124 131.72C72.5665 130.015 72.3459 128.221 72.4621 126.433C72.4501 126.225 72.4842 126.016 72.5619 125.823C72.6396 125.63 72.7589 125.456 72.9114 125.315C73.5025 124.904 74.2828 125.612 74.6257 126.272C76.9548 130.834 75.3291 136.383 76.2809 141.433C76.405 140.029 77.056 138.725 78.1016 137.787C78.3909 140.386 78.2913 143.014 77.806 145.584C78.5331 145.905 78.474 146.952 78.2908 147.737C78.0557 148.941 77.7597 150.132 77.4041 151.305C76.1035 151.198 76.0799 150.485 75.672 149.432C75.1586 148.173 74.3801 147.041 73.3902 146.113Z" fill="#E55AFE"/>
<path id="Vector_41" d="M83.8124 130.567C85.0361 129.169 86.5021 127.843 88.3169 127.462C88.8667 128.527 88.3169 129.841 87.5543 130.775C86.7918 131.708 85.8459 132.559 85.4617 133.665C87.0451 131.763 89.1872 130.416 91.58 129.817C92.4296 129.527 93.358 129.58 94.1692 129.966C94.2852 130.028 94.3879 130.112 94.4711 130.214C94.5543 130.316 94.6165 130.434 94.6539 130.561C94.7958 131.215 93.9682 131.607 93.318 131.75C88.7552 132.96 84.7505 135.724 81.9858 139.571C84.6833 137.93 87.8448 137.234 90.977 137.591C91.5209 137.656 92.1593 137.823 92.3603 138.328C92.6736 139.077 91.8283 139.791 91.0598 140.047C88.1041 141.034 84.4035 139.981 82.0153 142.016C83.309 141.876 84.607 142.237 85.6449 143.027C86.4785 143.663 87.0932 144.966 86.3602 145.715C86.1127 145.91 85.8252 146.047 85.5186 146.117C85.212 146.187 84.8937 146.188 84.5868 146.119C82.8784 145.971 80.7739 145.685 79.7926 147.101C79.2547 147.88 79.2961 148.885 79.0951 149.837C78.9355 150.592 78.3148 151.93 77.499 151.193C76.9552 150.699 77.168 148.974 77.168 148.32C77.2083 141.802 79.5604 135.513 83.8006 130.584L83.8124 130.567Z" fill="#68E1FD"/>
<path id="Vector_42" opacity="0.61" d="M73.3898 146.113C71.9356 144.71 70.1976 143.639 68.6607 142.354C68.1168 141.902 67.5434 141.296 67.6498 140.57C67.718 140.289 67.8662 140.034 68.0762 139.837C68.2862 139.639 68.5489 139.508 68.8321 139.458C69.4068 139.378 69.9918 139.414 70.5523 139.565L67.2419 135.818C66.9345 135.467 66.6035 134.985 66.8281 134.575C67.0528 134.165 67.6853 134.188 68.1227 134.397C68.5182 134.673 68.979 134.839 69.4587 134.878C68.2764 133.207 66.7749 131.845 65.5158 130.257C64.2567 128.669 63.2458 126.689 63.435 124.69C63.4381 124.399 63.5403 124.118 63.7246 123.893C64.103 123.513 64.7414 123.673 65.232 123.893C68.734 125.427 71.5431 128.217 73.1119 131.72C72.5661 130.015 72.3454 128.221 72.4617 126.433C72.4497 126.225 72.4838 126.016 72.5615 125.823C72.6392 125.63 72.7585 125.456 72.911 125.315C73.5021 124.904 74.2824 125.612 74.6253 126.272C76.9544 130.834 75.3287 136.383 76.2805 141.433C76.4046 140.029 77.0556 138.725 78.1012 137.787C78.3905 140.386 78.2909 143.014 77.8056 145.584C78.5327 145.905 78.4736 146.952 78.2903 147.737C78.0553 148.941 77.7593 150.132 77.4036 151.305C76.1031 151.198 76.0795 150.485 75.6716 149.432C75.1582 148.173 74.3797 147.041 73.3898 146.113Z" fill="url(#paint18_linear_795_881)"/>
<path id="Vector_43" opacity="0.61" d="M83.8124 130.567C85.0361 129.169 86.5021 127.843 88.3169 127.462C88.8667 128.527 88.3169 129.841 87.5543 130.775C86.7918 131.708 85.8459 132.559 85.4617 133.665C87.0451 131.763 89.1872 130.416 91.58 129.817C92.4296 129.527 93.358 129.58 94.1692 129.966C94.2852 130.028 94.3879 130.112 94.4711 130.214C94.5543 130.316 94.6165 130.434 94.6539 130.561C94.7958 131.215 93.9682 131.607 93.318 131.75C88.7552 132.96 84.7505 135.724 81.9858 139.571C84.6833 137.93 87.8448 137.234 90.977 137.591C91.5209 137.656 92.1593 137.823 92.3603 138.328C92.6736 139.077 91.8283 139.791 91.0598 140.047C88.1041 141.034 84.4035 139.981 82.0153 142.016C83.309 141.876 84.607 142.237 85.6449 143.027C86.4785 143.663 87.0932 144.966 86.3602 145.715C86.1127 145.91 85.8252 146.047 85.5186 146.117C85.212 146.187 84.8937 146.188 84.5868 146.119C82.8784 145.971 80.7739 145.685 79.7926 147.101C79.2547 147.88 79.2961 148.885 79.0951 149.837C78.9355 150.592 78.3148 151.93 77.499 151.193C76.9552 150.699 77.168 148.974 77.168 148.32C77.2083 141.802 79.5604 135.513 83.8006 130.584L83.8124 130.567Z" fill="url(#paint19_linear_795_881)"/>
<path id="Vector_44" d="M85.0526 184.332L78.2899 184.368L71.5982 184.397C56.8788 175.589 73.8623 157.735 73.8623 157.735C73.8623 157.735 74.5362 154.951 73.6554 153.197C73.4549 152.772 73.1367 152.415 72.7391 152.168C70.5696 150.859 73.5963 150.342 73.5963 150.342H82.6762C82.6762 150.342 85.7856 150.603 83.4506 152.251C81.1156 153.898 82.4161 157.735 82.4161 157.735C100.611 178.057 85.0526 184.332 85.0526 184.332Z" fill="white"/>
<path id="Vector_45" opacity="0.51" d="M78.7806 183.833C78.6312 184.024 78.4671 184.203 78.2899 184.368L71.5982 184.398C56.8788 175.59 73.8623 157.735 73.8623 157.735C73.8623 157.735 74.5362 154.952 73.6554 153.197C76.6111 152.971 78.0357 156.807 77.6397 159.246C77.3382 161.125 77.0485 163.01 76.7234 164.89C76.3458 166.647 76.2461 168.454 76.4278 170.243C76.7943 172.622 78.1421 174.721 79.0229 176.957C79.9037 179.194 80.2525 181.93 78.7806 183.833Z" fill="url(#paint20_linear_795_881)"/>
<path id="Vector_46" opacity="0.61" d="M129.874 191.047L63.7369 209.948C52.2656 213.227 41.5989 218.874 32.4166 226.529C23.2342 234.185 15.7375 243.681 10.4041 254.412H2.71925C1.01834 248.142 0.10481 241.682 0 235.184L0 233.542C0.100494 218.138 4.82371 202.9 14.6662 191.071L129.874 191.047Z" fill="url(#paint21_linear_795_881)"/>
<path id="Vector_47" opacity="0.61" d="M117.182 254.412H123.247V306.929H117.182V254.412Z" fill="url(#paint22_linear_795_881)"/>
<path id="Vector_48" d="M157.557 176.238C157.475 176.166 157.396 176.09 157.32 176.012L157.374 176.059C157.442 176.11 157.504 176.171 157.557 176.238Z" fill="url(#paint23_linear_795_881)"/>
<path id="Vector_49" opacity="0.24" d="M151.006 166.775C151.006 166.775 151.864 176.345 154.063 178.777C151.259 175.985 149.063 172.637 147.613 168.946C147.613 168.946 157.072 103.594 166.92 92.2227L169.568 93.6382L151.006 166.775ZM279.296 115.186L279.432 121.728L270.943 143.229L245.004 156.908L243.55 155.035L269.329 140.951C269.329 140.951 277.375 124.274 279.296 115.186ZM229.256 166.722L228.818 169.065L199.309 166.852C191.139 166.145 183.123 160.524 182.106 152.311L171.921 116.031C171.46 114.542 171.381 112.96 171.691 111.433C172.001 109.905 172.69 108.481 173.694 107.294C173.694 107.294 183.206 152.198 186.7 156.218C190.193 160.239 196.849 162.647 196.849 162.647L229.256 166.722Z" fill="white"/>
<path id="Vector_50" opacity="0.24" d="M163.522 237.111L147.65 287.546L145.285 286.523L158.828 232.876C158.828 232.876 153.555 218.275 149.677 207.629C145.953 197.417 151.019 177.183 151.451 175.554L153.478 177.665C153.478 177.665 148.158 201.61 155.004 212.994C161.849 224.377 163.522 237.111 163.522 237.111ZM288.034 178.997C286.844 178.692 285.68 178.295 284.552 177.808C283.818 177.493 283.153 177.034 282.597 176.459C282.04 175.883 281.603 175.202 281.309 174.456C281.016 173.709 280.874 172.911 280.889 172.108C280.905 171.305 281.079 170.513 281.401 169.779C283.074 165.972 283.122 160.465 282.968 155.386C282.619 143.705 279.681 131.078 279.462 125.797C279.321 122.436 279.858 117.672 280.84 112.914L282.696 105.01C282.696 105.01 280.993 117.833 280.556 121.348C280.119 124.863 284.132 144.876 285.587 147.779C287.041 150.681 284.469 167.762 284.818 171.819C285.167 175.875 288.034 178.997 288.034 178.997ZM320.955 285.209L318.537 286.398C318.259 285 313.087 259.277 305.798 240.638C300.353 226.738 297.729 198.41 296.706 183.946L299.703 184.54C299.703 184.54 304.148 221.475 309.031 235.13C313.914 248.786 320.955 285.209 320.955 285.209ZM319.489 153.251L311.65 178.652L309.877 178.313L309.528 178.194L316.888 154.404C316.888 154.404 307.252 127.676 305.62 119.445C305.1 116.72 305.074 113.923 305.544 111.19C305.78 109.769 306.438 108.455 307.431 107.417C308.423 106.38 309.705 105.67 311.106 105.379C311.106 105.379 305.786 109.108 307.406 117.351C309.522 127.944 319.489 153.251 319.489 153.251ZM301.571 98.8246L289.317 137.936L286.964 140.332L299.39 97.9681L299.437 93.7275L301.015 95.3512V95.3572L301.571 98.8246Z" fill="white"/>
</g>
<defs>
<linearGradient id="paint0_linear_795_881" x1="193.64" y1="153.066" x2="122.317" y2="116.012" gradientUnits="userSpaceOnUse">
<stop offset="0.17" stop-color="#00272E"/>
<stop offset="1" stop-color="#69B9EB" stop-opacity="0"/>
</linearGradient>
<linearGradient id="paint1_linear_795_881" x1="289.352" y1="213.409" x2="317.832" y2="113.209" gradientUnits="userSpaceOnUse">
<stop offset="0.17" stop-color="#00272E"/>
<stop offset="1" stop-color="#69B9EB" stop-opacity="0"/>
</linearGradient>
<linearGradient id="paint2_linear_795_881" x1="286.517" y1="98.2062" x2="299.156" y2="98.1755" gradientUnits="userSpaceOnUse">
<stop stop-color="#ECC4D7"/>
<stop offset="0.42" stop-color="#EFD4D1"/>
<stop offset="1" stop-color="#F2EAC9"/>
</linearGradient>
<linearGradient id="paint3_linear_795_881" x1="294.796" y1="88.9672" x2="272.395" y2="126.217" gradientUnits="userSpaceOnUse">
<stop stop-color="#ECC4D7"/>
<stop offset="0.42" stop-color="#EFD4D1"/>
<stop offset="1" stop-color="#F2EAC9"/>
</linearGradient>
<linearGradient id="paint4_linear_795_881" x1="275.095" y1="80.5822" x2="301.873" y2="80.5172" gradientUnits="userSpaceOnUse">
<stop stop-color="#ECC4D7"/>
<stop offset="0.42" stop-color="#EFD4D1"/>
<stop offset="1" stop-color="#F2EAC9"/>
</linearGradient>
<linearGradient id="paint5_linear_795_881" x1="227.558" y1="166.795" x2="241.477" y2="161.365" gradientUnits="userSpaceOnUse">
<stop stop-color="#ECC4D7"/>
<stop offset="0.42" stop-color="#EFD4D1"/>
<stop offset="1" stop-color="#F2EAC9"/>
</linearGradient>
<linearGradient id="paint6_linear_795_881" x1="233.129" y1="148.331" x2="143.255" y2="163.866" gradientUnits="userSpaceOnUse">
<stop offset="0.17" stop-color="#00272E"/>
<stop offset="1" stop-color="#69B9EB" stop-opacity="0"/>
</linearGradient>
<linearGradient id="paint7_linear_795_881" x1="185.285" y1="79.0421" x2="192.623" y2="81.2887" gradientUnits="userSpaceOnUse">
<stop stop-color="#ECC4D7"/>
<stop offset="0.42" stop-color="#EFD4D1"/>
<stop offset="1" stop-color="#F2EAC9"/>
</linearGradient>
<linearGradient id="paint8_linear_795_881" x1="244.387" y1="156.447" x2="230.42" y2="189.411" gradientUnits="userSpaceOnUse">
<stop stop-color="#ECC4D7"/>
<stop offset="0.42" stop-color="#EFD4D1"/>
<stop offset="1" stop-color="#F2EAC9"/>
</linearGradient>
<linearGradient id="paint9_linear_795_881" x1="238.018" y1="165.45" x2="234.806" y2="177.158" gradientUnits="userSpaceOnUse">
<stop stop-color="#ECC4D7"/>
<stop offset="0.42" stop-color="#EFD4D1"/>
<stop offset="1" stop-color="#F2EAC9"/>
</linearGradient>
<linearGradient id="paint10_linear_795_881" x1="302.583" y1="185.037" x2="319.301" y2="184.996" gradientUnits="userSpaceOnUse">
<stop stop-color="#ECC4D7"/>
<stop offset="0.42" stop-color="#EFD4D1"/>
<stop offset="1" stop-color="#F2EAC9"/>
</linearGradient>
<linearGradient id="paint11_linear_795_881" x1="170.515" y1="285.88" x2="146.379" y2="296.471" gradientUnits="userSpaceOnUse">
<stop stop-color="#68E1FD"/>
<stop offset="0.01" stop-color="#67DDF9"/>
<stop offset="0.12" stop-color="#5CB3CE"/>
<stop offset="0.24" stop-color="#538EA9"/>
<stop offset="0.37" stop-color="#4C718B"/>
<stop offset="0.5" stop-color="#465A73"/>
<stop offset="0.63" stop-color="#424A63"/>
<stop offset="0.79" stop-color="#404059"/>
<stop offset="0.99" stop-color="#3F3D56"/>
</linearGradient>
<linearGradient id="paint12_linear_795_881" x1="208.726" y1="285.404" x2="187.596" y2="299.476" gradientUnits="userSpaceOnUse">
<stop stop-color="#68E1FD"/>
<stop offset="0.01" stop-color="#67DDF9"/>
<stop offset="0.12" stop-color="#5CB3CE"/>
<stop offset="0.24" stop-color="#538EA9"/>
<stop offset="0.37" stop-color="#4C718B"/>
<stop offset="0.5" stop-color="#465A73"/>
<stop offset="0.63" stop-color="#424A63"/>
<stop offset="0.79" stop-color="#404059"/>
<stop offset="0.99" stop-color="#3F3D56"/>
</linearGradient>
<linearGradient id="paint13_linear_795_881" x1="306.36" y1="282.342" x2="323.359" y2="295.124" gradientUnits="userSpaceOnUse">
<stop stop-color="#68E1FD"/>
<stop offset="0.01" stop-color="#67DDF9"/>
<stop offset="0.12" stop-color="#5CB3CE"/>
<stop offset="0.24" stop-color="#538EA9"/>
<stop offset="0.37" stop-color="#4C718B"/>
<stop offset="0.5" stop-color="#465A73"/>
<stop offset="0.63" stop-color="#424A63"/>
<stop offset="0.79" stop-color="#404059"/>
<stop offset="0.99" stop-color="#3F3D56"/>
</linearGradient>
<linearGradient id="paint14_linear_795_881" x1="254.503" y1="281.515" x2="287.571" y2="298.166" gradientUnits="userSpaceOnUse">
<stop stop-color="#68E1FD"/>
<stop offset="0.01" stop-color="#67DDF9"/>
<stop offset="0.12" stop-color="#5CB3CE"/>
<stop offset="0.24" stop-color="#538EA9"/>
<stop offset="0.37" stop-color="#4C718B"/>
<stop offset="0.5" stop-color="#465A73"/>
<stop offset="0.63" stop-color="#424A63"/>
<stop offset="0.79" stop-color="#404059"/>
<stop offset="0.99" stop-color="#3F3D56"/>
</linearGradient>
<linearGradient id="paint15_linear_795_881" x1="272.511" y1="128.913" x2="317.392" y2="101.352" gradientUnits="userSpaceOnUse">
<stop offset="0.17" stop-color="#00272E"/>
<stop offset="1" stop-color="#69B9EB" stop-opacity="0"/>
</linearGradient>
<linearGradient id="paint16_linear_795_881" x1="302.215" y1="117.125" x2="268.819" y2="119.663" gradientUnits="userSpaceOnUse">
<stop offset="0.17" stop-color="#00272E"/>
<stop offset="1" stop-color="#69B9EB" stop-opacity="0"/>
</linearGradient>
<linearGradient id="paint17_linear_795_881" x1="192.251" y1="70.2825" x2="164.914" y2="120.983" gradientUnits="userSpaceOnUse">
<stop offset="0.17" stop-color="#00272E"/>
<stop offset="1" stop-color="#69B9EB" stop-opacity="0"/>
</linearGradient>
<linearGradient id="paint18_linear_795_881" x1="63.4113" y1="137.525" x2="78.4086" y2="137.525" gradientUnits="userSpaceOnUse">
<stop offset="0.17" stop-color="#EF55FF"/>
<stop offset="1" stop-color="#3DDEED"/>
</linearGradient>
<linearGradient id="paint19_linear_795_881" x1="77.1384" y1="139.428" x2="94.6717" y2="139.428" gradientUnits="userSpaceOnUse">
<stop offset="0.17" stop-color="#EF55FF"/>
<stop offset="1" stop-color="#69B9EB" stop-opacity="0"/>
</linearGradient>
<linearGradient id="paint20_linear_795_881" x1="86.8437" y1="140.446" x2="64.829" y2="196.321" gradientUnits="userSpaceOnUse">
<stop stop-color="white" stop-opacity="0"/>
<stop offset="1" stop-color="#1A7FC1"/>
</linearGradient>
<linearGradient id="paint21_linear_795_881" x1="-59.6462" y1="172.05" x2="238.687" y2="290.658" gradientUnits="userSpaceOnUse">
<stop offset="0.17" stop-color="#00272E"/>
<stop offset="1" stop-color="#69B9EB" stop-opacity="0"/>
</linearGradient>
<linearGradient id="paint22_linear_795_881" x1="-72.0665" y1="203.287" x2="226.267" y2="321.895" gradientUnits="userSpaceOnUse">
<stop offset="0.17" stop-color="#00272E"/>
<stop offset="1" stop-color="#69B9EB" stop-opacity="0"/>
</linearGradient>
<linearGradient id="paint23_linear_795_881" x1="157.32" y1="176.125" x2="157.557" y2="176.125" gradientUnits="userSpaceOnUse">
<stop stop-color="#68E1FD"/>
<stop offset="1" stop-color="#69B9EB"/>
</linearGradient>
<clipPath id="clip0_795_881">
<rect width="457" height="308" fill="white"/>
</clipPath>
</defs>
</svg>
