<svg width="120" height="25" viewBox="0 0 120 25" fill="none" xmlns="http://www.w3.org/2000/svg">
<path d="M31.5823 10.7247L29.0156 10.7247L29.0156 0.981445L31.5823 0.981445L31.5823 10.7247Z" fill="white"/>
<path d="M47.5522 0.981445L47.5522 10.7247L44.0581 10.7247L37.2561 3.41774L37.2561 10.7247L34.6895 10.7247L34.6895 0.981445L38.1679 0.981445L44.9836 8.30179L44.9836 0.981445L47.5502 0.981445L47.5522 0.981445Z" fill="white"/>
<path d="M53.2268 3.08277L53.2268 5.55925L60.3562 5.55925L60.3562 7.67402L53.2268 7.67402L53.2268 10.7227L50.6602 10.7227L50.6602 0.979492L61.2131 0.979492L61.2131 3.08086L53.2288 3.08086L53.2268 3.08277Z" fill="white"/>
<path d="M66.5881 10.7247L64.0215 10.7247L64.0215 0.981445L66.5881 0.981445L66.5881 10.7247Z" fill="white"/>
<path d="M82.5581 0.981445L82.5581 10.7247L79.0639 10.7247L72.262 3.41774L72.262 10.7247L69.6953 10.7247L69.6953 0.981445L73.1757 0.981445L79.9914 8.30179L79.9914 0.981445L82.5581 0.981445Z" fill="white"/>
<path d="M88.2327 10.7247L85.666 10.7247L85.666 0.981445L88.2327 0.981445L88.2327 10.7247Z" fill="white"/>
<path d="M103.306 3.08282L98.4567 3.08282L98.4567 10.7228L95.89 10.7228L95.89 3.08282L91.041 3.08282L91.041 0.981445L103.304 0.981445L103.304 3.08282L103.306 3.08282Z" fill="white"/>
<path d="M105.803 0.981445L108.897 0.981445L112.732 5.4215L116.567 0.981445L119.662 0.981445L114.014 7.52287L114.014 10.7247L111.448 10.7247L111.448 7.52287L105.801 0.981445L105.803 0.981445Z" fill="white"/>
<path d="M41.1078 19.771C41.1078 23.0838 38.8411 24.6417 36.2588 24.6417L29.0156 24.6417L29.0156 14.8984L36.2588 14.8984C38.8392 14.8984 41.1078 16.4563 41.1078 19.7691L41.1078 19.771ZM38.5411 19.771C38.5411 17.4055 37.2294 17.0017 35.2901 17.0017L31.5823 17.0017L31.5823 22.5403L35.2901 22.5403C37.2294 22.5403 38.5411 22.1365 38.5411 19.771Z" fill="white"/>
<path d="M48.3948 24.6417L45.8281 24.6417L45.8281 14.8984L48.3948 14.8984L48.3948 24.6417Z" fill="white"/>
<path d="M59.2155 19.4228L65.5469 19.4228L65.5469 24.6418L63.6508 24.6418L63.5371 23.1107C62.5959 24.1136 61.0979 24.7815 58.9743 24.7815C55.2959 24.7815 53.043 22.9997 53.043 19.7711C53.043 16.5425 55.2959 14.7607 59.4037 14.7607C63.5116 14.7607 65.392 16.2784 65.5489 18.6994L62.939 18.6994C62.7959 17.9626 62.1116 16.8621 59.4018 16.8621C56.0645 16.8621 55.6096 18.6573 55.6096 19.8266C55.6096 20.996 56.0802 22.8466 59.4018 22.8466C61.8822 22.8466 62.8802 21.7883 62.939 21.0515L59.2175 21.0515L59.2175 19.4228L59.2155 19.4228Z" fill="white"/>
<path d="M72.9065 24.6417L70.3398 24.6417L70.3398 14.8984L72.9065 14.8984L72.9065 24.6417Z" fill="white"/>
<path d="M89.8038 17.0018L84.9548 17.0018L84.9548 24.6417L82.3881 24.6417L82.3881 17.0018L77.5391 17.0018L77.5391 14.9004L89.8018 14.9004L89.8018 17.0018L89.8038 17.0018Z" fill="white"/>
<path d="M101.226 22.5671L95.2515 22.5671L94.1829 24.6417L91.3594 24.6417L96.5064 14.8984L99.9711 14.8984L105.134 24.6417L102.297 24.6417L101.228 22.5671L101.226 22.5671ZM100.271 20.7011L98.2456 16.7491L96.2064 20.7011L100.271 20.7011Z" fill="white"/>
<path d="M119.806 22.5403L119.806 24.6417L109.539 24.6417L109.539 14.8984L112.106 14.8984L112.106 22.5384L119.806 22.5384L119.806 22.5403Z" fill="white"/>
<path d="M8.8322 3.38756C8.49102 5.25544 6.56945 6.53961 4.642 6.09561C4.26749 6.00949 3.90279 5.85638 3.52044 5.82002C2.56161 5.72816 1.73808 5.98652 1.05181 6.59703C-0.110938 7.6324 -0.310936 9.31848 0.600829 10.5893C1.63612 12.0323 3.73024 12.3136 5.12828 11.1825C5.77142 10.6601 6.0969 10.0457 6.24788 9.27638C6.62436 7.36447 8.76357 6.10709 10.7048 6.74056C11.793 7.09462 12.7616 7.00085 13.6087 6.45732C15.6185 5.16741 15.4479 2.24118 13.2812 1.19241C12.1224 0.631663 10.7322 0.842184 9.7773 1.69C9.29298 2.1187 8.94984 2.74069 8.8322 3.38947" fill="white"/>
<path d="M14.3366 13.3279C14.4131 12.9049 14.6249 12.436 14.8758 12.1164C15.6994 11.0715 16.7739 10.6255 18.1013 10.7787C18.5876 10.8342 19.0131 11.0715 19.5072 11.1002C20.468 11.1557 21.2739 10.8437 21.9249 10.1605C22.4876 9.57104 22.7464 8.8591 22.6994 8.02277C22.5935 6.10512 20.5425 4.82094 18.717 5.49844C17.8837 5.80847 17.2954 6.37688 16.9523 7.20365C16.9484 7.2113 16.8856 7.45628 16.7601 7.93856C16.515 8.88016 15.9288 9.58253 15.0013 10.0438C14.4268 10.3308 13.8151 10.438 13.166 10.371C12.6523 10.3155 12.1935 10.0801 11.6758 10.0342C10.3347 9.91743 9.16603 10.6236 8.63858 11.814C8.44054 12.26 8.37583 12.7595 8.44446 13.3125C8.66995 15.1268 10.7111 16.3058 12.466 15.6053C13.4739 15.2034 14.1445 14.3881 14.3327 13.3317" fill="white"/>
<path d="M16.1868 17.4138C15.4986 18.6769 14.2339 19.3352 12.777 19.1783C12.2692 19.1228 11.8221 18.8836 11.3084 18.8491C10.3711 18.786 9.57112 19.0845 8.91229 19.7429C7.9221 20.7304 7.80837 22.3304 8.66719 23.4385C9.36327 24.3379 10.4201 24.7666 11.5672 24.5829C12.6084 24.4164 13.528 23.6624 13.8692 22.6672C13.9868 22.3246 14.026 21.9495 14.1692 21.6165C14.8143 20.1065 16.4711 19.2376 18.128 19.6759C18.426 19.7544 18.7064 19.8711 19.0103 19.9055C21.0182 20.1371 22.6574 18.4951 22.3319 16.5353C22.0495 14.8416 20.1633 13.6933 18.4594 14.2981C17.4613 14.6521 16.7417 15.4081 16.5162 16.4224C16.4378 16.7707 16.3594 17.1018 16.1888 17.4138" fill="white"/>
<path d="M5.92941 17.6456C5.92941 16.0476 4.60196 14.752 2.96471 14.752C1.32745 14.752 2.92062e-08 16.0476 6.52287e-08 17.6456C1.01251e-07 19.2437 1.32745 20.5393 2.96471 20.5393C4.60196 20.5393 5.92941 19.2437 5.92941 17.6456Z" fill="white"/>
<path d="M4.64396 6.09557C6.57141 6.53958 8.49298 5.25732 8.83415 3.38752C8.9518 2.74065 9.2969 2.11675 9.77925 1.68805C10.7342 0.840231 12.1243 0.62971 13.2832 1.19046C15.4498 2.23923 15.6204 5.16737 13.6106 6.45537C12.7636 6.99889 11.7949 7.09267 10.7067 6.73862C8.76552 6.10514 6.62631 7.36252 6.24984 9.27442C6.09886 10.0438 5.77337 10.6581 5.13023 11.1806C3.73416 12.3117 1.63807 12.0322 0.602781 10.5873C-0.308984 9.31652 -0.108984 7.63045 1.05376 6.59508C1.74004 5.98457 2.56356 5.72429 3.52239 5.81807C3.90278 5.85443 4.26749 6.00754 4.64396 6.09366L4.64396 6.09557Z" fill="white"/>
<path d="M14.8778 12.1137C14.6268 12.4352 14.415 12.9022 14.3386 13.3251C14.1503 14.3815 13.4778 15.1968 12.4719 15.5987C10.717 16.2992 8.67581 15.1203 8.45032 13.306C8.38169 12.7529 8.4464 12.2534 8.64444 11.8075C9.17189 10.6171 10.3405 9.91279 11.6817 10.0276C12.1993 10.0736 12.6562 10.309 13.1719 10.3645C13.8189 10.4334 14.4307 10.3243 15.0072 10.0372C15.9346 9.57596 16.5209 8.87359 16.766 7.93199C16.8915 7.44971 16.9542 7.20474 16.9582 7.19708C17.3013 6.37032 17.8895 5.80191 18.7229 5.49187C20.5464 4.8163 22.5993 6.09855 22.7052 8.0162C22.7503 8.85062 22.4935 9.56447 21.9307 10.1539C21.2797 10.8372 20.4738 11.151 19.5131 11.0936C19.0189 11.0649 18.5915 10.8295 18.1072 10.7721C16.7797 10.619 15.7052 11.0649 14.8817 12.1099L14.8778 12.1137Z" fill="white"/>
<path d="M16.1868 17.4138C16.3574 17.1018 16.4378 16.7707 16.5143 16.4224C16.7397 15.41 17.4594 14.654 18.4574 14.2981C20.1613 13.6933 22.0496 14.8416 22.3299 16.5353C22.6554 18.4951 21.0143 20.139 19.0084 19.9055C18.7045 19.8711 18.4221 19.7544 18.126 19.6759C16.4692 19.2357 14.8123 20.1046 14.1672 21.6165C14.0241 21.9514 13.9848 22.3265 13.8672 22.6672C13.526 23.6624 12.6064 24.4164 11.5652 24.5829C10.4182 24.7666 9.36132 24.336 8.66524 23.4385C7.80642 22.3304 7.92014 20.7304 8.91034 19.7429C9.56916 19.0845 10.3692 18.786 11.3064 18.8491C11.8201 18.8836 12.2672 19.1228 12.775 19.1783C14.2319 19.3352 15.4966 18.675 16.1848 17.4138L16.1868 17.4138Z" fill="white"/>
<path d="M2.96471 20.5393C4.60207 20.5393 5.92941 19.2438 5.92941 17.6456C5.92941 16.0475 4.60207 14.752 2.96471 14.752C1.32735 14.752 2.80584e-08 16.0475 6.26702e-08 17.6456C9.7282e-08 19.2438 1.32735 20.5393 2.96471 20.5393Z" fill="white"/>
</svg>
